<svg xmlns="http://www.w3.org/2000/svg" width="226" height="10" viewBox="0 0 226 10">
  <g id="logo1-sp" transform="translate(-1521.297 -901.108) rotate(-90)">
    <path id="パス_924" data-name="パス 924" d="M-910.031,1525.922a3.071,3.071,0,0,1-.969-2.368V1520.3h9.852v3.257a3.071,3.071,0,0,1-.969,2.368c-1.148,1.025-2.407.914-3.957.914S-908.883,1526.947-910.031,1525.922Zm6.171-1.481a1.087,1.087,0,0,0,.553-1.036v-.95h-5.535v.95a1.086,1.086,0,0,0,.553,1.036c.277.173.54.235,2.214.235S-904.137,1524.614-903.86,1524.441Z" transform="translate(-0.034 1)" fill="#fff"/>
    <path id="パス_925" data-name="パス 925" d="M-911,1590.447l1.466-.407v-2.7l-1.466-.431v-2.258l9.852,3.195v1.666L-911,1592.7Zm6.116-1.714-2.629-.789v1.53Z" transform="translate(-0.034 -19.535)" fill="#fff"/>
    <path id="パス_926" data-name="パス 926" d="M-911,1651.628h9.852v2.159H-911Z" transform="translate(-0.034 -40.953)" fill="#fff"/>
    <path id="パス_927" data-name="パス 927" d="M-911,1716.2l4.04-2.023-.955-.74H-911v-2.135h9.852v2.135h-3.487l3.487,2.541v2.641l-3.985-3-5.867,3.1Z" transform="translate(-0.034 -60.151)" fill="#fff"/>
    <path id="パス_928" data-name="パス 928" d="M-910,1782.734a3.059,3.059,0,0,1-1.1-2.455,3.059,3.059,0,0,1,1.1-2.455c1.036-.925,2.418-.888,3.9-.888s2.858-.037,3.895.888a3.057,3.057,0,0,1,1.105,2.455,3.058,3.058,0,0,1-1.105,2.455c-1.036.925-2.416.888-3.895.888S-908.967,1783.66-910,1782.734Zm6.312-1.591a1.037,1.037,0,0,0,.428-.864,1.037,1.037,0,0,0-.428-.864c-.29-.2-.622-.321-2.417-.321s-2.113.124-2.4.321a1.046,1.046,0,0,0-.442.864,1.046,1.046,0,0,0,.442.864c.29.2.608.32,2.4.32S-903.981,1781.34-903.691,1781.143Z" transform="translate(0 -81.069)" fill="#fff"/>
    <path id="パス_929" data-name="パス 929" d="M-911.108,1845.9a3.316,3.316,0,0,1,3.539-3.318h6.387v2.158h-6.332c-.912,0-1.437.444-1.437,1.16s.525,1.185,1.438,1.185h6.332v2.158h-6.387A3.335,3.335,0,0,1-911.108,1845.9Z" transform="translate(0 -101.949)" fill="#fff"/>
  </g>
</svg>
