<svg xmlns="http://www.w3.org/2000/svg" xmlns:xlink="http://www.w3.org/1999/xlink" width="191" height="210" viewBox="0 0 191 210"><defs><clipPath id="a"><rect width="191" height="210" transform="translate(1710)" fill="#fff" stroke="#707070" stroke-width="1"/></clipPath><radialGradient id="b" cx="0.5" cy="0.5" r="0.5" gradientUnits="objectBoundingBox"><stop offset="0" stop-color="#fcfadc"/><stop offset="0.655" stop-color="#fffbd0"/><stop offset="1" stop-color="#fff" stop-opacity="0"/></radialGradient></defs><g transform="translate(-1710)" clip-path="url(#a)"><g transform="translate(1711 -20)"><circle cx="92.5" cy="92.5" r="92.5" transform="translate(1.491 45.002)" fill="url(#b)"/><g transform="translate(57.813 119.713)"><path d="M63.42,342.688a15.444,15.444,0,0,1,1.882-.7c.3,0,.34.26.36.48a2.589,2.589,0,0,0,.52,1.3,4.155,4.155,0,0,0,3.062.84,20.763,20.763,0,0,0,5.784-.72,1.843,1.843,0,0,1,.46-.08c.22,0,.4.18.44.6a17.952,17.952,0,0,1,.12,2.12c0,.36-.2.46-.7.58a33.226,33.226,0,0,1-6.023.56c-2.141,0-4.443-.24-5.8-2.12a5.252,5.252,0,0,1-.881-2.2C62.64,343.008,63.14,342.808,63.42,342.688Zm2.8-8.119a13.711,13.711,0,0,0,3.642.46,17.813,17.813,0,0,0,3.242-.32,1.562,1.562,0,0,1,.32-.04c.441,0,.521.5.541.8q.06.87.06,1.74c0,.42-.06.54-.481.62a19.648,19.648,0,0,1-3.061.219,22.072,22.072,0,0,1-5.563-.6.511.511,0,0,1-.381-.46,20.461,20.461,0,0,1,.4-2.16.518.518,0,0,1,.521-.4A3.847,3.847,0,0,1,66.222,334.569Zm9.706-1.02c.28.26,1.581,1.48,1.581,1.8,0,.36-.941,1.12-1.161,1.12-.12,0-.28-.2-.48-.44-.06-.06-.1-.12-.16-.18a15.623,15.623,0,0,0-1.121-1.18c-.14-.14-.22-.2-.22-.3,0-.28,1.021-1.019,1.241-1.019A.573.573,0,0,1,75.928,333.549Zm3.522.04c0,.361-.961,1.14-1.18,1.14-.121,0-.221-.14-.521-.52a15.517,15.517,0,0,0-1.261-1.3c-.06-.06-.18-.179-.18-.279,0-.32,1.041-1.04,1.221-1.04A7.354,7.354,0,0,1,79.45,333.589Z" transform="translate(-62.64 -331.59)" fill="#172e59"/><path d="M93.55,338.828c.681,0,1.381-.06,1.662-.06a1.616,1.616,0,0,1,1.421.78,2.287,2.287,0,0,1,.56,1.12c0,.72-2.922,3.839-3.6,3.839-.621,0-1.922-1.36-1.922-1.759,0-.14.1-.22.281-.34a9.571,9.571,0,0,0,.78-.62.448.448,0,0,0,.14-.2c0-.12-.12-.14-.32-.14H90.569a.547.547,0,0,0-.56.56v3.2c0,.4.02.82.02,1.24a3.559,3.559,0,0,1-.5,2.12c-.74,1.019-2.341,1.239-3.6,1.239-.36,0-.96,0-1.161-.419a6.006,6.006,0,0,1-.38-1.98c0-.36.08-.74.54-.74a3.588,3.588,0,0,1,.461.04c.22.02.76.04.98.04.541,0,.621-.16.621-.76v-3.979a.547.547,0,0,0-.56-.56H82.444c-.781,0-1.561.04-2.362.04-.44,0-.5-.18-.5-.74v-1.24c0-.52.04-.74.48-.74.8,0,1.6.06,2.382.06h3.983c.239,0,.36-.04.36-.18,0-.159-.161-.239-.261-.3a20.462,20.462,0,0,0-1.981-1.24c-.42-.22-.58-.28-.58-.5,0-.34.56-.98.8-1.22.06-.06.1-.1.1-.18,0-.16-.18-.18-.3-.18-.66,0-1.34.06-2,.06-.5,0-.561-.2-.561-.82V333.09c0-.56.04-.78.541-.78.74,0,1.481.04,2.241.04h6.264c.62,0,1.221-.02,1.821-.02.581,0,.741.16,1.121.619a3.431,3.431,0,0,1,.78,1.38c0,.44-1.2,1.32-1.781,1.74a22.887,22.887,0,0,1-2.061,1.34c-.14.08-.3.18-.3.36a.379.379,0,0,0,.2.319c.4.3.4.381.42.52a.377.377,0,0,0,.4.22Zm-6.7-3.8c-.2,0-.241.02-.241.12a8.212,8.212,0,0,0,.881.58,1.179,1.179,0,0,0,.741.28,2.2,2.2,0,0,0,1.34-.84c0-.14-.14-.14-.46-.14Z" transform="translate(-62.64 -331.59)" fill="#172e59"/><path d="M104.379,339.149a4.657,4.657,0,0,0-.58.8c0,.08.1.16.24.16a.617.617,0,0,0,.2-.02c.28-.04.66.02.66-.26a.945.945,0,0,0-.14-.4,1.087,1.087,0,0,1-.12-.359c0-.461,1.481-1.041,1.721-1.041.04,0,.16.02.22.02.421,0,.561-.3.741-.639a.934.934,0,0,1,.1-.2,22.134,22.134,0,0,0,1.821-5.059c.06-.28.08-.4.32-.4a17.78,17.78,0,0,1,1.841.38c.8.18,1,.3,1,.48s-.16.219-.3.279c-.26.1-.3.241-.44.7-.061.2-.121.421-.221.72a2.359,2.359,0,0,0-.12.54c0,.34.341.4.62.4h1.662c.74,0,1.321-.04,1.741-.04,1.361,0,1.381.26,1.381,1.98a54.163,54.163,0,0,1-.761,9.718,3.344,3.344,0,0,1-1.161,2.339,6.631,6.631,0,0,1-3.242.7c-.58,0-1.12-.06-1.32-.68a5.674,5.674,0,0,1-.241-1.739c0-.44.04-.68.541-.68.2,0,.72.06.84.08.2.02.7.02.9.02.6,0,1.04,0,1.221-1.56.2-1.719.4-4.8.4-6.519,0-.82-.14-.9-1.081-.9h-2.1c-.7,0-.88.361-1.161.9-.34.68-.48.92-.76.92a3.336,3.336,0,0,1-1.061-.28.762.762,0,0,0-.2-.06.142.142,0,0,0-.14.16,5.906,5.906,0,0,0,.24.68,8.922,8.922,0,0,1,.62,1.84c0,.5-1.681.959-1.861.959-.26,0-.32-.219-.38-.359a.553.553,0,0,0-.54-.42c-.441,0-.561.32-.561.7v3.159c0,1.02.04,2.039.04,3.059,0,.54-.18.6-.84.6H102.9c-.62,0-.86-.04-.86-.58,0-1.02.06-2.059.06-3.079v-1.42c0-.16-.02-.2-.1-.2-.2,0-.221.28-.241.42a32.24,32.24,0,0,1-.62,3.439c-.06.261-.1.64-.42.64-.3,0-1.781-.379-1.781-.8a5.434,5.434,0,0,1,.18-.719,20.63,20.63,0,0,0,.66-3.52c.02-.28,0-.539.3-.539a8.357,8.357,0,0,1,1.061.22,5.368,5.368,0,0,0,.72.159.226.226,0,0,0,.241-.239c0-.541-.16-.72-.781-.72-.16,0-.66.06-.861.08a.367.367,0,0,0-.339.239.344.344,0,0,1-.321.241c-.18,0-.26-.08-.34-.62-.02-.2-.32-1.66-.36-1.84a1.851,1.851,0,0,1-.08-.46c0-.2.22-.2.46-.2h.44a1.522,1.522,0,0,0,.841-.16,2.407,2.407,0,0,0,.68-1.1c0-.221-.3-.5-.5-.7a.634.634,0,0,1-.12-.1,17.108,17.108,0,0,0-1.541-1.22c-.1-.08-.28-.16-.28-.3a2.715,2.715,0,0,1,.48-.98c.08-.14.14-.26.2-.36.12-.2.38-.74.661-.74a.358.358,0,0,1,.2.08.522.522,0,0,0,.16.06c.18,0,.26-.24.56-1,.2-.479.44-1.179.62-1.779.061-.22.121-.34.3-.34a13.355,13.355,0,0,1,1.52.56,2.4,2.4,0,0,1,.261.1c.38.14.68.22.68.44s-.16.24-.28.28a.467.467,0,0,0-.4.28c-.361.68-.681,1.359-1.061,2.039a1.976,1.976,0,0,1-.18.3,1.3,1.3,0,0,0-.24.54c0,.24.24.52.4.52s.4-.42.541-.68a.418.418,0,0,0,.08-.12c.26-.5.52-1,.76-1.48.14-.26.18-.4.4-.4a14.087,14.087,0,0,1,1.661.739c.14.06.24.12.3.14.279.12.74.28.74.56,0,.24-.24.24-.441.28a.522.522,0,0,0-.319.22C105.88,337.069,105.139,338.108,104.379,339.149Zm1.261,4.3a4.794,4.794,0,0,1,1.061-.261.4.4,0,0,1,.36.181,18.215,18.215,0,0,1,.74,1.939,11.151,11.151,0,0,1,.38,1.38c0,.42-1.621.82-1.781.82-.3,0-.38-.28-.44-.62a17.573,17.573,0,0,0-.78-2.659.831.831,0,0,1-.081-.321C105.1,343.668,105.3,343.568,105.64,343.448Zm5.323-3.54a13.845,13.845,0,0,1,.761,1.64,18.527,18.527,0,0,1,.84,2.339c0,.56-1.861,1.08-2.081,1.08-.321,0-.381-.32-.461-.56-.38-1.039-.9-2.359-1.38-3.339a1.046,1.046,0,0,1-.12-.32c0-.48,1.821-1.14,2.041-1.14C110.763,339.608,110.863,339.748,110.963,339.908Z" transform="translate(-62.64 -331.59)" fill="#172e59"/><path d="M120.743,335.189c.18-.64.36-1.139.521-1.8.04-.18.1-.38.3-.38s2.542,1.04,2.9,1.2.481.28.481.4-.08.16-.181.2c-.52.2-.66.5-.92,1.02a15.336,15.336,0,0,0-1.2,5.979c0,.42,0,.84.2.84.16,0,.221-.14.281-.26.2-.48.32-.72.5-.72.28,0,1.3.66,1.3.96,0,.36-1.121,2.559-1.121,3.919,0,.22.04.56.06.8a2.29,2.29,0,0,1,.02.36c0,.539-.621.84-1.061,1.02a3.509,3.509,0,0,1-1.02.259c-.361,0-.54-.319-.761-.76a14.7,14.7,0,0,1-1.241-6.418A25.393,25.393,0,0,1,120.743,335.189Zm11.247-1.759c.1.02.26.059.26.2a.694.694,0,0,1-.16.361,3.141,3.141,0,0,0-.36,1.759.421.421,0,0,0,.44.48,12.8,12.8,0,0,0,1.481-.34,3.157,3.157,0,0,1,.52-.12c.3,0,.38.4.441.7a8.518,8.518,0,0,1,.239,1.659c0,.5-.179.6-2.381.9-.44.061-.66.161-.66.66,0,.26.12,2.98.14,3.26.04.48.22.52.72.779a11.5,11.5,0,0,1,2.141,1.52,1.188,1.188,0,0,1,.461.84c0,.56-.981,1.84-1.581,1.84-.3,0-.6-.26-1.021-.66-.08-.08-.16-.14-.24-.22a.609.609,0,0,0-.4-.24c-.18,0-.24.1-.381.32a3.66,3.66,0,0,1-3.121,1.319c-1.821,0-3.642-.9-3.642-2.959,0-1.959,1.68-2.859,3.442-2.859h.46a.439.439,0,0,0,.48-.5c0-.46-.1-1.4-.1-1.72,0-.68-.08-1-.52-1-.36,0-1.741.08-2.582.08h-.3a1.56,1.56,0,0,1-1-.2,9.765,9.765,0,0,1-.18-2.239c0-.26.06-.54.381-.54.12,0,.74.06.92.08.821.08,1.641.12,2.442.12.32,0,.58-.12.58-.48,0-.42-.22-2.4-.22-2.839,0-.24.08-.34.32-.34C129.428,333.05,131.49,333.35,131.99,333.43Zm-4.523,12.117c0,.4.641.6,1.061.6.46,0,.9-.16.9-.7,0-.4-.62-.42-.92-.42S127.467,345.107,127.467,345.547Z" transform="translate(-62.64 -331.59)" fill="#172e59"/><path d="M71.29,367.677a12.559,12.559,0,0,1,1.9-.72c.26,0,.32.2.36.5a2.4,2.4,0,0,0,.521,1.3,4.208,4.208,0,0,0,3.062.82,21.462,21.462,0,0,0,5.763-.7,1.859,1.859,0,0,1,.46-.08c.381,0,.461.42.5,1.08.02.34.08,1.36.08,1.619,0,.361-.221.48-.7.6a33.476,33.476,0,0,1-6.023.56c-2.142,0-4.463-.259-5.8-2.119a5.144,5.144,0,0,1-.9-2.2C70.51,368.057,70.79,367.9,71.29,367.677Zm1.6-7.7c.04-.24.14-.54.56-.54a3.216,3.216,0,0,1,.741.14,15.059,15.059,0,0,0,3.3.38,16.688,16.688,0,0,0,3.582-.42,1.752,1.752,0,0,1,.32-.04c.46,0,.561.5.6,1.2.02.339.06,1.059.06,1.4,0,.459-.141.5-.621.579a20.089,20.089,0,0,1-3.622.28c-.941,0-4.363-.1-5.043-.56a.477.477,0,0,1-.2-.42C72.571,361.778,72.811,360.419,72.891,359.979Z" transform="translate(-62.64 -331.59)" fill="#172e59"/><path d="M95.067,358.6c0,.12-.08.2-.16.3a2.87,2.87,0,0,0-.56,1.28c0,.22.16.32.36.32a17.245,17.245,0,0,0,3.262-.88,2.1,2.1,0,0,1,.58-.16c.3,0,.361.26.5.9a9.543,9.543,0,0,1,.22,1.659c0,.42-.24.5-1.021.66-1.12.22-2.9.48-4.063.6-.3.04-.64.08-.8.36a3.02,3.02,0,0,0-.22.86c0,.16.12.24.28.24a.386.386,0,0,0,.2-.06,6.032,6.032,0,0,1,2.642-.62,4.211,4.211,0,0,1,4.423,4.459c0,4.559-4.883,5.559-8.506,5.559-.84,0-.96-.16-1.14-.94a12.313,12.313,0,0,1-.3-1.68.5.5,0,0,1,.5-.5,18.864,18.864,0,0,0,1.9.18c1.741,0,4.683-.48,4.683-2.72a1.491,1.491,0,0,0-1.481-1.62,6.133,6.133,0,0,0-3.963,1.76c-.2.22-.44.54-.62.78a.755.755,0,0,1-.56.4,3.612,3.612,0,0,1-1.661-.7c-.32-.24-.6-.44-.6-.82a1.98,1.98,0,0,1,.281-.819,15.487,15.487,0,0,0,1.14-3.26.363.363,0,0,0-.38-.36c-.1,0-1.541.18-2.261.18a.587.587,0,0,1-.661-.5,10.7,10.7,0,0,1-.34-2.1c0-.3.08-.52.42-.52.16,0,1.561.14,3.042.14.9,0,1.081-.06,1.381-2.84.06-.48.1-.84.44-.84C92.4,357.3,95.067,358.039,95.067,358.6Z" transform="translate(-62.64 -331.59)" fill="#172e59"/><path d="M108.972,361.359c.48.16.9.279.9.5,0,.12-.139.2-.24.241-.26.12-.28.219-.4.7-.14.56-.22,1.14-.34,1.72a3.2,3.2,0,0,0-.06.46c0,.18.1.36.28.36a6.114,6.114,0,0,0,1.2-.6,6.73,6.73,0,0,1,2.982-.7,4.646,4.646,0,0,1,3.541,1.5A4.1,4.1,0,0,1,117.9,368.5a4.275,4.275,0,0,1-1.081,3.1,8.226,8.226,0,0,1-3.521,1.979,13.355,13.355,0,0,1-2.882.56.74.74,0,0,1-.761-.4,6.109,6.109,0,0,1-.64-2.219c0-.38.28-.44.54-.44,1.561-.02,5.343-.42,5.343-2.54a1.75,1.75,0,0,0-1.96-1.62c-1.922,0-4,1.82-5.124,3.26-.18.24-.34.439-.66.439s-2.081-.279-2.081-.979a1.423,1.423,0,0,1,.08-.42,31.121,31.121,0,0,0,1.1-7.379c0-.74,0-1.079.44-1.079A15.422,15.422,0,0,1,108.972,361.359Zm.36-4.259a2.191,2.191,0,0,1,.7.259,28.47,28.47,0,0,1,2.8,1.7c.421.3.721.5.721.72,0,.44-1.181,2.179-1.762,2.179a.9.9,0,0,1-.52-.28,20.344,20.344,0,0,0-2.981-2.059c-.3-.18-.5-.28-.5-.5C107.791,358.819,108.672,357.1,109.332,357.1Z" transform="translate(-62.64 -331.59)" fill="#172e59"/><path d="M127.739,371.677a1.966,1.966,0,0,1-2.081,2.059,1.74,1.74,0,0,1-1.861-1.76,1.994,1.994,0,0,1,2.061-2.139A1.808,1.808,0,0,1,127.739,371.677Zm-2.7-3.1c-.52,0-.6-.08-.62-.6l-.2-4.739c-.08-1.24-.2-3.539-.2-3.939,0-.34.12-.42.56-.42h2.362c.44,0,.56.08.56.42,0,.4-.12,2.679-.2,4.179l-.181,4.5c-.02.52-.1.6-.62.6Z" transform="translate(-62.64 -331.59)" fill="#172e59"/></g><path d="M169.4,327.475c4.553,0,4.813,5.189,4.813,13.342,0,6.871.817,10.357-4.941,10.357-5.394,0-4.7-3.952-4.7-11.172S166.387,327.475,169.4,327.475Z" transform="translate(-4.827 -209.877)" fill="#c4c4c4"/><path d="M137.183,252.879c3.742,0,4.244,3.614,4.244,10.316,0,5.649.672,8.043-4.062,8.043-4.434,0-3.859-2.777-3.859-8.713S134.571,252.879,137.183,252.879Z" transform="translate(-4.827 -209.877)" fill="#c4c4c4"/><path d="M22.905,297.263c4.46,0,5.057,4.306,5.057,12.293,0,6.732.8,9.584-4.84,9.584-5.284,0-4.6-3.309-4.6-10.382S19.75,297.263,22.905,297.263Z" transform="translate(-4.827 -209.877)" fill="#c4c4c4"/><path d="M134.275,278.408c-4.729.576-9.573,5.993-10.15,13.138s7.613,13.254,13.841,13.139,12.688-6.8,12.227-12.678S147.264,276.825,134.275,278.408Z" transform="translate(-4.827 -209.877)" fill="#efe282"/><path d="M163.742,361.434s-5.247,1.851-8.643,8.739-5.762,19.533-6.173,24.057-.206,12.542,4.321,16.757,11.315,6.311,17.389,6.375c9.774.1,19.755-10.487,19.137-20.356-.436-6.978-5.556-25.5-9.054-30.431S172.282,358.659,163.742,361.434Z" transform="translate(-4.827 -209.877)" fill="#efe282"/><path d="M136.861,209.877l-.195,42.172s-5.525-1.354-4.582,16.026c.343,6.335,2.723,5.131,5.117,5.266,2.711.153,5.641,0,5.641-5.976l-.153-10.142c-.1-5.037-3.907-5.172-5.893-3.177-2.192,2.2-2.879,20.79-6.545,22.621s-8.478,7.441-8.478,15.912,6.854,13.165,12.3,14.08a19.847,19.847,0,0,0,7.709-.2c7.326-2.089,12.073-8.841,11.576-15.331-.489-6.391-3.582-11.683-8.821-14.115-3.781-1.756-7.588-2.015-7.638.381-.079,3.854-.469,8.057,2.139,8.28,2.289.2,5.573-2.946-1.15-3-5.382-.044-7.431,8.747-.408,8.747s4.9-3.312-.056-3.138-6.718,7.606.083,7.843c4.993.175,6.373-2.73-.023-2.679-6.287.05-4.365,7.07,2.47,5.544" transform="translate(-4.827 -209.877)" fill="none" stroke="#172e59" stroke-linecap="round" stroke-linejoin="round" stroke-width="1.559"/><path d="M30.121,332.381c1.124,10.248,7.9,19.948,8.36,26.018.471,6.162-4.017,12.612-10.971,14.558a15.347,15.347,0,0,1-7.305.191c-5.161-.848-11.653-5.326-11.653-13.37s7.034-17.577,8.034-27.4C17.189,326.459,29.594,327.576,30.121,332.381Z" transform="translate(-4.827 -209.877)" fill="#efe282"/><path d="M26.982,360.206c-8.145,1.819-10.8-7.373-3.305-7.432,7.621-.06,5.95,3.786,0,3.578-8.1-.282-5.836-10.172.072-10.379s8.434,3.738.066,3.738-6.2-11.3.211-11.249c8.011.065,5.16,6.054.753,4.4-4.159-1.559-2.026-12.2-1.931-16.791.059-2.856,9.1-4.138,9.1.826,0,12.937,9.929,25.031,10.512,32.648.592,7.732-5.051,15.826-13.795,18.268a19.339,19.339,0,0,1-9.186.24c-6.489-1.064-14.653-6.684-14.653-16.778s8.846-22.055,10.1-34.378c.758-7.432,4.064-4.955,7.8-28.607.523-3.312,6.823-2.379,6.945,3.623v12.36c-.206,6.386-3.231,7.192-6.462,7.01-2.853-.161-5.771.268-6.1-6.275-1.035-20.715,5.461-19.1,5.461-19.1l.232-86.037" transform="translate(-4.827 -209.877)" fill="none" stroke="#172e59" stroke-linecap="round" stroke-linejoin="round" stroke-width="1.559"/><path d="M174.4,403.179c-12.736,5.543-17.212-9.847-4.836-9.847,8.831,0,9.555,4.715,0,4.715-13.347,0-11.682-13.853.083-13.853,8.917,0,9.773,5.393.077,5.393-12.536,0-10.731-14.1.244-14.1,9.284,0,5.98,7.015.873,5.1-4.82-1.806-2.348-15.361-2.238-20.683.069-3.309,5.19-2.635,10.546-.527,4.46,1.754,14.683,26.908,14.683,40.541,0,8.986-8.355,18.338-18.487,21.168a22.423,22.423,0,0,1-10.644.279c-7.519-1.234-20.005-6.75-20.005-21.938,0-20.525,9.67-38,14.732-40.525s5.258-26.89,8.285-29.93c2.742-2.754,8.893-1.617,8.893,3.934l.309,12.492c-.617,8.558-4.146,9.162-7.89,8.952-3.306-.187-6.591,1.475-7.066-7.271-1.3-24,6.331-23.013,6.331-23.013l.265-114.2" transform="translate(-4.827 -209.877)" fill="none" stroke="#172e59" stroke-linecap="round" stroke-linejoin="round" stroke-width="1.559"/></g></g></svg>