<svg id="icon1" xmlns="http://www.w3.org/2000/svg" width="40" height="40" viewBox="0 0 40 40">
  <path id="パス_2971" data-name="パス 2971" d="M20,0A20,20,0,1,1,0,20,20,20,0,0,1,20,0Z" fill="#555"/>
  <g id="グループ_3535" data-name="グループ 3535" transform="translate(-856.8 -647.746)">
    <g id="グループ_3534" data-name="グループ 3534">
      <g id="グループ_3532" data-name="グループ 3532">
        <path id="パス_2967" data-name="パス 2967" d="M890.138,666.581c0-5.974-5.989-10.835-13.352-10.835s-13.351,4.861-13.351,10.835c0,5.357,4.75,9.842,11.166,10.69.435.094,1.027.287,1.176.659a2.735,2.735,0,0,1,.043,1.207s-.156.942-.19,1.143c-.058.337-.269,1.32,1.156.72s7.689-4.528,10.491-7.752h0A9.641,9.641,0,0,0,890.138,666.581Z" fill="#fff"/>
      </g>
      <g id="グループ_3533" data-name="グループ 3533">
        <path id="パス_2968" data-name="パス 2968" d="M885.7,670.031a.255.255,0,0,0,.255-.255v-.947a.255.255,0,0,0-.255-.255h-2.549v-.983H885.7a.255.255,0,0,0,.255-.255v-.947a.255.255,0,0,0-.255-.255h-2.549v-.983H885.7a.255.255,0,0,0,.255-.255v-.947a.255.255,0,0,0-.255-.255h-3.751a.255.255,0,0,0-.255.255v.006h0v5.817h0v0a.255.255,0,0,0,.255.255H885.7Z" fill="#555"/>
        <path id="パス_2969" data-name="パス 2969" d="M871.821,670.031a.255.255,0,0,0,.255-.255v-.947a.256.256,0,0,0-.255-.255h-2.55v-4.625a.255.255,0,0,0-.254-.255h-.947a.255.255,0,0,0-.255.255v5.823h0v0a.255.255,0,0,0,.255.255h3.751Z" fill="#555"/>
        <rect id="長方形_5341" data-name="長方形 5341" width="1.457" height="6.337" rx="0.255" transform="translate(872.877 663.694)" fill="#555"/>
        <path id="パス_2970" data-name="パス 2970" d="M880.525,663.694h-.947a.255.255,0,0,0-.255.255v3.461l-2.666-3.6-.02-.027h0l-.015-.016-.005-.005-.014-.011-.007-.005-.013-.01-.008,0-.014-.008-.008,0-.015-.007-.008,0-.016-.005-.009,0-.015,0-.011,0-.014,0H875.5a.255.255,0,0,0-.255.255v5.827a.255.255,0,0,0,.255.255h.947a.255.255,0,0,0,.255-.255v-3.46l2.669,3.605a.272.272,0,0,0,.066.065l0,0,.016.009.008,0,.012.006.012.006.009,0,.017.005h0a.237.237,0,0,0,.066.009h.942a.255.255,0,0,0,.255-.255v-5.827A.255.255,0,0,0,880.525,663.694Z" fill="#555"/>
      </g>
    </g>
  </g>
</svg>
