<svg xmlns="http://www.w3.org/2000/svg" width="354" height="59.999" viewBox="0 0 354 59.999">
  <g id="_404Text1" data-name="404Text1" transform="translate(-1383.067 -2451.001)">
    <path id="パス_3180" data-name="パス 3180" d="M1401.826,2507.683q0,3.068-3.066,3.067t-3.067-3.067v-9.06h-9.773q-2.855,0-2.853-3.068a17.147,17.147,0,0,1,.571-4.566l11.126-37.028a3.956,3.956,0,0,1,1.32-2,4.13,4.13,0,0,1,2.676-.785q3.065,0,3.066,3.068v38.168h.785q2.495,0,2.5,3.067,0,3.141-2.5,3.14h-.785Zm-6.133-15.268q0-4.28.035-7.812t.071-6.493q.036-2.96.108-5.42t.143-4.674q-.642,2.213-1.32,4.674t-1.534,5.385q-.855,2.926-1.89,6.457t-2.39,7.883Z" transform="translate(0 0.035)" fill="#172e59"/>
    <path id="パス_3181" data-name="パス 3181" d="M1409.441,2460.989q0-4.923,2.318-7.454t7.311-2.533q4.991,0,7.312,2.533t2.317,7.454v40.024q0,4.921-2.317,7.454t-7.312,2.533q-4.995,0-7.311-2.533t-2.318-7.454Zm12.768-.143q0-3.352-3.138-3.353-3.067,0-3.067,3.353v40.308q0,3.355,3.067,3.354,3.137,0,3.138-3.354Z" transform="translate(5.274 0)" fill="#172e59"/>
    <path id="パス_3182" data-name="パス 3182" d="M1452.032,2507.683q0,3.068-3.066,3.067t-3.067-3.067v-9.06h-9.773q-2.855,0-2.854-3.068a17.141,17.141,0,0,1,.571-4.566l11.126-37.028a3.957,3.957,0,0,1,1.32-2,4.128,4.128,0,0,1,2.676-.785q3.065,0,3.066,3.068v38.168h.785q2.495,0,2.5,3.067,0,3.141-2.5,3.14h-.785Zm-6.133-15.268q0-4.28.035-7.812t.071-6.493q.036-2.96.108-5.42t.143-4.674q-.643,2.213-1.32,4.674t-1.533,5.385q-.855,2.926-1.89,6.457t-2.39,7.883Z" transform="translate(10.041 0.035)" fill="#172e59"/>
    <path id="パス_3183" data-name="パス 3183" d="M1495.462,2509.858a3.14,3.14,0,0,1-2.318.892h-.072a3.546,3.546,0,0,1-3.78-3.067q-1.428-6.565-2.568-11.949t-2.1-9.846q-.963-4.457-1.784-8.24t-1.533-7.134q.142,6.064.142,12.307V2507.9a2.8,2.8,0,0,1-.783,2.069,2.708,2.708,0,0,1-2,.785,2.7,2.7,0,0,1-2.853-2.854v-52.864a3.763,3.763,0,0,1,1.072-2.782,3.946,3.946,0,0,1,2.924-1.07,4.4,4.4,0,0,1,2.959.892,4.013,4.013,0,0,1,1.32,2.319q1.283,7.275,2.246,12.734t1.783,9.774q.821,4.318,1.463,7.883t1.283,7.135q-.142-5.137-.143-10.06v-27.9a2.7,2.7,0,0,1,.786-2,2.8,2.8,0,0,1,2.068-.785,2.684,2.684,0,0,1,2.782,2.781v53.579A3.14,3.14,0,0,1,1495.462,2509.858Z" transform="translate(18.549 0.035)" fill="#172e59"/>
    <path id="パス_3184" data-name="パス 3184" d="M1501.756,2460.989q0-9.986,9.344-9.987,9.416,0,9.415,9.987v40.024q0,9.988-9.415,9.988-9.346,0-9.344-9.988Zm12.2,0q0-3.353-2.854-3.353-2.783,0-2.781,3.353v40.024q0,3.424,2.781,3.424,2.853,0,2.854-3.424Z" transform="translate(23.738 0)" fill="#172e59"/>
    <path id="パス_3185" data-name="パス 3185" d="M1537.438,2509.787a3.284,3.284,0,0,1-5.67-2.39v-49.226h-3.21q-3.355,0-3.354-3.21,0-3.425,3.354-3.425h13.052q3.28,0,3.281,3.425,0,3.21-3.281,3.21h-3.281V2507.4A3.231,3.231,0,0,1,1537.438,2509.787Z" transform="translate(28.427 0.107)" fill="#172e59"/>
    <path id="パス_3186" data-name="パス 3186" d="M1571.569,2509.787a3.284,3.284,0,0,1-5.67-2.39V2455.46a3.682,3.682,0,0,1,3.923-3.924h9.415a3.175,3.175,0,0,1,3.281,3.282,3.278,3.278,0,0,1-.928,2.425,3.182,3.182,0,0,1-2.353.928h-6.777v19.12h3.566a3.083,3.083,0,0,1,2.282.855,3.49,3.49,0,0,1,.856,2.568,3.188,3.188,0,0,1-.856,2.355,3.085,3.085,0,0,1-2.282.855h-3.566V2507.4A3.232,3.232,0,0,1,1571.569,2509.787Z" transform="translate(36.566 0.107)" fill="#172e59"/>
    <path id="パス_3187" data-name="パス 3187" d="M1587.505,2460.989q0-9.986,9.343-9.987,9.415,0,9.415,9.987v40.024q0,9.988-9.415,9.988-9.344,0-9.343-9.988Zm12.2,0q0-3.353-2.853-3.353-2.781,0-2.782,3.353v40.024q0,3.424,2.782,3.424,2.853,0,2.853-3.424Z" transform="translate(40.888 0)" fill="#172e59"/>
    <path id="パス_3188" data-name="パス 3188" d="M1624.037,2454.461a3.284,3.284,0,1,1,6.562,0v46.516q0,9.988-9.344,9.987t-9.344-9.987v-46.516a3.284,3.284,0,1,1,6.563,0v46.516q0,3.424,2.781,3.424t2.783-3.424Z" transform="translate(45.769 0.035)" fill="#172e59"/>
    <path id="パス_3189" data-name="パス 3189" d="M1656.021,2509.858a3.137,3.137,0,0,1-2.317.892h-.072a3.548,3.548,0,0,1-3.781-3.067q-1.426-6.565-2.567-11.949t-2.1-9.846q-.963-4.457-1.783-8.24t-1.532-7.134q.14,6.064.142,12.307V2507.9a2.8,2.8,0,0,1-.784,2.069,2.708,2.708,0,0,1-2,.785,2.7,2.7,0,0,1-2.854-2.854v-52.864a3.767,3.767,0,0,1,1.07-2.782,3.949,3.949,0,0,1,2.924-1.07,4.405,4.405,0,0,1,2.96.892,4.027,4.027,0,0,1,1.32,2.319l2.246,12.734q.963,5.458,1.783,9.774t1.463,7.883q.641,3.569,1.283,7.135-.144-5.137-.143-10.06v-27.9a2.7,2.7,0,0,1,.785-2,2.8,2.8,0,0,1,2.069-.785,2.684,2.684,0,0,1,2.782,2.781v53.579A3.136,3.136,0,0,1,1656.021,2509.858Z" transform="translate(50.661 0.035)" fill="#172e59"/>
    <path id="パス_3190" data-name="パス 3190" d="M1666.417,2510.251a3.682,3.682,0,0,1-3.923-3.924V2455.46a3.682,3.682,0,0,1,3.923-3.924h5.35q4.707,0,7.062,2.675a10.8,10.8,0,0,1,2.353,7.384v38.668q0,9.99-9.415,9.989Zm8.2-48.657q0-3.423-2.852-3.424h-2.711v45.517h2.711q2.851,0,2.852-3.425Z" transform="translate(55.886 0.107)" fill="#172e59"/>
  </g>
</svg>
