<svg xmlns="http://www.w3.org/2000/svg" width="272" height="46.001" viewBox="0 0 272 46.001">
  <g id="_404Text1-sp" data-name="404Text1-sp" transform="translate(-1383.067 -2451.001)">
    <path id="パス_3180" data-name="パス 3180" d="M1397.491,2494.5a2.358,2.358,0,0,1-4.716,0v-6.946h-7.514q-2.195,0-2.194-2.352a13.113,13.113,0,0,1,.439-3.5l8.555-28.388a3.031,3.031,0,0,1,1.015-1.531,3.18,3.18,0,0,1,2.057-.6,2.081,2.081,0,0,1,2.357,2.352v29.262h.6q1.918,0,1.92,2.352,0,2.407-1.92,2.407h-.6Zm-4.716-11.706q0-3.281.027-5.989t.054-4.978q.028-2.269.083-4.156t.11-3.584q-.494,1.7-1.015,3.584t-1.179,4.129q-.658,2.243-1.453,4.951t-1.838,6.043Z" transform="translate(0 -0.014)" fill="#172e59"/>
    <path id="パス_3181" data-name="パス 3181" d="M1409.442,2458.658a8.175,8.175,0,0,1,1.782-5.715q1.782-1.942,5.622-1.942t5.622,1.942a8.182,8.182,0,0,1,1.781,5.715v30.687a8.184,8.184,0,0,1-1.781,5.715q-1.784,1.942-5.622,1.942t-5.622-1.942a8.178,8.178,0,0,1-1.782-5.715Zm9.817-.109q0-2.57-2.413-2.571-2.358,0-2.358,2.571v30.9q0,2.572,2.358,2.572,2.413,0,2.413-2.572Z" transform="translate(-2.04 0)" fill="#172e59"/>
    <path id="パス_3182" data-name="パス 3182" d="M1447.7,2494.5a2.358,2.358,0,0,1-4.716,0v-6.946h-7.515q-2.195,0-2.194-2.352a13.1,13.1,0,0,1,.44-3.5l8.555-28.388a3.034,3.034,0,0,1,1.015-1.531,3.178,3.178,0,0,1,2.058-.6,2.081,2.081,0,0,1,2.357,2.352v29.262h.6q1.918,0,1.92,2.352,0,2.407-1.92,2.407h-.6Zm-4.716-11.706q0-3.281.027-5.989t.054-4.978q.028-2.269.083-4.156t.11-3.584q-.494,1.7-1.015,3.584t-1.179,4.129q-.658,2.243-1.453,4.951t-1.838,6.043Z" transform="translate(-3.917 -0.014)" fill="#172e59"/>
    <path id="パス_3183" data-name="パス 3183" d="M1490.921,2496.167a2.419,2.419,0,0,1-1.783.684h-.055a2.726,2.726,0,0,1-2.906-2.352q-1.1-5.034-1.974-9.162t-1.618-7.549q-.74-3.417-1.372-6.317t-1.178-5.47q.11,4.65.109,9.436v19.225a2.141,2.141,0,0,1-.6,1.586,2.086,2.086,0,0,1-1.536.6,2.071,2.071,0,0,1-2.194-2.188v-40.53a2.879,2.879,0,0,1,.824-2.133,3.038,3.038,0,0,1,2.248-.82,3.394,3.394,0,0,1,2.275.683,3.077,3.077,0,0,1,1.015,1.779l1.727,9.763q.742,4.184,1.371,7.493t1.125,6.043q.493,2.737.986,5.47-.109-3.939-.11-7.713v-21.387a2.068,2.068,0,0,1,.6-1.531,2.154,2.154,0,0,1,1.59-.6,2.06,2.06,0,0,1,2.139,2.132v41.078A2.4,2.4,0,0,1,1490.921,2496.167Z" transform="translate(-7.235 -0.014)" fill="#172e59"/>
    <path id="パス_3184" data-name="パス 3184" d="M1501.756,2458.658q0-7.655,7.185-7.657,7.239,0,7.239,7.657v30.687q0,7.658-7.239,7.657-7.186,0-7.185-7.657Zm9.379,0q0-2.57-2.194-2.57-2.14,0-2.139,2.57v30.687q0,2.625,2.139,2.625,2.194,0,2.194-2.625Z" transform="translate(-9.258 0)" fill="#172e59"/>
    <path id="パス_3185" data-name="パス 3185" d="M1534.611,2496.194a2.525,2.525,0,0,1-4.36-1.832v-37.74h-2.468q-2.579,0-2.579-2.461a2.3,2.3,0,0,1,2.579-2.626h10.036q2.522,0,2.523,2.626a2.2,2.2,0,0,1-2.523,2.461H1535.3v37.74A2.471,2.471,0,0,1,1534.611,2496.194Z" transform="translate(-11.087 -0.042)" fill="#172e59"/>
    <path id="パス_3186" data-name="パス 3186" d="M1570.259,2496.194a2.525,2.525,0,0,1-4.36-1.832v-39.818a2.827,2.827,0,0,1,3.016-3.009h7.24a2.437,2.437,0,0,1,2.523,2.516,2.51,2.51,0,0,1-.714,1.859,2.452,2.452,0,0,1-1.809.711h-5.21v14.659h2.742a2.375,2.375,0,0,1,1.755.656,2.67,2.67,0,0,1,.658,1.969,2.439,2.439,0,0,1-.658,1.806,2.377,2.377,0,0,1-1.755.655h-2.742v17.995A2.472,2.472,0,0,1,1570.259,2496.194Z" transform="translate(-14.261 -0.042)" fill="#172e59"/>
    <path id="パス_3187" data-name="パス 3187" d="M1587.505,2458.658q0-7.655,7.184-7.657,7.239,0,7.239,7.657v30.687q0,7.658-7.239,7.657-7.185,0-7.184-7.657Zm9.378,0q0-2.57-2.194-2.57-2.139,0-2.139,2.57v30.687q0,2.625,2.139,2.625,2.193,0,2.194-2.625Z" transform="translate(-15.947 0)" fill="#172e59"/>
    <path id="パス_3188" data-name="パス 3188" d="M1621.235,2453.7a2.525,2.525,0,1,1,5.045,0v35.663q0,7.657-7.185,7.657t-7.185-7.657V2453.7a2.525,2.525,0,1,1,5.046,0v35.663q0,2.625,2.139,2.625t2.14-2.625Z" transform="translate(-17.851 -0.014)" fill="#172e59"/>
    <path id="パス_3189" data-name="パス 3189" d="M1651.48,2496.167a2.417,2.417,0,0,1-1.782.684h-.055a2.727,2.727,0,0,1-2.907-2.352q-1.1-5.034-1.974-9.162t-1.618-7.549q-.74-3.417-1.371-6.317t-1.178-5.47q.108,4.65.109,9.436v19.225a2.144,2.144,0,0,1-.6,1.586,2.086,2.086,0,0,1-1.536.6,2.071,2.071,0,0,1-2.194-2.188v-40.53a2.883,2.883,0,0,1,.823-2.133,3.041,3.041,0,0,1,2.249-.82,3.4,3.4,0,0,1,2.276.683,3.088,3.088,0,0,1,1.015,1.779q.986,5.578,1.727,9.763t1.371,7.493q.63,3.311,1.125,6.043t.986,5.47q-.111-3.939-.11-7.713v-21.387a2.067,2.067,0,0,1,.6-1.531,2.156,2.156,0,0,1,1.591-.6,2.06,2.06,0,0,1,2.139,2.132v41.078A2.4,2.4,0,0,1,1651.48,2496.167Z" transform="translate(-19.776 -0.014)" fill="#172e59"/>
    <path id="パス_3190" data-name="パス 3190" d="M1665.51,2496.55a2.827,2.827,0,0,1-3.016-3.008v-39a2.827,2.827,0,0,1,3.016-3.009h4.114a6.865,6.865,0,0,1,5.43,2.051,8.267,8.267,0,0,1,1.809,5.661v29.645q0,7.659-7.239,7.657Zm6.307-37.3q0-2.625-2.193-2.625h-2.084v34.9h2.084q2.192,0,2.193-2.625Z" transform="translate(-21.796 -0.042)" fill="#172e59"/>
  </g>
</svg>
