<svg xmlns="http://www.w3.org/2000/svg" width="199.998" height="99.999" viewBox="0 0 199.998 99.999">
  <g id="newsText1" transform="translate(-1596.617 -2564.085)">
    <path id="パス_376" data-name="パス 376" d="M1629.339,2662.061a5.223,5.223,0,0,1-3.86,1.486h-.118q-5.109,0-6.3-5.112-2.376-10.937-4.276-19.916t-3.5-16.408q-1.6-7.431-2.97-13.736t-2.552-11.89q.234,10.107.236,20.512v41.793a4.674,4.674,0,0,1-1.306,3.45,4.511,4.511,0,0,1-3.326,1.306,4.488,4.488,0,0,1-4.75-4.756v-88.107a6.283,6.283,0,0,1,1.78-4.638,6.584,6.584,0,0,1,4.872-1.782,7.33,7.33,0,0,1,4.928,1.486,6.687,6.687,0,0,1,2.2,3.862q2.136,12.129,3.742,21.226t2.97,16.29q1.362,7.2,2.434,13.14t2.138,11.89q-.24-8.562-.238-16.766V2568.9a4.512,4.512,0,0,1,1.306-3.33,4.652,4.652,0,0,1,3.444-1.306,4.473,4.473,0,0,1,4.634,4.636v89.3A5.229,5.229,0,0,1,1629.339,2662.061Z" transform="translate(0 0.179)" fill="#172e59"/>
    <path id="パス_377" data-name="パス 377" d="M1650.386,2657.009a5.115,5.115,0,0,1-5.464,5.47h-15.678a6.136,6.136,0,0,1-6.532-6.54v-84.779a6.135,6.135,0,0,1,6.532-6.54h15.086a5.282,5.282,0,0,1,5.462,5.468,5.471,5.471,0,0,1-1.542,4.044,5.305,5.305,0,0,1-3.92,1.546h-10.692v31.392h5.94q5.106,0,5.108,5.47,0,5.589-5.108,5.588h-5.94v33.412h11.284a5.114,5.114,0,0,1,5.464,5.469Z" transform="translate(26.095 0.535)" fill="#172e59"/>
    <path id="パス_378" data-name="パス 378" d="M1691.927,2569.138a4.85,4.85,0,0,1,5.106-4.874,6.453,6.453,0,0,1,4.158,1.544,5.224,5.224,0,0,1,1.9,4.282q0,.831-.356,3.8l-9.858,83.947a6.344,6.344,0,0,1-1.96,4.042,7.17,7.17,0,0,1-5.168,1.664,7.377,7.377,0,0,1-5.106-1.6,6.331,6.331,0,0,1-2.02-4.34l-5.464-63.257-6.176,63.257a6.339,6.339,0,0,1-2.02,4.34,9.028,9.028,0,0,1-10.274,0,6.331,6.331,0,0,1-1.96-4.222l-8.552-83.827q-.354-2.97-.356-3.8a5.224,5.224,0,0,1,1.9-4.282,6.446,6.446,0,0,1,4.158-1.544,5.278,5.278,0,0,1,3.386,1.188,5.114,5.114,0,0,1,1.722,3.686l5.7,69.083,7.128-68.845q.591-5.112,5.7-5.112a5.373,5.373,0,0,1,5.584,5.112l6.176,68.845Z" transform="translate(47.204 0.179)" fill="#172e59"/>
    <path id="パス_379" data-name="パス 379" d="M1701.19,2634a15.984,15.984,0,0,0-.712-5.292,18.022,18.022,0,0,0-2.732-4.578q-1.188-1.542-3.088-3.744t-3.862-4.578q-1.959-2.379-3.8-4.638a44.021,44.021,0,0,1-2.91-3.924,17.46,17.46,0,0,1-2.316-5.35,30.988,30.988,0,0,1-.654-7.016v-14.624q0-16.17,15.8-16.172,8.076,0,11.462,3.984t3.386,12.188v13.436a5.114,5.114,0,1,1-10.216,0v-13.318a6.213,6.213,0,0,0-1.068-3.806,4.172,4.172,0,0,0-3.564-1.426q-4.632,0-4.632,5.114v14.506a15.94,15.94,0,0,0,.356,3.566,8.09,8.09,0,0,0,1.544,3.092,28.462,28.462,0,0,0,2.614,3.33q1.782,2.024,3.8,4.339t3.978,4.756q1.962,2.439,3.386,4.458a22.777,22.777,0,0,1,1.96,3.27,19.368,19.368,0,0,1,1.248,3.39,27,27,0,0,1,.712,3.924,45.943,45.943,0,0,1,.238,4.992v14.032q0,7.848-3.622,12.009t-11.82,4.162q-8.193,0-11.876-4.162t-3.684-12.009v-16.29a5.027,5.027,0,0,1,1.486-3.8,5.339,5.339,0,0,1,3.86-1.428,4.91,4.91,0,0,1,5.226,5.232v16.29a5.941,5.941,0,0,0,1.128,3.8,4.338,4.338,0,0,0,3.622,1.428q4.752,0,4.752-5.232Z" transform="translate(84.497 0)" fill="#172e59"/>
  </g>
</svg>
