<svg xmlns="http://www.w3.org/2000/svg" width="180" height="97" viewBox="0 0 180 97">
  <g id="homeText6-sp" transform="translate(-1611.227 112.066)">
    <path id="パス_673" data-name="パス 673" d="M1781.909-48.515c4.322-3.489,6.413-8.411,8.382-12.892,3.467-9.746-3.286-20.793-10.787-26.716-7.2-6.752-16.938-12.893-26.463-15.9-22.8-7.5-47.059-10.355-73.573-5.961-8.549.881-18.433,2.632-25.353,5.473-7.686,2.212-14.893,5.06-21.636,10.538-11.358,7.253-20.273,19.193-21.187,31.677-2.061,24.934,43.812,36.225,62.838,38.27a173.953,173.953,0,0,0,23.214,1.109c14.249.549,28.713-.449,42.644,1.973,4.174.5,8.423,2.919,12.694,3.971,2.315.324,4.552,2.031,7.193,1.907,1.681-1.386-2.681-2.355-3.355-3.473-2.139-1.626-2.412-3.95-3.138-6.5,2.405-2.357,3.352-5.059,6.69-6.952C1767.349-38.121,1775.073-42.21,1781.909-48.515Z" transform="translate(0)" fill="#172e59" fill-rule="evenodd"/>
    <g id="グループ_2554" data-name="グループ 2554" transform="translate(1640.496 -86.41)">
      <path id="パス_674" data-name="パス 674" d="M1655.764-77.244c.221,0,.271.153.305.322.356,1.8,1.8,2.051,3.391,2.051a21.115,21.115,0,0,0,5.052-.593,1.335,1.335,0,0,1,.254-.051c.254,0,.373.288.373,1.39,0,.322-.085.526-.407.627a30.984,30.984,0,0,1-5.087.475c-1.762,0-3.661-.219-4.764-1.762a3.965,3.965,0,0,1-.661-1.645C1654.221-76.854,1655.747-77.244,1655.764-77.244Zm.289-5.917c.05-.288.085-.593.407-.593a2.482,2.482,0,0,1,.492.1,10.913,10.913,0,0,0,2.882.355,14.418,14.418,0,0,0,3.068-.339.865.865,0,0,1,.22-.034c.424,0,.441.763.441,1.458,0,.406-.085.44-.475.509a23.308,23.308,0,0,1-3.069.2,14.535,14.535,0,0,1-3.865-.423.353.353,0,0,1-.237-.356A5.907,5.907,0,0,1,1656.053-83.161Z" transform="translate(-1640.695 85.984)" fill="#fff"/>
      <path id="パス_675" data-name="パス 675" d="M1671.452-78.183A52.716,52.716,0,0,1,1675-84.169c.254-.406.475-.763.7-1.17.051-.085.135-.254.254-.254a4.279,4.279,0,0,1,.95.645c.17.119.779.542.779.728s-.151.254-.3.272a.743.743,0,0,0-.442.219,16.932,16.932,0,0,0-1.067,1.39,22.046,22.046,0,0,0-1.714,2.713.182.182,0,0,0,.17.17.678.678,0,0,0,.305-.119,3.811,3.811,0,0,1,1.8-.577,2.015,2.015,0,0,1,1.8,1,2.821,2.821,0,0,1,.187,1.068,8.928,8.928,0,0,1-.22,1.645,9.583,9.583,0,0,0-.272,1.662c0,.288.1.644.441.644.949,0,2.559-2.052,3.086-2.8.085-.1.2-.237.339-.238.3,0,.88,1.34.88,1.578a.656.656,0,0,1-.187.373c-.389.389-.778.78-1.186,1.153a5.464,5.464,0,0,1-3.409,1.78c-1.2,0-1.694-1.034-1.694-2.1a10.913,10.913,0,0,1,.221-1.967,7.631,7.631,0,0,0,.186-1.373c0-.441-.152-.78-.644-.78a3.16,3.16,0,0,0-1.458.475,5.024,5.024,0,0,0-1.729,1.543,11.729,11.729,0,0,0-1.561,3.56c-.052.221-.086.527-.374.527-.271,0-1.627-.491-1.627-.779,0-.018.288-.713.306-.747C1670.131-75.351,1670.758-76.776,1671.452-78.183Z" transform="translate(-1640.733 85.989)" fill="#fff"/>
      <path id="パス_676" data-name="パス 676" d="M1692.337-85.426c.085.034.271.085.271.2s-.119.188-.271.306a2.951,2.951,0,0,0-.306.9,5.492,5.492,0,0,0-.187.763.2.2,0,0,0,.187.221,8.27,8.27,0,0,0,.968-.254.558.558,0,0,1,.17-.034c.2,0,.219.3.253.508a7.783,7.783,0,0,1,.085.9c0,.372-.2.406-1.764.694-.609.1-.593.22-.8.78a43.172,43.172,0,0,1-2.763,6.036c-.1.17-.153.237-.339.237-.373,0-1.509-.492-1.509-.848a1.874,1.874,0,0,1,.305-.61,31.767,31.767,0,0,0,2.018-3.916,6.791,6.791,0,0,0,.391-1.035.228.228,0,0,0-.238-.219c-.134,0-1.44.17-1.831.17-.288,0-.355-.154-.423-.543-.034-.2-.119-.815-.119-.984,0-.219.119-.27.305-.27h.779a15.273,15.273,0,0,0,1.747-.085.58.58,0,0,0,.509-.271,10.353,10.353,0,0,0,.542-2.849c0-.119,0-.288.153-.288C1690.657-85.917,1692.064-85.511,1692.337-85.426Zm2.44,5.053c.186.05.339.153.339.356,0,.033-.034.543-.034.9,0,.493.085,2.933.17,3.29.051.254.271.323.526.424.051.017.119.051.169.068.39.153,2.39,1.084,2.39,1.492,0,.27-.628,1.238-1.051,1.238-.17,0-.322-.154-.44-.238a4.844,4.844,0,0,0-1.357-.779c-.187,0-.254.237-.271.39-.2,1.238-1.2,1.662-2.358,1.662-1.374,0-2.983-.729-2.983-2.305,0-1.56,1.474-2.1,2.814-2.1h.441c.2,0,.356-.085.356-.288,0-.543-.254-3-.305-3.663,0-.085-.016-.153-.016-.237,0-.271.153-.373.407-.373A6.991,6.991,0,0,1,1694.776-80.373Zm-3.171,6.459c0,.527.678.8,1.119.8.611,0,.882-.321.882-.916,0-.339-.017-.525-.865-.525C1692.336-74.557,1691.605-74.456,1691.605-73.914Zm7.41-6.477c0,.407-.967,1.171-1.273,1.171-.169,0-.288-.188-.373-.306a9.574,9.574,0,0,0-2.117-2.186c-.068-.051-.22-.153-.22-.272,0-.236.78-1.169,1.135-1.169A8.688,8.688,0,0,1,1699.015-80.391Z" transform="translate(-1640.777 85.99)" fill="#fff"/>
      <path id="パス_677" data-name="パス 677" d="M1704.689-77.249c.221,0,.272.152.306.321.355,1.8,1.8,2.051,3.391,2.051a21.114,21.114,0,0,0,5.053-.593,1.335,1.335,0,0,1,.254-.051c.254,0,.373.288.373,1.391a.55.55,0,0,1-.407.626,31,31,0,0,1-5.087.475c-1.763,0-3.662-.219-4.764-1.762a3.964,3.964,0,0,1-.662-1.645C1703.146-76.86,1704.673-77.249,1704.689-77.249Zm.289-5.918c.051-.288.085-.593.408-.593a2.563,2.563,0,0,1,.492.1,10.908,10.908,0,0,0,2.882.355,14.416,14.416,0,0,0,3.069-.339.851.851,0,0,1,.22-.034c.424,0,.441.763.441,1.458,0,.406-.085.441-.475.509a23.134,23.134,0,0,1-3.069.2,14.536,14.536,0,0,1-3.865-.423.353.353,0,0,1-.237-.356A6,6,0,0,1,1704.978-83.167Z" transform="translate(-1640.821 85.984)" fill="#fff"/>
      <path id="パス_678" data-name="パス 678" d="M1722.2-85.156a6.509,6.509,0,0,1,.815-.085c.474,0,.441.254.474.643a23.349,23.349,0,0,0,.526,3.035c.051.22.1.509.39.509a27.341,27.341,0,0,0,3.459-1.882,1.086,1.086,0,0,1,.441-.17c.22,0,.509.509.61.678a3.388,3.388,0,0,1,.492,1.034c0,.17-.187.22-.323.271a31.285,31.285,0,0,0-4.188,1.95,17.269,17.269,0,0,0-3.051,2,2.128,2.128,0,0,0-.831,1.525c0,.61.593,1.034,1.119,1.221a6.8,6.8,0,0,0,2.254.3,25.591,25.591,0,0,0,4.426-.441.469.469,0,0,1,.152-.017c.237,0,.255.7.255,1.051v.2c0,.441-.018.627-.357.712a40.6,40.6,0,0,1-4.663.271,6.346,6.346,0,0,1-3.474-.728,2.982,2.982,0,0,1-1.56-2.61c0-1.849,1.525-3.053,2.933-3.969a.525.525,0,0,0,.288-.44.574.574,0,0,0-.069-.305c-.2-.61-.676-2.408-.846-3.1a10.451,10.451,0,0,0-.323-1.119.958.958,0,0,1-.05-.2C1721.095-85.071,1721.655-85.071,1722.2-85.156Z" transform="translate(-1640.861 85.988)" fill="#fff"/>
      <path id="パス_679" data-name="パス 679" d="M1740.971-85.109c0,.085-.068.135-.153.187-.237.118-.355.136-.594.745-.152.407-.288.831-.424,1.238a.6.6,0,0,0-.05.238c0,.288.219.355.458.389.576.069,1.152.119,1.729.136.322,0,.576-.017.576.322a5.02,5.02,0,0,1-.186,1.1c-.068.236-.137.372-.374.372a21.274,21.274,0,0,1-2.3-.254.49.49,0,0,0-.152-.033c-.272,0-.392.187-.459.407-.051.2-.287,1.271-.287,1.407,0,.355.354.373.592.389.509.051,1.017.068,1.526.068.458,0,.509.119.509.288a3.746,3.746,0,0,1-.222,1.136c-.084.254-.186.389-.475.389-.389,0-1.186-.118-1.593-.169a1.814,1.814,0,0,0-.272-.034c-.458,0-.458.424-.458,1.154a2.014,2.014,0,0,0,2.254,2.253,3.609,3.609,0,0,0,2.459-.8,1.7,1.7,0,0,0,.373-1.2,7.321,7.321,0,0,0-.577-2.458.892.892,0,0,1-.068-.305c0-.407,1.255-.627,1.441-.627.271,0,.322.27.458.644a9.291,9.291,0,0,1,.56,2.966c0,2.628-2.426,3.545-4.68,3.545a3.706,3.706,0,0,1-4.068-4.053c0-.423.068-1.068.068-1.238,0-.373-.288-.474-.679-.593a5.65,5.65,0,0,1-1-.406c-.186-.1-.322-.187-.322-.407,0-.1.17-1.44.594-1.44a.915.915,0,0,1,.424.169,3.065,3.065,0,0,0,1.085.474c.288,0,.338-.236.441-.728.033-.187.1-.408.151-.661a3.112,3.112,0,0,0,.07-.373c0-.373-.305-.475-.543-.56-1.187-.458-1.527-.61-1.527-.916,0-.288.272-1.458.627-1.458a.931.931,0,0,1,.391.187,10.55,10.55,0,0,0,1.152.593.526.526,0,0,0,.221.051c.27,0,.34-.22.389-.407.154-.577.527-1.78.663-2.271.05-.188.084-.339.253-.339a6.375,6.375,0,0,1,.847.27C1740.106-85.618,1740.971-85.381,1740.971-85.109Z" transform="translate(-1640.901 85.99)" fill="#fff"/>
      <path id="パス_680" data-name="パス 680" d="M1642.2-53.248c.221,0,.271.154.306.339.355,1.78,1.779,2.035,3.373,2.035a20.572,20.572,0,0,0,5.07-.593,1.267,1.267,0,0,1,.253-.051c.288,0,.288.339.323.559.016.17.05.678.05.848a.554.554,0,0,1-.424.61,29.072,29.072,0,0,1-5.087.492c-1.764,0-3.662-.236-4.747-1.779a3.757,3.757,0,0,1-.661-1.644C1640.66-52.857,1642.186-53.248,1642.2-53.248Zm1.086-6.425a10.854,10.854,0,0,0,3.221.424,14.689,14.689,0,0,0,2.731-.272,1.012,1.012,0,0,1,.219-.016c.39,0,.424.627.424,1.356,0,.424-.051.526-.373.577a21.668,21.668,0,0,1-2.576.154,16.7,16.7,0,0,1-4.443-.492.4.4,0,0,1-.27-.356c0-.187.119-.678.152-.882.068-.3.1-.593.407-.593A2.458,2.458,0,0,1,1643.289-59.674Zm9.393.711c0,.254-.594.764-.814.764-.1,0-.2-.137-.407-.391-.322-.373-.677-.746-1.034-1.1-.051-.05-.17-.153-.17-.237,0-.2.645-.712.815-.712A6.347,6.347,0,0,1,1652.682-58.963Zm1.543-1.323c0,.254-.594.78-.814.78-.1,0-.254-.2-.441-.424-.322-.389-.661-.728-1-1.085-.067-.051-.17-.152-.17-.219,0-.22.645-.712.831-.712A6.756,6.756,0,0,1,1654.225-60.285Z" transform="translate(-1640.66 85.928)" fill="#fff"/>
      <path id="パス_681" data-name="パス 681" d="M1660.794-54.082c-.085,0-.119.085-.119.154v4.018c0,.8.049,1.594.049,2.392,0,.508-.186.525-.88.525-.678,0-.866-.017-.866-.509,0-.8.035-1.594.036-2.408v-3.7c0-.034-.018-.085-.069-.085a.073.073,0,0,0-.067.051,15.337,15.337,0,0,1-1.408,3.068c-.1.153-.17.306-.373.306-.323,0-1.034-.593-1.034-.933a1.094,1.094,0,0,1,.253-.526,20.7,20.7,0,0,0,2.273-5.121c0-.051.016-.1.016-.136,0-.237-.169-.322-.372-.322h-.034c-.491,0-.984.051-1.323.052-.391,0-.372-.254-.372-.848,0-.627-.018-.848.389-.848.357,0,.815.034,1.306.034h.34c.339,0,.474-.137.474-.476v-1.289a8.659,8.659,0,0,0-.05-1.152.448.448,0,0,1-.018-.153c0-.2.136-.238.288-.238.221,0,1.188.1,1.442.137.135.017.373.033.373.22,0,.1-.069.135-.187.237-.17.136-.186.458-.186.949v1.289c0,.339.152.476.474.475h.17c.492,0,.949-.034,1.305-.034.407,0,.39.22.39.848,0,.593.016.848-.374.848-.339,0-.83-.051-1.321-.051h-.17c-.322,0-.458.136-.475.458a.493.493,0,0,0,.119.373,23.016,23.016,0,0,0,2.068,2.559c.1.1.255.238.255.373a1.5,1.5,0,0,1-.95.967.444.444,0,0,1-.339-.237,10.8,10.8,0,0,1-.916-1.2A.17.17,0,0,0,1660.794-54.082Zm8.273,6.137c0-.271-.12-.39-.391-.39h-2.9c-.272,0-.39.119-.39.39v.22c0,.475-.17.475-.848.476s-.882,0-.882-.476c0-.661.034-1.3.035-1.966V-58.9c0-.508-.017-1.016-.017-1.542,0-.61.169-.814.8-.814.39,0,.779.017,1.17.017h3.187c.373,0,.763-.018,1.136-.018.628,0,.831.17.831.814,0,.509-.034,1.034-.034,1.542v9.207c0,.661.033,1.323.033,1.984,0,.458-.2.458-.865.458-.593,0-.864.017-.864-.424Zm-3.712-6.375a.484.484,0,0,0,.475.475h2.8a.474.474,0,0,0,.476-.475v-1.323c-.034-.288-.17-.458-.476-.458h-2.8a.449.449,0,0,0-.475.458Zm0,3.968a.484.484,0,0,0,.475.474h2.8a.473.473,0,0,0,.476-.474v-1.543a.475.475,0,0,0-.476-.476h-2.8a.485.485,0,0,0-.475.476Zm3.273-7.223a.463.463,0,0,0,.476-.475v-1.136a.473.473,0,0,0-.476-.474h-2.8a.482.482,0,0,0-.474.474v1.136a.472.472,0,0,0,.474.475Z" transform="translate(-1640.7 85.929)" fill="#fff"/>
      <path id="パス_682" data-name="パス 682" d="M1680.594-58.407c-.1,0-.151.068-.186.153-.018.17-.085.254-.391.254-.458,0-.932-.034-1.407-.034h-2.272c-.475,0-.95.033-1.424.033-.424,0-.407-.17-.407-.712,0-.525,0-.694.407-.694.475,0,.95.016,1.424.016h2.272c.475,0,.949-.017,1.424-.017.136,0,.288,0,.355.153a.136.136,0,0,0,.1.085c.016,0,.051.016.085-.051a9.736,9.736,0,0,0,.644-1.78c.051-.17.069-.322.288-.322a3.412,3.412,0,0,1,.7.135c.508.136.881.238.881.424,0,.137-.187.188-.288.2-.135.051-.185.22-.288.527a14.025,14.025,0,0,1-.711,1.712.358.358,0,0,1-.322.2,2.471,2.471,0,0,1-.8-.271C1680.645-58.39,1680.629-58.407,1680.594-58.407Zm-2.511,10.5h-1c-.373,0-.458.034-.458.373v.119c0,.424-.136.407-.712.407-.542,0-.728.017-.728-.373,0-.407.033-.814.033-1.22V-50.98c0-.254-.017-.527-.017-.78,0-.527.17-.781.712-.781.22,0,.441.035.678.035h1.831c.219,0,.441-.035.661-.035.558,0,.729.238.729.781,0,.253-.017.508-.017.779v1.9c0,.424.034.831.034,1.255,0,.373-.154.407-.73.407-.508,0-.627-.052-.677-.187C1678.338-47.776,1678.287-47.912,1678.084-47.912Zm-1.322-5.545c-.441,0-.831.035-1.119.035-.407,0-.39-.187-.39-.7,0-.492-.017-.678.373-.678.237,0,.712.034,1.136.034h1.457c.442,0,.916-.034,1.137-.034.39,0,.39.186.39.677,0,.509,0,.7-.39.7-.34,0-.679-.035-1.137-.035Zm.017-2.288c-.458,0-.916.034-1.136.034-.39,0-.373-.187-.373-.712,0-.509-.017-.694.373-.694.237,0,.7.033,1.136.033h1.458c.44,0,.9-.034,1.136-.034.389,0,.373.187.373.7,0,.525.016.712-.373.712-.238,0-.678-.035-1.136-.035Zm.069-4.577c-.407,0-.814.034-1.2.034s-.373-.188-.373-.7c0-.527-.017-.712.39-.712.339,0,.763.034,1.187.034h1.356c.424,0,.847-.034,1.186-.034.391,0,.391.187.391.713,0,.508.017.694-.373.694-.407,0-.8-.034-1.2-.034Zm1.559,9.612c-.034-.288-.17-.458-.476-.458h-.847c-.305,0-.441.17-.475.458v1a.474.474,0,0,0,.474.476h.847a.476.476,0,0,0,.477-.475Zm6.272-.171a.2.2,0,0,0-.186.136,7.038,7.038,0,0,1-2.816,3.256,1.637,1.637,0,0,1-.609.323c-.34,0-1.153-.849-1.153-1.187,0-.136.1-.2.219-.271a7.594,7.594,0,0,0,2.51-2.087,6.24,6.24,0,0,0,1.222-4.391c0-.237.067-.339.321-.339.169,0,.984.068,1.153.085.237.034.542.033.542.22,0,.1-.136.187-.2.237a.275.275,0,0,0-.17.288c0,.339-.034.694-.034,1.034a3.517,3.517,0,0,0,.034.424,5.2,5.2,0,0,0,1.424,2.644,10.706,10.706,0,0,0,2.441,2c.152.085.305.17.305.287,0,.34-.763,1.154-1.136,1.154-.237,0-.8-.442-.983-.593a9.741,9.741,0,0,1-2.694-3.086C1684.814-50.811,1684.764-50.88,1684.679-50.88Zm-3.713-3.7c-.322,0-1.05-.9-1.05-1.2,0-.186.186-.236.407-.321a7.027,7.027,0,0,0,2.865-2.256,5.421,5.421,0,0,0,.729-3.458c0-.238.068-.356.323-.356.185,0,1,.085,1.22.1.186.034.492.033.492.219,0,.1-.153.187-.237.238-.119.068-.136.135-.153.27,0,.306-.017.61-.017.916a.588.588,0,0,0-.017.17,1.947,1.947,0,0,0,.051.441c.475,1.915,2.287,3.119,3.882,4.085.187.1.236.171.236.255,0,.321-.609,1.17-.966,1.17a5.013,5.013,0,0,1-1.2-.712,7.974,7.974,0,0,1-2.61-2.764.229.229,0,0,0-.187-.119.191.191,0,0,0-.186.119A7.344,7.344,0,0,1,1680.966-54.576Zm1.746,1.1c-.238.034-.288.153-.373.424-.135.407-.507,1.3-.676,1.662-.085.136-.17.237-.339.237-.188,0-1.17-.187-1.17-.56a.768.768,0,0,1,.136-.322,8.716,8.716,0,0,0,.728-1.8c.052-.153.085-.338.288-.338.051,0,.306.067.391.084.2.051,1.185.253,1.185.475C1682.881-53.524,1682.781-53.49,1682.712-53.473Zm6.427-7.325c.119.051.355.136.355.271,0,.1-.1.136-.169.153a.476.476,0,0,0-.373.237,14.343,14.343,0,0,1-1.22,1.662c-.12.136-.238.305-.424.305-.237,0-1.153-.39-1.153-.7,0-.12.153-.288.237-.373a12.531,12.531,0,0,0,1.289-1.814c.051-.1.1-.2.22-.2A8.61,8.61,0,0,1,1689.139-60.8Zm.05,7.511c-.2.017-.238.051-.339.22a15.871,15.871,0,0,1-1.17,1.611.483.483,0,0,1-.373.22c-.237,0-1.136-.44-1.136-.746,0-.136.136-.271.271-.424A10.156,10.156,0,0,0,1687.579-54c.05-.1.1-.187.2-.187a4.334,4.334,0,0,1,.781.271c.22.085.441.17.543.2s.288.119.288.253C1689.393-53.389,1689.342-53.3,1689.189-53.288Z" transform="translate(-1640.747 85.929)" fill="#fff"/>
      <path id="パス_683" data-name="パス 683" d="M1701.959-59.628c0,.171-.237.153-.356.153a.764.764,0,0,0-.458.2q-.636.458-1.271.967c-.948.78-1.917,1.561-2.8,2.408-.321.306-.694.645-.694.968,0,.424.559,1.033.847,1.34.967,1.033,2.018,1.983,3.07,2.915.287.253,1.455,1.2,1.455,1.542,0,.408-1.033,1.373-1.44,1.373-.187,0-.424-.3-.526-.441-.644-.763-1.355-1.475-2.051-2.186-.916-.916-1.847-1.83-2.678-2.815a2.578,2.578,0,0,1-.815-1.8,1.927,1.927,0,0,1,.373-1.17,16.573,16.573,0,0,1,2.189-1.985,23.223,23.223,0,0,0,3.17-3c.068-.085.153-.2.254-.2.22,0,.712.577.9.762C1701.281-60.441,1701.959-59.815,1701.959-59.628Z" transform="translate(-1640.797 85.927)" fill="#fff"/>
      <path id="パス_684" data-name="パス 684" d="M1713.727-61.683c.152.051.627.17.627.356,0,.085-.1.137-.152.17-.254.153-.272.22-.391.593-.051.187-.406,1.424-.406,1.509a.25.25,0,0,0,.254.254,11.867,11.867,0,0,0,1.966-.628.919.919,0,0,1,.356-.085c.34,0,.34,1.034.34,1.289,0,.288-.034.526-.323.61a25.5,25.5,0,0,1-2.782.662c-.492.1-.543.187-.694.661a52.766,52.766,0,0,1-3.155,7.478c-.221.406-.356.643-.611.643-.271,0-1.441-.543-1.441-.916a1.251,1.251,0,0,1,.289-.559,33.416,33.416,0,0,0,3-6.274,2.708,2.708,0,0,0,.136-.442c0-.17-.136-.254-.305-.253-.237,0-.983.085-1.509.085-.339,0-.61.017-.712-.3a7.323,7.323,0,0,1-.135-1.239c0-.187.051-.3.254-.3.153,0,.865.067,1.594.067,1.084,0,1.338-.017,1.492-.271a15.536,15.536,0,0,0,.627-3.086c.017-.254.017-.424.187-.424C1712.387-62.09,1713.506-61.751,1713.727-61.683Zm-.237,10.936a4.1,4.1,0,0,0,3.068.983,7.631,7.631,0,0,0,2.408-.34.6.6,0,0,1,.17-.033c.288,0,.288.389.287,1.067,0,.339.017.729-.186.847a16.1,16.1,0,0,1-2.645.221,7.191,7.191,0,0,1-3.628-.762c-.271-.187-.831-.61-.83-.967,0-.254.78-1.255,1.05-1.255C1713.3-50.985,1713.421-50.832,1713.489-50.747Zm2.068-5.477a12.161,12.161,0,0,1,3.408.475.318.318,0,0,1,.237.338,4.259,4.259,0,0,1-.322,1.188c-.068.152-.135.22-.305.22a1.36,1.36,0,0,1-.356-.085,7.25,7.25,0,0,0-2.7-.424c-.22,0-.424.017-.644.017-.338,0-.423-.085-.423-.373C1714.456-56.326,1714.76-56.224,1715.557-56.224Zm3.477-2.832c0,.254-.626.746-.831.746-.1,0-.169-.1-.237-.186a14.794,14.794,0,0,0-1.17-1.358c-.05-.05-.153-.152-.153-.236,0-.221.679-.679.831-.679A6.543,6.543,0,0,1,1719.034-59.056Zm1.763-1.085c0,.254-.627.763-.831.763-.1,0-.186-.119-.254-.2a14.536,14.536,0,0,0-1.17-1.357c-.05-.05-.135-.135-.135-.219,0-.2.626-.7.829-.7A6.557,6.557,0,0,1,1720.8-60.141Z" transform="translate(-1640.831 85.929)" fill="#fff"/>
      <path id="パス_685" data-name="パス 685" d="M1729.882-61.361c.373.643.7,1.3,1.05,1.966a.5.5,0,0,0,.458.322,7.786,7.786,0,0,0,1.848-.916,1.006,1.006,0,0,1,.458-.2c.339,0,1.085,1.016,1.085,1.323,0,.186-.288.321-.509.44a13.054,13.054,0,0,1-1.56.73c-.22.085-.56.152-.561.458a1.311,1.311,0,0,0,.288.643,19.465,19.465,0,0,0,2.459,3.73.8.8,0,0,1,.271.474c0,.373-.848,1.12-1.2,1.12-.187,0-.441-.221-.645-.356a8.139,8.139,0,0,0-4.018-1.423,1.653,1.653,0,0,0-1.813,1.508c0,1.747,2.594,2.1,3.9,2.1.39,0,.729-.034.95-.034.339,0,.39.237.39.543a3.147,3.147,0,0,1-.17,1.034c-.084.219-.22.288-.577.288a12.991,12.991,0,0,1-2.916-.39c-1.762-.441-3.356-1.458-3.355-3.459a3.322,3.322,0,0,1,3.578-3.239,5.381,5.381,0,0,1,2.119.492.607.607,0,0,0,.186.051.171.171,0,0,0,.187-.153.665.665,0,0,0-.1-.254c-.373-.577-.644-1.033-.983-1.644-.152-.271-.27-.593-.644-.593a1.04,1.04,0,0,0-.219.051,23.609,23.609,0,0,1-4.02.644c-.373,0-.458-.136-.609-.61a3.274,3.274,0,0,1-.2-.9c0-.271.187-.288.407-.3a18.879,18.879,0,0,0,3.391-.374c.186-.051.407-.1.407-.339a11.571,11.571,0,0,0-1.273-2.069.57.57,0,0,1-.119-.271c0-.339,1.408-.7,1.646-.7S1729.78-61.548,1729.882-61.361Z" transform="translate(-1640.876 85.928)" fill="#fff"/>
      <path id="パス_686" data-name="パス 686" d="M1742.672-58.763c.136.034.372.069.372.238,0,.1-.068.135-.17.219-.236.188-.254.527-.305.815a12.461,12.461,0,0,0-.136,1.8,9.687,9.687,0,0,0,.541,3.544c.2.475.763,1.475,1.357,1.475.475,0,.968-.746,1.17-1.119.1-.17.237-.424.458-.424.356,0,1.221.694,1.221,1s-.763,1.2-1,1.474a2.443,2.443,0,0,1-1.816,1.068c-1.255,0-2.236-1.135-2.8-2.169a12.247,12.247,0,0,1-.983-5.528c0-.271.052-2.425.086-2.576a.21.21,0,0,1,.236-.188C1741.129-59.136,1742.383-58.814,1742.672-58.763Zm6.9-.34a5.511,5.511,0,0,1,2.609,2.628,9.232,9.232,0,0,1,1,3.526c0,.323-.17.408-.458.493a3.576,3.576,0,0,1-.949.153c-.542,0-.526-.237-.56-.644a6.5,6.5,0,0,0-2.508-4.832.281.281,0,0,1-.153-.254C1748.555-58.356,1749.233-59.1,1749.572-59.1Z" transform="translate(-1640.916 85.921)" fill="#fff"/>
      <path id="パス_687" data-name="パス 687" d="M1759.5-49.307a1.249,1.249,0,0,1-1.323,1.3,1.1,1.1,0,0,1-1.17-1.119,1.268,1.268,0,0,1,1.307-1.356A1.134,1.134,0,0,1,1759.5-49.307Zm-1.524-2.493c-.425,0-.51-.085-.527-.509l-.119-4.29c-.033-1.016-.15-3.29-.15-3.629,0-.288.1-.355.474-.355h1.187c.373,0,.475.067.475.355,0,.339-.119,2.612-.153,3.731l-.1,4.187c-.017.424-.1.509-.526.509Z" transform="translate(-1640.958 85.925)" fill="#fff"/>
    </g>
  </g>
</svg>
