<svg xmlns="http://www.w3.org/2000/svg" width="178" height="59.999" viewBox="0 0 178 59.999">
  <g id="homeText5-sp" transform="translate(-1604.627 -2822.62)">
    <path id="パス_385" data-name="パス 385" d="M1616.681,2864.569a9.563,9.563,0,0,0-.428-3.175,10.783,10.783,0,0,0-1.641-2.746q-.714-.927-1.854-2.248t-2.318-2.746q-1.177-1.426-2.282-2.783a26.324,26.324,0,0,1-1.748-2.354,10.494,10.494,0,0,1-1.391-3.21,18.605,18.605,0,0,1-.392-4.21v-8.775q0-9.7,9.487-9.7,4.85,0,6.883,2.39t2.033,7.313v8.062a3.071,3.071,0,1,1-6.134,0v-7.991a3.718,3.718,0,0,0-.642-2.283,2.5,2.5,0,0,0-2.14-.855q-2.782,0-2.782,3.068v8.7a9.559,9.559,0,0,0,.214,2.14,4.842,4.842,0,0,0,.927,1.855,17.141,17.141,0,0,0,1.569,2q1.07,1.214,2.283,2.6t2.389,2.854q1.177,1.463,2.033,2.675a13.532,13.532,0,0,1,1.177,1.962,11.59,11.59,0,0,1,.749,2.033,16.272,16.272,0,0,1,.428,2.354,27.608,27.608,0,0,1,.143,3v8.418q0,4.709-2.176,7.206t-7.1,2.5q-4.922,0-7.133-2.5t-2.212-7.206v-9.774a3.016,3.016,0,0,1,.892-2.283,3.2,3.2,0,0,1,2.318-.856,2.946,2.946,0,0,1,3.139,3.139v9.774a3.57,3.57,0,0,0,.677,2.283,2.607,2.607,0,0,0,2.176.856q2.852,0,2.853-3.139Z" fill="#172e59"/>
    <path id="パス_386" data-name="パス 386" d="M1669.38,2879.123a3.072,3.072,0,0,1-3.282,3.282h-9.415a3.681,3.681,0,0,1-3.923-3.924v-50.867a3.682,3.682,0,0,1,3.923-3.924h9.058a3.174,3.174,0,0,1,3.281,3.282,3.283,3.283,0,0,1-.927,2.425,3.188,3.188,0,0,1-2.354.928h-6.419v18.834h3.566q3.066,0,3.067,3.281,0,3.354-3.067,3.354h-3.566v20.047h6.776a3.072,3.072,0,0,1,3.282,3.282Z" transform="translate(-19.289 -0.428)" fill="#172e59"/>
    <path id="パス_387" data-name="パス 387" d="M1703.508,2879.48a3.285,3.285,0,0,1-.927,2.426,3.193,3.193,0,0,1-2.354.927,3.182,3.182,0,0,1-3.352-3.353v-51.866a3.683,3.683,0,0,1,3.923-3.924h5.207q5.134,0,7.739,2.391t2.6,8.168v11.915a12.834,12.834,0,0,1-.928,5.386,6.94,6.94,0,0,1-2.924,3.1q.5,3,.928,5.244t.784,4.637q.356,2.391.821,5.422t1.105,7.527a8.009,8.009,0,0,1,.178,1.248c.023.405.036.726.036.963a2.731,2.731,0,0,1-1.07,2.354,4,4,0,0,1-2.425.785,3.854,3.854,0,0,1-2.211-.678,3.325,3.325,0,0,1-1.283-2.318,3.13,3.13,0,0,0-.071-.571,11.881,11.881,0,0,1-.143-1.213q-.072-.856-.286-2.426t-.534-4.138q-.321-2.568-.855-6.35t-1.249-9.131h-2.711Zm6.134-43.876a9.386,9.386,0,0,0-.642-4q-.642-1.284-3-1.284h-2.5v19.69h2.568q3.565,0,3.566-3.781Z" transform="translate(-36.969 -0.428)" fill="#172e59"/>
    <path id="パス_388" data-name="パス 388" d="M1760.474,2878.268q-.359,2.783-1.391,3.532a5.592,5.592,0,0,1-3.245.75q-2.782,0-3.745-.892a5.574,5.574,0,0,1-1.248-3.46l-5.706-49.868q-.214-1.783-.214-2.212a2.74,2.74,0,0,1,1.106-2.283,3.922,3.922,0,0,1,2.46-.855,3.552,3.552,0,0,1,2.069.642,2.692,2.692,0,0,1,1.07,2.069q.356,4.281.82,8.917t.892,9.2q.428,4.567.856,8.846t.749,7.92q.32,3.638.571,6.385t.321,4.173q.142-2.21.641-7.134t1.177-11.308q.677-6.383,1.427-13.483t1.391-13.662a2.548,2.548,0,0,1,1.033-1.962,3.421,3.421,0,0,1,1.962-.605,3.8,3.8,0,0,1,2.282.784,2.584,2.584,0,0,1,1.07,2.212q0,.358-.214,2.069Z" transform="translate(-56.226 -0.143)" fill="#172e59"/>
    <path id="パス_389" data-name="パス 389" d="M1803.876,2881.657a3.284,3.284,0,0,1-5.671-2.39v-53.008a3.284,3.284,0,1,1,6.562,0v53.008A3.232,3.232,0,0,1,1803.876,2881.657Z" transform="translate(-77.567 -0.143)" fill="#172e59"/>
    <path id="パス_390" data-name="パス 390" d="M1838.645,2863a3,3,0,1,1,5.991,0v9.56q0,5.209-2.068,7.633t-6.705,2.426q-9.415,0-9.415-9.917v-39.952q0-10.129,9.272-10.131,8.915,0,8.916,9.989v7.847a3,3,0,1,1-5.991,0v-7.847a4.306,4.306,0,0,0-.607-2.5,2.317,2.317,0,0,0-2.032-.855q-2.854,0-2.854,3.353v40.023q0,3.424,2.782,3.424,2.709,0,2.71-3.424Z" transform="translate(-88.895)" fill="#172e59"/>
    <path id="パス_391" data-name="パス 391" d="M1890.548,2879.123a3.072,3.072,0,0,1-3.281,3.282h-9.415a3.681,3.681,0,0,1-3.922-3.924v-50.867a3.682,3.682,0,0,1,3.922-3.924h9.059a3.172,3.172,0,0,1,3.281,3.282,3.281,3.281,0,0,1-.927,2.425,3.189,3.189,0,0,1-2.354.928h-6.419v18.834h3.566q3.066,0,3.067,3.281,0,3.354-3.067,3.354h-3.566v20.047h6.776a3.072,3.072,0,0,1,3.281,3.282Z" transform="translate(-107.921 -0.428)" fill="#172e59"/>
  </g>
</svg>
