<svg xmlns="http://www.w3.org/2000/svg" width="120" height="60" viewBox="0 0 120 60">
  <g id="homeText2-sp" transform="translate(-1596.617 -2564.085)">
    <path id="パス_376" data-name="パス 376" d="M1616.25,2622.943a3.132,3.132,0,0,1-2.316.891h-.071a3.545,3.545,0,0,1-3.778-3.067q-1.426-6.562-2.566-11.949t-2.1-9.845q-.961-4.459-1.782-8.242t-1.531-7.134q.14,6.063.142,12.308v25.076a2.8,2.8,0,0,1-.784,2.07,2.705,2.705,0,0,1-2,.783,2.692,2.692,0,0,1-2.85-2.853v-52.865a3.769,3.769,0,0,1,1.068-2.783,3.949,3.949,0,0,1,2.923-1.069,4.4,4.4,0,0,1,2.956.891,4.014,4.014,0,0,1,1.319,2.317q1.282,7.278,2.245,12.737t1.782,9.774q.817,4.318,1.46,7.884t1.283,7.134q-.144-5.137-.143-10.06v-27.9a2.706,2.706,0,0,1,.783-2,2.79,2.79,0,0,1,2.067-.783,2.684,2.684,0,0,1,2.78,2.781v53.578A3.137,3.137,0,0,1,1616.25,2622.943Z" transform="translate(0 0.035)" fill="#172e59"/>
    <path id="パス_377" data-name="パス 377" d="M1639.316,2620.054a3.07,3.07,0,0,1-3.278,3.283h-9.407a3.683,3.683,0,0,1-3.919-3.925v-50.868a3.681,3.681,0,0,1,3.919-3.924h9.052a3.169,3.169,0,0,1,3.277,3.28,3.284,3.284,0,0,1-.925,2.427,3.185,3.185,0,0,1-2.352.927h-6.415v18.836h3.564q3.064,0,3.065,3.281,0,3.353-3.065,3.353h-3.564v20.047h6.77a3.068,3.068,0,0,1,3.278,3.282Z" transform="translate(5.219 0.107)" fill="#172e59"/>
    <path id="パス_378" data-name="パス 378" d="M1672.686,2567.188a2.91,2.91,0,0,1,3.064-2.924,3.874,3.874,0,0,1,2.495.925,3.136,3.136,0,0,1,1.14,2.569q0,.5-.214,2.283l-5.915,50.369a3.81,3.81,0,0,1-1.176,2.425,4.3,4.3,0,0,1-3.1,1,4.425,4.425,0,0,1-3.064-.962,3.8,3.8,0,0,1-1.212-2.6l-3.278-37.955-3.706,37.955a3.8,3.8,0,0,1-1.212,2.6,5.418,5.418,0,0,1-6.164,0,3.8,3.8,0,0,1-1.176-2.533l-5.131-50.3q-.212-1.783-.214-2.283a3.137,3.137,0,0,1,1.14-2.569,3.871,3.871,0,0,1,2.495-.925,3.164,3.164,0,0,1,2.031.713,3.067,3.067,0,0,1,1.033,2.211l3.42,41.451,4.277-41.308a3.09,3.09,0,0,1,3.42-3.067,3.223,3.223,0,0,1,3.351,3.067l3.705,41.308Z" transform="translate(9.441 0.035)" fill="#172e59"/>
    <path id="パス_379" data-name="パス 379" d="M1693.161,2606.035a9.588,9.588,0,0,0-.427-3.175,10.821,10.821,0,0,0-1.639-2.748q-.713-.925-1.853-2.246t-2.317-2.747q-1.176-1.427-2.28-2.782a26.481,26.481,0,0,1-1.746-2.355,10.475,10.475,0,0,1-1.389-3.21,18.587,18.587,0,0,1-.392-4.209v-8.774q0-9.7,9.479-9.7,4.846,0,6.877,2.39t2.032,7.313v8.062a3.069,3.069,0,1,1-6.129,0v-7.991a3.729,3.729,0,0,0-.641-2.284,2.5,2.5,0,0,0-2.138-.855q-2.78,0-2.779,3.068v8.7a9.575,9.575,0,0,0,.213,2.139,4.861,4.861,0,0,0,.927,1.855,17.067,17.067,0,0,0,1.568,2q1.069,1.215,2.28,2.6t2.387,2.854q1.177,1.463,2.031,2.675a13.644,13.644,0,0,1,1.176,1.962,11.634,11.634,0,0,1,.749,2.033,16.2,16.2,0,0,1,.427,2.354,27.583,27.583,0,0,1,.143,3v8.419q0,4.71-2.173,7.206t-7.092,2.5q-4.916,0-7.125-2.5t-2.21-7.206v-9.774a3.017,3.017,0,0,1,.891-2.283,3.2,3.2,0,0,1,2.316-.856,2.946,2.946,0,0,1,3.136,3.139v9.774a3.562,3.562,0,0,0,.677,2.282,2.6,2.6,0,0,0,2.173.858q2.851,0,2.851-3.14Z" transform="translate(16.9 0)" fill="#172e59"/>
  </g>
</svg>
