<svg xmlns="http://www.w3.org/2000/svg" width="137.4" height="60" viewBox="0 0 137.4 60">
  <g id="homeText3-sp" transform="translate(-1603.557 -2667.62)">
    <path id="パス_380" data-name="パス 380" d="M1624.886,2721.984q.142.928.178,1.392c.023.31.036.583.036.821a3.039,3.039,0,0,1-1.034,2.533,3.461,3.461,0,0,1-2.176.821,3.586,3.586,0,0,1-2.034-.714,2.85,2.85,0,0,1-1.177-2.212l-.784-6.563h-7.205l-.855,6.635a3.1,3.1,0,0,1-1.177,2.14,3.276,3.276,0,0,1-1.961.714,3.317,3.317,0,0,1-2.14-.821,3,3,0,0,1-1-2.461c0-.238.011-.511.036-.821s.082-.748.178-1.319l6.563-50.725a3.944,3.944,0,0,1,1.249-2.5,4.291,4.291,0,0,1,2.96-.926,4.432,4.432,0,0,1,3,.926,3.87,3.87,0,0,1,1.284,2.5Zm-7.7-9.988q-.786-6.7-1.5-13.449t-1.356-13.662q-.642,6.921-1.391,13.769t-1.6,13.341Z" transform="translate(0 -0.143)" fill="#172e59"/>
    <path id="パス_381" data-name="パス 381" d="M1660.232,2727.406a3.681,3.681,0,0,1-3.923-3.924v-50.868a3.682,3.682,0,0,1,3.923-3.924h5.564q4.778,0,6.812,2.426t2.033,7.777v11.914q0,5-3.139,6.207a4.707,4.707,0,0,1,2.711,1.855,6.955,6.955,0,0,1,1.141,4.281v14.34q0,5.21-2.39,7.563t-7.169,2.354Zm8.274-48.728a4.051,4.051,0,0,0-.641-2.6,2.588,2.588,0,0,0-2.069-.749h-2.925v19.191h3q2.638,0,2.639-3.068Zm.143,25.042a4.408,4.408,0,0,0-.606-2.64,2.6,2.6,0,0,0-2.176-.785h-3v20.547h2.925q2.852,0,2.853-3.425Z" transform="translate(-21.101 -0.428)" fill="#172e59"/>
    <path id="パス_382" data-name="パス 382" d="M1704.732,2677.609q0-9.988,9.345-9.989,9.417,0,9.417,9.989v40.024q0,9.988-9.417,9.988-9.345,0-9.345-9.988Zm12.2,0q0-3.354-2.854-3.353-2.782,0-2.782,3.353v40.024q0,3.424,2.782,3.424,2.853,0,2.854-3.424Z" transform="translate(-40.47)" fill="#172e59"/>
    <path id="パス_383" data-name="パス 383" d="M1765.283,2671.259a3.284,3.284,0,1,1,6.563,0v46.517q0,9.988-9.345,9.987t-9.345-9.987v-46.517a3.285,3.285,0,1,1,6.563,0v46.517q0,3.423,2.782,3.424t2.782-3.424Z" transform="translate(-59.84 -0.143)" fill="#172e59"/>
    <path id="パス_384" data-name="パス 384" d="M1811.977,2726.942a3.284,3.284,0,0,1-5.671-2.39v-49.227h-3.21q-3.354,0-3.353-3.21,0-3.425,3.353-3.425h13.054q3.281,0,3.281,3.425,0,3.21-3.281,3.21h-3.281v49.227A3.231,3.231,0,0,1,1811.977,2726.942Z" transform="translate(-78.475 -0.428)" fill="#172e59"/>
  </g>
</svg>
