<svg xmlns="http://www.w3.org/2000/svg" width="218" height="118" viewBox="0 0 218 118">
  <g id="homeText5" transform="translate(-1611.227 112.066)">
    <path id="パス_673" data-name="パス 673" d="M1817.942-34.757c5.235-4.245,7.767-10.232,10.152-15.684,4.2-11.857-3.98-25.294-13.064-32.5-8.726-8.214-20.514-15.685-32.049-19.348-27.617-9.123-56.994-12.6-89.106-7.252-10.354,1.072-22.324,3.2-30.7,6.658-9.309,2.691-18.037,6.156-26.2,12.819-13.756,8.824-24.553,23.348-25.659,38.535-2.5,30.332,53.061,44.067,76.1,46.555a209.751,209.751,0,0,0,28.115,1.349c17.258.668,34.775-.546,51.647,2.4,5.055.605,10.2,3.551,15.374,4.831,2.8.395,5.513,2.471,8.712,2.32,2.036-1.686-3.247-2.865-4.063-4.225-2.591-1.978-2.922-4.805-3.8-7.912,2.913-2.868,4.059-6.155,8.1-8.457C1800.309-22.112,1809.662-27.087,1817.942-34.757Z" transform="translate(0 0)" fill="#172e59" fill-rule="evenodd"/>
    <g id="グループ_2554" data-name="グループ 2554" transform="translate(1646.717 -80.75)">
      <path id="パス_674" data-name="パス 674" d="M1656.089-75.874c.267,0,.328.185.37.39.431,2.175,2.176,2.482,4.1,2.482a25.556,25.556,0,0,0,6.115-.718,1.617,1.617,0,0,1,.308-.062c.308,0,.452.349.452,1.683,0,.39-.1.636-.492.759a37.5,37.5,0,0,1-6.157.575c-2.133,0-4.432-.266-5.766-2.133a4.8,4.8,0,0,1-.8-1.991C1654.221-75.4,1656.068-75.874,1656.089-75.874Zm.35-7.161c.06-.349.1-.718.493-.718a3,3,0,0,1,.6.123,13.211,13.211,0,0,0,3.489.43,17.45,17.45,0,0,0,3.714-.41,1.046,1.046,0,0,1,.267-.041c.513,0,.534.924.534,1.765,0,.491-.1.532-.575.616a28.208,28.208,0,0,1-3.715.246,17.594,17.594,0,0,1-4.678-.512.427.427,0,0,1-.287-.431A7.124,7.124,0,0,1,1656.439-83.036Z" transform="translate(-1637.849 86.453)" fill="#fff"/>
      <path id="パス_675" data-name="パス 675" d="M1671.927-76.624a63.768,63.768,0,0,1,4.29-7.245c.308-.491.575-.924.842-1.416.062-.1.164-.308.308-.308a5.187,5.187,0,0,1,1.149.781c.205.144.943.656.943.881s-.184.308-.368.33a.9.9,0,0,0-.535.266,20.522,20.522,0,0,0-1.292,1.683,26.687,26.687,0,0,0-2.074,3.284.22.22,0,0,0,.205.205.82.82,0,0,0,.369-.144,4.613,4.613,0,0,1,2.174-.7,2.439,2.439,0,0,1,2.176,1.21,3.413,3.413,0,0,1,.227,1.293,10.809,10.809,0,0,1-.267,1.991,11.628,11.628,0,0,0-.328,2.011c0,.349.122.78.534.78,1.148,0,3.1-2.483,3.735-3.386.1-.123.245-.287.411-.289.368,0,1.065,1.621,1.065,1.91a.8.8,0,0,1-.226.452c-.471.471-.942.944-1.435,1.4-1.128,1.025-2.525,2.155-4.127,2.155-1.457,0-2.05-1.252-2.05-2.544a13.2,13.2,0,0,1,.267-2.381,9.239,9.239,0,0,0,.225-1.662c0-.534-.184-.944-.779-.944a3.824,3.824,0,0,0-1.765.575,6.083,6.083,0,0,0-2.092,1.868,14.192,14.192,0,0,0-1.889,4.309c-.063.268-.1.637-.453.637-.327,0-1.969-.594-1.969-.943,0-.022.349-.863.37-.9C1670.327-73.2,1671.086-74.921,1671.927-76.624Z" transform="translate(-1634.745 86.072)" fill="#fff"/>
      <path id="パス_676" data-name="パス 676" d="M1693.6-85.323c.1.041.327.1.327.246s-.144.227-.327.371a3.569,3.569,0,0,0-.371,1.087,6.642,6.642,0,0,0-.226.924.241.241,0,0,0,.226.268,10.017,10.017,0,0,0,1.171-.308.675.675,0,0,1,.205-.041c.245,0,.266.368.307.615a9.464,9.464,0,0,1,.1,1.089c0,.45-.246.491-2.135.84-.738.124-.718.267-.966.944a52.221,52.221,0,0,1-3.344,7.306c-.123.205-.185.287-.41.287-.451,0-1.827-.6-1.827-1.026a2.267,2.267,0,0,1,.37-.739,38.465,38.465,0,0,0,2.442-4.74,8.214,8.214,0,0,0,.473-1.253.276.276,0,0,0-.288-.266c-.163,0-1.743.205-2.216.205-.349,0-.43-.186-.512-.657-.041-.246-.144-.986-.144-1.192,0-.266.144-.327.369-.327h.943a18.482,18.482,0,0,0,2.114-.1c.267-.041.451-.062.616-.328a12.533,12.533,0,0,0,.657-3.448c0-.144,0-.349.185-.349C1691.566-85.917,1693.27-85.426,1693.6-85.323Zm2.953,6.116c.226.06.41.185.41.431,0,.04-.041.657-.041,1.087,0,.6.1,3.551.205,3.982.061.308.328.391.636.513.061.021.144.062.205.082.472.185,2.893,1.312,2.893,1.806,0,.327-.76,1.5-1.272,1.5-.205,0-.39-.186-.532-.289a5.859,5.859,0,0,0-1.642-.943c-.226,0-.308.287-.328.472-.248,1.5-1.458,2.011-2.854,2.011-1.662,0-3.611-.882-3.61-2.79,0-1.888,1.784-2.545,3.406-2.545h.534c.247,0,.431-.1.431-.349,0-.657-.308-3.633-.369-4.433,0-.1-.019-.185-.019-.287,0-.328.185-.452.493-.452A8.457,8.457,0,0,1,1696.552-79.207Zm-3.838,7.818c0,.637.821.965,1.354.965.74,0,1.067-.389,1.067-1.108,0-.41-.021-.635-1.047-.635C1693.6-72.167,1692.714-72.046,1692.714-71.389Zm8.969-7.84c0,.493-1.17,1.417-1.54,1.417-.2,0-.349-.227-.452-.371a11.588,11.588,0,0,0-2.563-2.646c-.082-.062-.267-.185-.267-.33,0-.286.944-1.415,1.374-1.415C1698.75-82.573,1701.684-79.761,1701.683-79.229Z" transform="translate(-1631.194 86.005)" fill="#fff"/>
      <path id="パス_677" data-name="パス 677" d="M1705.014-75.879c.268,0,.329.183.371.389.43,2.177,2.175,2.482,4.1,2.482a25.557,25.557,0,0,0,6.116-.718,1.615,1.615,0,0,1,.308-.062c.308,0,.451.349.451,1.684a.666.666,0,0,1-.492.758,37.518,37.518,0,0,1-6.157.575c-2.134,0-4.432-.266-5.766-2.133a4.8,4.8,0,0,1-.8-1.991C1703.146-75.408,1704.994-75.879,1705.014-75.879Zm.35-7.163c.062-.349.1-.718.494-.718a3.1,3.1,0,0,1,.6.123,13.2,13.2,0,0,0,3.488.43,17.448,17.448,0,0,0,3.715-.41,1.033,1.033,0,0,1,.267-.041c.513,0,.534.924.534,1.765,0,.491-.1.534-.575.616a28,28,0,0,1-3.715.246,17.593,17.593,0,0,1-4.678-.512.427.427,0,0,1-.287-.431A7.259,7.259,0,0,1,1705.364-83.042Z" transform="translate(-1627.709 86.452)" fill="#fff"/>
      <path id="パス_678" data-name="パス 678" d="M1722.835-85.138a7.88,7.88,0,0,1,.986-.1c.573,0,.533.308.573.779a28.278,28.278,0,0,0,.636,3.674c.062.267.123.616.472.616a33.094,33.094,0,0,0,4.187-2.278,1.313,1.313,0,0,1,.534-.205c.267,0,.616.616.739.821a4.1,4.1,0,0,1,.6,1.252c0,.205-.226.267-.391.328a37.869,37.869,0,0,0-5.069,2.36,20.9,20.9,0,0,0-3.693,2.423,2.575,2.575,0,0,0-1.006,1.846c0,.739.717,1.252,1.354,1.478a8.224,8.224,0,0,0,2.728.368,30.976,30.976,0,0,0,5.357-.534.568.568,0,0,1,.185-.021c.287,0,.308.841.308,1.272v.246c0,.534-.022.759-.432.862a49.144,49.144,0,0,1-5.644.328,7.681,7.681,0,0,1-4.205-.881,3.61,3.61,0,0,1-1.888-3.159c0-2.238,1.846-3.7,3.551-4.8a.636.636,0,0,0,.349-.532.693.693,0,0,0-.083-.369c-.245-.739-.818-2.914-1.024-3.756a12.7,12.7,0,0,0-.391-1.355,1.162,1.162,0,0,1-.06-.245C1721.5-85.036,1722.179-85.036,1722.835-85.138Z" transform="translate(-1624.39 86.145)" fill="#fff"/>
      <path id="パス_679" data-name="パス 679" d="M1742.315-84.924c0,.1-.082.163-.185.226-.286.142-.43.164-.718.9-.185.493-.349,1.006-.513,1.5a.729.729,0,0,0-.06.289c0,.349.266.43.554.471.7.083,1.395.144,2.092.164.39,0,.7-.021.7.39a6.069,6.069,0,0,1-.226,1.335c-.082.286-.165.45-.453.45a25.761,25.761,0,0,1-2.79-.308.59.59,0,0,0-.184-.04c-.33,0-.475.226-.555.493-.062.246-.348,1.538-.348,1.7,0,.43.428.452.716.471.616.062,1.231.082,1.847.082.554,0,.617.144.617.349a4.533,4.533,0,0,1-.268,1.375c-.1.308-.226.471-.574.471-.471,0-1.435-.142-1.928-.2a2.191,2.191,0,0,0-.328-.041c-.554,0-.554.513-.554,1.4a2.438,2.438,0,0,0,2.729,2.727,4.368,4.368,0,0,0,2.976-.965,2.063,2.063,0,0,0,.452-1.457,8.864,8.864,0,0,0-.7-2.975,1.075,1.075,0,0,1-.082-.369c0-.493,1.519-.759,1.744-.759.328,0,.39.327.554.78a11.245,11.245,0,0,1,.677,3.59c0,3.181-2.936,4.291-5.665,4.291-3.1,0-4.923-1.786-4.923-4.905,0-.512.082-1.293.082-1.5,0-.452-.349-.573-.822-.718a6.845,6.845,0,0,1-1.211-.491c-.225-.123-.389-.226-.389-.493,0-.123.205-1.743.718-1.743a1.107,1.107,0,0,1,.513.2,3.711,3.711,0,0,0,1.313.573c.349,0,.409-.286.534-.881.04-.226.122-.494.183-.8a3.761,3.761,0,0,0,.084-.452c0-.452-.369-.575-.657-.677-1.437-.554-1.848-.739-1.848-1.108,0-.349.329-1.765.759-1.765a1.126,1.126,0,0,1,.473.226,12.8,12.8,0,0,0,1.395.718.637.637,0,0,0,.268.062c.327,0,.411-.267.471-.493.186-.7.638-2.155.8-2.749.06-.227.1-.41.307-.41a7.715,7.715,0,0,1,1.025.327C1741.268-85.54,1742.315-85.252,1742.315-84.924Z" transform="translate(-1621.194 85.99)" fill="#fff"/>
      <path id="パス_680" data-name="パス 680" d="M1642.528-51.419c.268,0,.328.186.371.41.43,2.155,2.154,2.463,4.083,2.463a24.9,24.9,0,0,0,6.137-.718,1.531,1.531,0,0,1,.307-.062c.349,0,.349.41.391.676.019.205.061.821.061,1.026a.67.67,0,0,1-.513.739,35.187,35.187,0,0,1-6.157.6c-2.135,0-4.433-.286-5.745-2.154a4.547,4.547,0,0,1-.8-1.99C1640.66-50.945,1642.507-51.419,1642.528-51.419Zm1.315-7.777a13.138,13.138,0,0,0,3.9.513,17.779,17.779,0,0,0,3.305-.33,1.225,1.225,0,0,1,.266-.019c.472,0,.513.759.513,1.641,0,.513-.061.636-.451.7a26.227,26.227,0,0,1-3.118.186,20.206,20.206,0,0,1-5.377-.6.484.484,0,0,1-.327-.431c0-.226.144-.821.184-1.067.082-.368.123-.718.492-.718A2.975,2.975,0,0,1,1643.842-59.2Zm11.369.861c0,.308-.718.925-.985.925-.123,0-.246-.165-.492-.473-.39-.452-.82-.9-1.252-1.334-.062-.06-.205-.185-.205-.287,0-.246.781-.862.986-.862A7.684,7.684,0,0,1,1655.211-58.335Zm1.868-1.6c0,.308-.718.944-.985.944-.123,0-.308-.246-.534-.513-.39-.471-.8-.881-1.211-1.314-.081-.062-.205-.184-.205-.266,0-.267.781-.862,1.006-.862A8.178,8.178,0,0,1,1657.079-59.936Z" transform="translate(-1640.66 90.973)" fill="#fff"/>
      <path id="パス_681" data-name="パス 681" d="M1661.789-52.37c-.1,0-.144.1-.144.186v4.863c0,.965.059,1.929.059,2.9,0,.614-.226.635-1.066.635-.821,0-1.048-.021-1.048-.616,0-.965.042-1.929.043-2.914v-4.473c0-.041-.022-.1-.083-.1a.088.088,0,0,0-.081.062,18.558,18.558,0,0,1-1.7,3.714c-.124.185-.205.371-.452.371-.391,0-1.252-.718-1.252-1.129a1.325,1.325,0,0,1,.307-.636,25.043,25.043,0,0,0,2.751-6.2c0-.062.02-.123.02-.164,0-.287-.2-.39-.45-.39h-.041c-.594,0-1.191.062-1.6.063-.473,0-.45-.308-.45-1.026,0-.759-.022-1.026.471-1.026.432,0,.986.041,1.58.041h.412c.41,0,.573-.165.573-.576v-1.56a10.456,10.456,0,0,0-.06-1.394.548.548,0,0,1-.022-.185c0-.247.164-.289.349-.289.267,0,1.438.124,1.746.165.163.021.452.04.452.267,0,.122-.083.163-.227.287-.206.164-.225.554-.225,1.148v1.56c0,.41.183.576.573.575h.205c.6,0,1.149-.041,1.58-.041.493,0,.472.267.472,1.026,0,.718.019,1.026-.453,1.026-.411,0-1-.062-1.6-.062h-.205c-.39,0-.555.164-.575.554a.6.6,0,0,0,.144.452,27.86,27.86,0,0,0,2.5,3.1c.123.123.308.289.308.452a1.812,1.812,0,0,1-1.149,1.17.538.538,0,0,1-.41-.287,13.09,13.09,0,0,1-1.109-1.456A.206.206,0,0,0,1661.789-52.37Zm10.013,7.428c0-.328-.145-.472-.473-.472h-3.508c-.329,0-.472.144-.472.472v.267c0,.575-.205.575-1.026.576s-1.067,0-1.067-.576c0-.8.041-1.579.042-2.38V-58.2c0-.614-.02-1.23-.02-1.866,0-.739.2-.985.964-.985.472,0,.943.021,1.416.021h3.857c.451,0,.924-.022,1.375-.022.76,0,1.006.205,1.006.985,0,.616-.041,1.252-.041,1.866v11.144c0,.8.04,1.6.04,2.4,0,.554-.246.554-1.047.554-.718,0-1.045.021-1.045-.513Zm-4.493-7.716a.586.586,0,0,0,.574.575h3.385a.574.574,0,0,0,.576-.575v-1.6c-.041-.349-.205-.554-.576-.554h-3.385a.543.543,0,0,0-.574.554Zm0,4.8a.585.585,0,0,0,.574.573h3.385a.573.573,0,0,0,.576-.573v-1.868a.575.575,0,0,0-.576-.576h-3.385a.587.587,0,0,0-.574.576Zm3.961-8.743a.561.561,0,0,0,.576-.575v-1.375a.572.572,0,0,0-.576-.573h-3.386a.584.584,0,0,0-.573.573v1.375a.572.572,0,0,0,.573.575Z" transform="translate(-1637.468 90.917)" fill="#fff"/>
      <path id="パス_682" data-name="パス 682" d="M1681.875-57.615c-.122,0-.183.082-.224.185-.022.205-.1.308-.473.308-.554,0-1.128-.041-1.7-.041h-2.75c-.575,0-1.149.04-1.724.04-.513,0-.492-.205-.492-.862,0-.635,0-.84.492-.84.575,0,1.149.019,1.724.019h2.75c.575,0,1.148-.021,1.724-.021.164,0,.349,0,.43.185a.165.165,0,0,0,.124.1c.019,0,.062.019.1-.062a11.777,11.777,0,0,0,.779-2.155c.062-.205.083-.39.349-.39a4.129,4.129,0,0,1,.842.163c.615.164,1.066.289,1.066.513,0,.165-.226.227-.349.246-.163.062-.224.267-.349.637a16.971,16.971,0,0,1-.861,2.072.434.434,0,0,1-.39.247,2.989,2.989,0,0,1-.965-.328C1681.936-57.594,1681.917-57.615,1681.875-57.615Zm-3.039,12.7h-1.211c-.452,0-.554.041-.554.452v.144c0,.513-.164.493-.862.493-.657,0-.881.021-.881-.452,0-.493.04-.985.04-1.476v-2.873c0-.308-.021-.637-.021-.944,0-.637.205-.945.862-.945.267,0,.534.042.821.042h2.217c.266,0,.534-.042.8-.042.676,0,.882.289.882.945,0,.307-.021.615-.021.943v2.3c0,.513.041,1.006.041,1.519,0,.452-.186.493-.884.493-.615,0-.759-.063-.82-.226C1679.144-44.748,1679.082-44.912,1678.836-44.912Zm-1.6-6.711c-.533,0-1.006.042-1.354.042-.493,0-.472-.226-.472-.841,0-.6-.021-.821.452-.821.287,0,.862.041,1.375.041H1679c.535,0,1.108-.041,1.376-.041.472,0,.472.225.472.82,0,.616,0,.843-.472.843-.412,0-.822-.042-1.376-.042Zm.021-2.769c-.554,0-1.108.041-1.375.041-.472,0-.452-.226-.452-.862,0-.616-.021-.84.452-.84.287,0,.841.04,1.375.04h1.765c.532,0,1.087-.041,1.375-.041.471,0,.451.226.451.841,0,.635.019.862-.451.862-.289,0-.821-.042-1.375-.042Zm.083-5.54c-.492,0-.985.041-1.457.041s-.452-.227-.452-.841c0-.637-.021-.862.472-.862.411,0,.924.041,1.437.041h1.642c.513,0,1.025-.041,1.435-.041.474,0,.474.226.474.863,0,.614.02.84-.452.84-.493,0-.965-.041-1.457-.041Zm1.887,11.634c-.041-.349-.205-.554-.576-.554h-1.025c-.369,0-.533.205-.575.554v1.211a.573.573,0,0,0,.573.576h1.025a.576.576,0,0,0,.577-.575Zm7.591-.206a.248.248,0,0,0-.224.164,8.52,8.52,0,0,1-3.408,3.941,1.983,1.983,0,0,1-.738.391c-.412,0-1.4-1.027-1.4-1.437,0-.164.122-.246.266-.328a9.193,9.193,0,0,0,3.037-2.526c1.335-1.765,1.479-3.159,1.479-5.314,0-.287.081-.41.389-.41.205,0,1.19.082,1.4.1.287.041.657.04.657.267,0,.122-.164.226-.246.287a.332.332,0,0,0-.205.349c0,.41-.041.84-.041,1.252a4.324,4.324,0,0,0,.041.513,6.294,6.294,0,0,0,1.724,3.2,12.96,12.96,0,0,0,2.954,2.422c.183.1.37.205.37.348,0,.412-.924,1.4-1.375,1.4-.287,0-.965-.535-1.19-.718a11.794,11.794,0,0,1-3.261-3.735C1686.983-48.421,1686.921-48.5,1686.818-48.5Zm-4.493-4.473c-.39,0-1.271-1.087-1.271-1.457,0-.225.225-.286.493-.389a8.507,8.507,0,0,0,3.467-2.731c.925-1.271.883-2.668.883-4.186,0-.289.082-.431.391-.431.225,0,1.211.1,1.477.123.226.041.6.04.6.266,0,.123-.185.226-.287.289-.144.082-.164.163-.185.327,0,.371-.021.739-.021,1.108a.7.7,0,0,0-.021.205,2.353,2.353,0,0,0,.062.534c.575,2.318,2.768,3.775,4.7,4.945.226.124.286.206.286.309,0,.389-.738,1.416-1.169,1.416a6.068,6.068,0,0,1-1.457-.862,9.65,9.65,0,0,1-3.16-3.345.277.277,0,0,0-.226-.144.231.231,0,0,0-.226.144C1685.71-54.866,1682.922-52.978,1682.325-52.978Zm2.113,1.334c-.287.041-.349.185-.452.513-.163.493-.613,1.579-.818,2.011-.1.164-.205.287-.411.287-.227,0-1.416-.226-1.416-.677a.935.935,0,0,1,.164-.39,10.544,10.544,0,0,0,.881-2.175c.063-.185.1-.409.349-.409.062,0,.371.081.473.1.245.062,1.434.307,1.434.575C1684.643-51.705,1684.521-51.664,1684.438-51.644Zm7.78-8.866c.144.062.43.164.43.328,0,.123-.122.164-.205.185a.577.577,0,0,0-.452.287,17.3,17.3,0,0,1-1.477,2.011c-.145.164-.287.369-.513.369-.287,0-1.4-.472-1.4-.841,0-.145.185-.349.287-.452a15.17,15.17,0,0,0,1.56-2.2c.062-.123.122-.246.267-.246A10.421,10.421,0,0,1,1692.217-60.51Zm.06,9.091c-.248.021-.289.062-.411.267a19.226,19.226,0,0,1-1.416,1.95.585.585,0,0,1-.451.267c-.287,0-1.375-.532-1.375-.9,0-.164.164-.328.328-.513a12.294,12.294,0,0,0,1.375-1.929c.061-.123.123-.226.245-.226a5.243,5.243,0,0,1,.945.328c.266.1.534.205.657.247s.349.144.349.307C1692.524-51.541,1692.462-51.438,1692.278-51.419Z" transform="translate(-1633.645 90.927)" fill="#fff"/>
      <path id="パス_683" data-name="パス 683" d="M1703.582-59.265c0,.206-.287.185-.431.185a.925.925,0,0,0-.554.246q-.769.554-1.539,1.17c-1.148.944-2.32,1.889-3.388,2.914-.389.371-.84.781-.84,1.171,0,.513.676,1.251,1.025,1.621,1.17,1.251,2.442,2.4,3.716,3.529.348.307,1.761,1.457,1.761,1.866,0,.494-1.251,1.662-1.743,1.662-.226,0-.513-.368-.636-.534-.78-.924-1.641-1.786-2.482-2.646-1.108-1.108-2.236-2.215-3.241-3.407a3.12,3.12,0,0,1-.986-2.174,2.332,2.332,0,0,1,.451-1.416,20.053,20.053,0,0,1,2.65-2.4,28.11,28.11,0,0,0,3.837-3.631c.082-.1.185-.246.308-.246.267,0,.862.7,1.088.922C1702.761-60.249,1703.582-59.491,1703.582-59.265Z" transform="translate(-1629.554 91.096)" fill="#fff"/>
      <path id="パス_684" data-name="パス 684" d="M1715.075-61.6c.185.062.759.205.759.431,0,.1-.122.165-.184.205-.308.185-.329.267-.473.718-.062.226-.491,1.724-.491,1.827a.3.3,0,0,0,.308.308,14.365,14.365,0,0,0,2.38-.761,1.112,1.112,0,0,1,.431-.1c.412,0,.412,1.252.412,1.56,0,.349-.041.636-.391.739a30.85,30.85,0,0,1-3.367.8c-.6.123-.657.226-.84.8a63.89,63.89,0,0,1-3.819,9.051c-.267.491-.431.779-.739.779-.328,0-1.744-.657-1.744-1.108a1.513,1.513,0,0,1,.35-.676,40.447,40.447,0,0,0,3.632-7.594,3.26,3.26,0,0,0,.164-.535c0-.205-.164-.308-.37-.307-.287,0-1.19.1-1.827.1-.41,0-.739.021-.862-.368a8.858,8.858,0,0,1-.163-1.5c0-.226.062-.368.308-.368.185,0,1.047.081,1.929.081,1.312,0,1.62-.021,1.806-.328a18.808,18.808,0,0,0,.759-3.735c.02-.308.02-.513.226-.513C1713.454-62.09,1714.808-61.68,1715.075-61.6Zm-.287,13.236a4.963,4.963,0,0,0,3.714,1.19,9.236,9.236,0,0,0,2.914-.412.727.727,0,0,1,.205-.04c.349,0,.349.471.348,1.292,0,.41.021.883-.226,1.025a19.48,19.48,0,0,1-3.2.268,8.7,8.7,0,0,1-4.391-.922c-.328-.226-1.006-.739-1-1.17,0-.308.944-1.519,1.271-1.519C1714.561-48.648,1714.706-48.464,1714.788-48.361Zm2.5-6.629a14.718,14.718,0,0,1,4.125.575.385.385,0,0,1,.287.409,5.155,5.155,0,0,1-.39,1.438c-.082.184-.164.267-.37.267a1.644,1.644,0,0,1-.431-.1,8.775,8.775,0,0,0-3.263-.513c-.267,0-.513.021-.78.021-.409,0-.512-.1-.512-.452C1715.958-55.113,1716.326-54.99,1717.29-54.99Zm4.208-3.427c0,.308-.758.9-1.006.9-.123,0-.2-.122-.287-.225a17.9,17.9,0,0,0-1.416-1.643c-.06-.06-.185-.184-.185-.286,0-.268.822-.822,1.006-.822A7.919,7.919,0,0,1,1721.5-58.418Zm2.135-1.314c0,.308-.76.924-1.006.924-.124,0-.226-.144-.308-.246A17.6,17.6,0,0,0,1720.9-60.7c-.06-.06-.163-.163-.163-.266,0-.246.758-.843,1-.843A7.938,7.938,0,0,1,1723.633-59.731Z" transform="translate(-1626.845 90.944)" fill="#fff"/>
      <path id="パス_685" data-name="パス 685" d="M1730.91-61.3c.451.779.842,1.579,1.271,2.38a.6.6,0,0,0,.554.39,9.423,9.423,0,0,0,2.237-1.108,1.218,1.218,0,0,1,.554-.246c.411,0,1.313,1.23,1.313,1.6,0,.225-.349.389-.616.532a15.8,15.8,0,0,1-1.888.884c-.267.1-.677.183-.679.554a1.587,1.587,0,0,0,.349.779,23.549,23.549,0,0,0,2.976,4.515.964.964,0,0,1,.328.573c0,.452-1.026,1.356-1.457,1.356-.226,0-.534-.268-.78-.431a9.852,9.852,0,0,0-4.864-1.723,2,2,0,0,0-2.195,1.825c0,2.114,3.139,2.545,4.718,2.545.472,0,.883-.041,1.149-.041.411,0,.472.287.472.657a3.809,3.809,0,0,1-.206,1.252c-.1.266-.267.349-.7.349a15.723,15.723,0,0,1-3.53-.472c-2.133-.534-4.062-1.765-4.061-4.187,0-2.441,2.032-3.92,4.33-3.92a6.512,6.512,0,0,1,2.564.6.735.735,0,0,0,.226.062.207.207,0,0,0,.226-.185.806.806,0,0,0-.123-.308c-.452-.7-.78-1.251-1.19-1.99-.184-.328-.327-.718-.78-.718a1.258,1.258,0,0,0-.266.062,28.577,28.577,0,0,1-4.865.78c-.452,0-.554-.164-.738-.739a3.961,3.961,0,0,1-.245-1.088c0-.328.226-.349.493-.368a22.85,22.85,0,0,0,4.1-.453c.225-.062.492-.123.492-.41a14.012,14.012,0,0,0-1.541-2.5.688.688,0,0,1-.144-.328c0-.41,1.7-.841,1.992-.841S1730.785-61.523,1730.91-61.3Z" transform="translate(-1623.18 91.031)" fill="#fff"/>
      <path id="パス_686" data-name="パス 686" d="M1743.111-58.684c.164.041.451.083.451.289,0,.122-.082.163-.205.266-.286.227-.308.637-.37.986a15.1,15.1,0,0,0-.164,2.174,11.722,11.722,0,0,0,.656,4.289c.248.575.924,1.786,1.642,1.786.575,0,1.171-.9,1.416-1.355.123-.205.287-.513.554-.513.431,0,1.478.84,1.478,1.211,0,.389-.924,1.456-1.211,1.784a2.957,2.957,0,0,1-2.2,1.293c-1.519,0-2.707-1.374-3.385-2.626a14.824,14.824,0,0,1-1.189-6.691c0-.328.063-2.935.1-3.118a.254.254,0,0,1,.286-.227C1741.243-59.136,1742.762-58.746,1743.111-58.684Zm8.352-.412c.452,0,2.174,1.294,3.158,3.181a11.174,11.174,0,0,1,1.211,4.268c0,.391-.205.494-.554.6a4.328,4.328,0,0,1-1.148.185c-.656,0-.637-.287-.678-.78a7.869,7.869,0,0,0-3.035-5.848.34.34,0,0,1-.185-.308C1750.231-58.192,1751.052-59.1,1751.463-59.1Z" transform="translate(-1619.949 91.556)" fill="#fff"/>
      <path id="パス_687" data-name="パス 687" d="M1760.023-46.935a1.511,1.511,0,0,1-1.6,1.579,1.332,1.332,0,0,1-1.416-1.355,1.535,1.535,0,0,1,1.582-1.641A1.372,1.372,0,0,1,1760.023-46.935Zm-1.845-3.017c-.514,0-.617-.1-.638-.616l-.144-5.192c-.04-1.23-.182-3.982-.182-4.392,0-.349.122-.43.573-.43h1.436c.452,0,.575.081.575.43,0,.41-.144,3.162-.186,4.516l-.123,5.068c-.021.513-.123.616-.636.616Z" transform="translate(-1616.546 91.256)" fill="#fff"/>
    </g>
  </g>
</svg>
