<svg xmlns="http://www.w3.org/2000/svg" width="100" height="50" viewBox="0 0 100 50">
  <g id="homeText1" transform="translate(-1596.617 -2564.085)">
    <path id="パス_376" data-name="パス 376" d="M1612.978,2613.163a2.611,2.611,0,0,1-1.93.743h-.059a2.955,2.955,0,0,1-3.148-2.556q-1.188-5.469-2.138-9.958t-1.752-8.2q-.8-3.716-1.485-6.868t-1.276-5.945q.117,5.053.118,10.256v20.9a2.337,2.337,0,0,1-.653,1.725,2.255,2.255,0,0,1-1.663.653,2.244,2.244,0,0,1-2.375-2.378v-44.054a3.142,3.142,0,0,1,.89-2.319,3.292,3.292,0,0,1,2.436-.891,3.665,3.665,0,0,1,2.464.743,3.344,3.344,0,0,1,1.1,1.931q1.068,6.064,1.871,10.613t1.485,8.145q.681,3.6,1.217,6.57t1.069,5.945q-.12-4.281-.119-8.383v-23.246a2.256,2.256,0,0,1,.653-1.665,2.326,2.326,0,0,1,1.722-.653,2.236,2.236,0,0,1,2.317,2.318v44.649A2.614,2.614,0,0,1,1612.978,2613.163Z" fill="#172e59"/>
    <path id="パス_377" data-name="パス 377" d="M1636.549,2610.815a2.558,2.558,0,0,1-2.732,2.735h-7.839a3.068,3.068,0,0,1-3.266-3.27v-42.39a3.067,3.067,0,0,1,3.266-3.27h7.543a2.641,2.641,0,0,1,2.731,2.734,2.735,2.735,0,0,1-.771,2.022,2.653,2.653,0,0,1-1.96.773h-5.346v15.7h2.97q2.553,0,2.554,2.735,0,2.795-2.554,2.794h-2.97v16.706h5.642a2.557,2.557,0,0,1,2.732,2.735Z" fill="#172e59"/>
    <path id="パス_378" data-name="パス 378" d="M1667.875,2566.7a2.425,2.425,0,0,1,2.553-2.437,3.226,3.226,0,0,1,2.079.772,2.612,2.612,0,0,1,.95,2.141q0,.416-.178,1.9l-4.929,41.974a3.172,3.172,0,0,1-.98,2.021,3.585,3.585,0,0,1-2.584.832,3.689,3.689,0,0,1-2.553-.8,3.166,3.166,0,0,1-1.01-2.17l-2.732-31.629-3.088,31.629a3.169,3.169,0,0,1-1.01,2.17,4.514,4.514,0,0,1-5.137,0,3.166,3.166,0,0,1-.98-2.111L1644,2569.079q-.177-1.485-.178-1.9a2.612,2.612,0,0,1,.95-2.141,3.223,3.223,0,0,1,2.079-.772,2.639,2.639,0,0,1,1.693.594,2.557,2.557,0,0,1,.861,1.843l2.85,34.542,3.564-34.423a2.575,2.575,0,0,1,2.85-2.556,2.687,2.687,0,0,1,2.792,2.556l3.088,34.423Z" fill="#172e59"/>
    <path id="パス_379" data-name="パス 379" d="M1691.153,2599.043a7.992,7.992,0,0,0-.356-2.646,9.011,9.011,0,0,0-1.366-2.289q-.594-.771-1.544-1.872t-1.931-2.289q-.98-1.189-1.9-2.319a22.011,22.011,0,0,1-1.455-1.962,8.734,8.734,0,0,1-1.158-2.675,15.494,15.494,0,0,1-.327-3.508v-7.312q0-8.085,7.9-8.086,4.038,0,5.731,1.992t1.693,6.094v6.718a2.557,2.557,0,1,1-5.108,0v-6.659a3.107,3.107,0,0,0-.534-1.9,2.086,2.086,0,0,0-1.782-.713q-2.316,0-2.316,2.557v7.253a7.97,7.97,0,0,0,.178,1.783,4.045,4.045,0,0,0,.772,1.546,14.231,14.231,0,0,0,1.307,1.665q.891,1.013,1.9,2.17t1.989,2.378q.981,1.219,1.693,2.229a11.388,11.388,0,0,1,.98,1.635,9.684,9.684,0,0,1,.624,1.695,13.5,13.5,0,0,1,.356,1.962,22.971,22.971,0,0,1,.119,2.5V2606a8.885,8.885,0,0,1-1.811,6q-1.813,2.082-5.91,2.081t-5.938-2.081a8.782,8.782,0,0,1-1.842-6v-8.145a2.514,2.514,0,0,1,.743-1.9,2.669,2.669,0,0,1,1.93-.714,2.455,2.455,0,0,1,2.613,2.616V2606a2.971,2.971,0,0,0,.564,1.9,2.169,2.169,0,0,0,1.811.714q2.376,0,2.376-2.616Z" fill="#172e59"/>
  </g>
</svg>
