<svg xmlns="http://www.w3.org/2000/svg" width="280" height="136" viewBox="0 0 280 136">
  <g id="homeText1-sp" transform="translate(-1193.491 -985.854)">
    <path id="パス_3110" data-name="パス 3110" d="M1579.9,1145.459a.949.949,0,0,0-.753-.247c-.734,0-1.467.028-2.177.055-.693.026-1.409.054-2.107.054h-8.151a.738.738,0,0,1-.543-.156.748.748,0,0,1-.143-.545c.17-1.252.285-2.509.395-3.724.088-.966.179-1.965.3-2.952a1.015,1.015,0,0,1,.555-.969.784.784,0,0,0,.412-.552c.05-.571-.611-.667-.835-.7-.642-.072-2.778-.255-3.407-.255-.245,0-.99,0-1.058.773a.833.833,0,0,0,.015.311,28.3,28.3,0,0,1-.165,3.057l-.133,1.522c-.1,1.136-.235,2.277-.4,3.385-.116.617-.333.805-.928.805h-8.079c-.7,0-1.416-.028-2.107-.055s-1.412-.054-2.123-.054c-1.065,0-1.118.612-1.234,1.953l-.027.317c-.08.9-.125,1.4.152,1.7a.982.982,0,0,0,.777.252c.708,0,1.418-.019,2.127-.037s1.413-.036,2.117-.036h7.572a.63.63,0,0,1,.448.137.412.412,0,0,1,.078.321l-.02.227c-2.133,6.123-6.554,10.6-13.521,13.691a2.089,2.089,0,0,1-.263.108c-.4.19-.94.45-.989,1.005a5.3,5.3,0,0,0,1.067,2.853,1,1,0,0,0,.728.383,3.545,3.545,0,0,0,1.366-.439.493.493,0,0,0,.175-.066l.044-.023a29.766,29.766,0,0,0,13.874-13.151c.1-.122.173-.195.246-.195.051,0,.1.01.145.122a26.03,26.03,0,0,0,8.616,11.64c.025.021,2.7,2.111,3.5,2.111,1.01,0,2.52-2.157,2.59-2.946a.979.979,0,0,0-.623-.974l-.1-.062a23.253,23.253,0,0,1-11.107-14.077,1.179,1.179,0,0,0-.006-.134.686.686,0,0,1,0-.148c.017-.2.124-.343.565-.387h7.789c.7,0,1.408.018,2.111.036s1.413.037,2.121.037c1.071,0,1.118-.561,1.22-1.788l.05-.579C1580.126,1146.249,1580.171,1145.753,1579.9,1145.459Z" transform="translate(-146.851 -66.414)" fill="#172e59"/>
    <g id="グループ_3750" data-name="グループ 3750" transform="translate(1244.68 1071.51)">
      <path id="パス_3111" data-name="パス 3111" d="M1292.842,1143.147c.056.033.111.065.17.1a24.446,24.446,0,0,1,4.056,2.908c.057.045.121.106.191.17a1.632,1.632,0,0,0,.976.563c.881,0,2.514-2.243,2.571-2.9.047-.538-.862-1.215-2.243-2.066l-.186-.115-.338-.222a13.574,13.574,0,0,0-3.505-1.979c-.958,0-2.3,2.17-2.347,2.7C1292.15,1142.744,1292.534,1142.967,1292.842,1143.147Z" transform="translate(-1285.799 -1139.606)" fill="#172e59"/>
      <path id="パス_3112" data-name="パス 3112" d="M1301.11,1158.578a7.275,7.275,0,0,0-5.475-2.184c-3.437,0-5.784,1.554-8.274,3.2a.7.7,0,0,1-.35.17c-.05,0-.066-.017-.072-.024a.244.244,0,0,1-.036-.171,3.619,3.619,0,0,1,.117-.524l.041-.158c.32-1.047.584-2.123.839-3.162.134-.546.267-1.089.407-1.625l.031-.106c.173-.607.238-.833.7-1.11a.7.7,0,0,0,.456-.542c.034-.383-.343-.537-.594-.64l-.1-.043-.013-.006a23.031,23.031,0,0,0-3.495-.976c-.77,0-.838.787-.918,1.7-.01.112-.027.224-.045.34-.021.133-.042.27-.055.408a56.973,56.973,0,0,1-1.477,7.475c-.28,1.041-.644,2.17-1.08,3.352-.038.1-.09.213-.144.333a3.263,3.263,0,0,0-.318.927.867.867,0,0,0,.249.677,4.442,4.442,0,0,0,2.449.883,1.646,1.646,0,0,0,1.2-.736l.047-.054c2.43-2.746,6.276-5.68,9.782-5.68a3.852,3.852,0,0,1,2.9,1.1,2.963,2.963,0,0,1,.711,2.328c-.247,2.823-2.789,3.825-5.244,4.434a23.781,23.781,0,0,1-4.6.682c-.437.034-1.036.08-1.1.8a6.954,6.954,0,0,0,.4,2.327c.262.679.486,1.092,1.376,1.092a25.373,25.373,0,0,0,4.612-.936c3.793-1.1,8.207-3.045,8.673-8.366A6.606,6.606,0,0,0,1301.11,1158.578Z" transform="translate(-1281.253 -1144.211)" fill="#172e59"/>
    </g>
    <path id="パス_3113" data-name="パス 3113" d="M1349.716,1156.622a3.615,3.615,0,0,0-1.952-1.259c-.635,0-.81.649-.951,1.17l-.032.121a11.772,11.772,0,0,1-2.5,5.006,9.436,9.436,0,0,1-6.612,3.27,2.675,2.675,0,0,1-2.1-.792c-1.156-1.262-.931-3.824-.766-5.693l.012-.144c.3-3.456,1.569-12.875,2.641-13.624.04-.03.079-.059.117-.086a.8.8,0,0,0,.418-.571c.037-.417-.405-.634-.8-.7a27.53,27.53,0,0,0-3.861-.83c-.7,0-.753.6-.791,1.044l-.033.378c-.085.971-.406,2.9-.664,4.449-.116.7-.224,1.35-.3,1.833-.444,2.712-.788,5.461-1.026,8.171-.232,2.65-.321,5.959,1.063,8.047a7.135,7.135,0,0,0,5.991,2.736,13.565,13.565,0,0,0,11.208-6.667,14.028,14.028,0,0,0,1.794-4.115A2.742,2.742,0,0,0,1349.716,1156.622Z" transform="translate(-57.049 -69.297)" fill="#172e59"/>
    <path id="パス_3114" data-name="パス 3114" d="M1597.233,1054.7h0a10.959,10.959,0,0,0-8.416-3.334,15.384,15.384,0,0,0-15.123,14.057,10.02,10.02,0,0,0,.63,4.788,4.925,4.925,0,0,0,4.4,3.255c1.58,0,3.126-.853,4.728-2.607,3.646-3.953,5.281-10.126,6.011-14.611l.013-.086c.089-.627.187-1.038.7-1.038a5.153,5.153,0,0,1,1.165.286c3.077,1.1,4.79,4.049,4.47,7.7-.368,4.209-3.407,7.279-8.331,8.421l-.083.016c-.359.067-.9.17-.939.619a4.2,4.2,0,0,0,1.128,2.38,1.517,1.517,0,0,0,1.035.606,14.366,14.366,0,0,0,3.806-1.343,13.5,13.5,0,0,0,7.484-10.83A10.439,10.439,0,0,0,1597.233,1054.7Zm-11.643,1.3a34.934,34.934,0,0,1-1.611,6.4c-1.231,3.4-3.356,7.011-4.872,7.011a1.028,1.028,0,0,1-.792-.362c-.724-.791-.849-2.661-.757-3.725a11.272,11.272,0,0,1,6.671-9.359l0,0a3.933,3.933,0,0,1,1.072-.345.276.276,0,0,1,.214.075A.41.41,0,0,1,1585.59,1056.006Z" transform="translate(-158.48 -27.309)" fill="#172e59"/>
    <path id="パス_3115" data-name="パス 3115" d="M1399.841,1149.986c-.359-.391-.812-.16-1.218.036-.079.038-.153.074-.234.109a35.4,35.4,0,0,1-4.1,1.937c-.127,0-.215-.029-.266-.408-.266-2.234-1.489-3.274-3.852-3.274a10.184,10.184,0,0,0-3.929.92,1.227,1.227,0,0,1-.538.181c-.029,0-.051-.019-.055-.012a14.271,14.271,0,0,1,1.294-1.888,1.149,1.149,0,0,1,.954-.487c1.971-.217,4.135-.567,6.613-1.069l.222-.04c.794-.142,1.781-.319,1.841-1a10.7,10.7,0,0,0-.114-1.9c-.046-.362-.152-1.208-.969-1.208a2.894,2.894,0,0,0-.94.216,26.562,26.562,0,0,1-4.014.954.186.186,0,0,1-.132-.037.127.127,0,0,1-.017-.089,2.012,2.012,0,0,1,.382-.7c.52-.8.637-.909,1.142-1.092.351-.135.555-.342.577-.583a.5.5,0,0,0-.165-.372,12.281,12.281,0,0,0-3.705-1.946c-.5,0-.64.5-.736.861a20.873,20.873,0,0,1-2.21,4.373c-.314.375-1.423.375-2.019.375h-1c-.561,0-1.085-.022-1.547-.041-.355-.014-.669-.028-.925-.028-1.035,0-1.215.377-1.337,1.766-.1,1.1-.1,1.639.162,1.92a.981.981,0,0,0,.764.226c.627,0,1.171-.036,1.608-.065.315-.02.587-.039.81-.039.371,0,.474.068.5.1.008.009.026.028.021.093-.117.636-5.449,7.3-6.468,8.316l-.082.087a1.465,1.465,0,0,0-.484.788.963.963,0,0,0,.333.685,5.617,5.617,0,0,0,2.618,1.529.827.827,0,0,0,.679-.433,25.38,25.38,0,0,1,3.214-3.992c1.431-1.347,4.678-2.974,6.563-2.974a1.1,1.1,0,0,1,1.214,1.009,4.407,4.407,0,0,1,.085.907c-.023.268-.18.438-.573.626-.812.372-1.569.757-2.248,1.143-2.648,1.5-5.256,3.219-5.531,6.352a4.924,4.924,0,0,0,3.129,5.122,12.521,12.521,0,0,0,5.442.912,46.733,46.733,0,0,0,6.691-.452c.914-.2.988-.629,1.078-1.658.123-1.406.064-2.07-.209-2.367s-.8-.186-1.216-.117a25.918,25.918,0,0,1-6.429.854c-2.648,0-3.736-.581-4.183-1.068a1.519,1.519,0,0,1-.388-1.225c.172-1.971,3.612-3.417,3.835-3.465.1,0,.132.034.143.045a.461.461,0,0,1,.054.321c-.031.355-.079.718-.128,1.085s-.1.766-.136,1.151a.993.993,0,0,0,.206.8c.33.36.979.386,2.009.386,1.415,0,1.685-.233,1.8-1.56.047-.534.084-1.06.122-1.586s.075-1.047.121-1.58l.039-.448c.05-.571.25-.734.872-.968,1.364-.573,2.775-1.166,4.2-1.684.072-.028.143-.049.212-.071a1.759,1.759,0,0,0,.272-.1c.639-.2,1.19-.366,1.239-.931A6.638,6.638,0,0,0,1399.841,1149.986Z" transform="translate(-75.924 -67.526)" fill="#172e59"/>
    <g id="グループ_3554" data-name="グループ 3554" transform="translate(1246.855 1008.226)">
      <path id="パス_2911" data-name="パス 2911" d="M1333.639,1060.029c-.991,0-1.232.906-1.486,1.866l-.051.191c-1.231,4.811-1.821,4.811-4.312,4.811h-6.86c-2.1,0-2.361-.081-2.176-2.187l1.756-20.1c.08-.919.182-1.7.621-2l.155-.1a.98.98,0,0,0,.579-.75c.058-.664-.687-.772-.95-.81-.661-.047-3.867-.231-4.463-.231a1,1,0,0,0-1.153.823c0,.026-.008.052-.01.078a1.88,1.88,0,0,0,0,.544,27.879,27.879,0,0,1-.171,3.513l-1.595,18.255c-.054.6-.116,1.2-.179,1.793s-.128,1.2-.181,1.8c-.344,3.946,2.774,4.451,5.53,4.451h10.451c2.236,0,3.854,0,5.407-2.393.819-1.317,2.73-5.617,2.855-7.037C1337.575,1060.575,1334.046,1060.029,1333.639,1060.029Z" transform="translate(-1296.699 -1031.078)" fill="#ed3242"/>
      <path id="パス_2913" data-name="パス 2913" d="M1323.759,1028.336l.071.05a53.7,53.7,0,0,1,7.78,6.573c.046.043.1.095.16.155.473.461.932.875,1.344.875,1.162,0,3.278-1.921,3.378-3.068a1.223,1.223,0,0,0-.335-.926l-.062-.082a43.415,43.415,0,0,0-4.02-3.8c-.046-.039-4.519-3.882-5.668-3.882-1.164,0-3.351,2.229-3.42,3.022C1322.941,1027.768,1323.453,1028.124,1323.759,1028.336Z" transform="translate(-1300.794 -1024.229)" fill="#ed3242"/>
      <path id="パス_2915" data-name="パス 2915" d="M1356.334,1053.833a56.642,56.642,0,0,0-2.489-6.431,1.23,1.23,0,0,0-1.2-.917c-.709,0-3.7.964-3.8,2.146a2.254,2.254,0,0,0,.259,1.039,61.371,61.371,0,0,1,3.866,12.51c.1.476.268,1.273,1.281,1.273.886,0,3.744-.928,3.858-2.238C1358.187,1060.256,1357.031,1056.182,1356.334,1053.833Z" transform="translate(-1311.546 -1033.484)" fill="#ed3242"/>
      <path id="パス_2929" data-name="パス 2929" d="M1296.162,1057.037a2.629,2.629,0,0,0-1.874.777l-8.513,8.625a2.651,2.651,0,0,0,3.748,3.751l8.513-8.625a2.652,2.652,0,0,0-1.874-4.528Z" transform="translate(-1284.998 -1037.872)" fill="#ed3242"/>
    </g>
    <path id="パス_3116" data-name="パス 3116" d="M1244.868,1137.231a1.059,1.059,0,0,0-.806-.232c-.708,0-1.418.018-2.128.036s-1.412.036-2.117.036h-3.06c-.484-.045-.677-.136-.729-.355.014-.045.024-.083.033-.118s.023-.089.032-.114l.063-.094a.438.438,0,0,1,.225-.179.215.215,0,0,0,.053-.03c.056-.043.109-.08.157-.113a.654.654,0,0,0,.36-.47.462.462,0,0,0-.121-.361,1.256,1.256,0,0,0-.9-.265c-.693-.074-2.567-.218-3.192-.218-.231,0-.846,0-.9.59a1.2,1.2,0,0,0,0,.2.954.954,0,0,1,0,.156l.04.768c-.039.44-.226.6-.693.6h-4.528c-.509,0-.651-.168-.708-.363l.079-.253.061-.079a.534.534,0,0,1,.217-.187c.054-.036.105-.068.152-.1.2-.127.392-.246.414-.495a.463.463,0,0,0-.121-.361,1.322,1.322,0,0,0-.9-.265c-.741-.075-2.574-.218-3.226-.218-.2,0-.81,0-.862.59a1.216,1.216,0,0,0,0,.2,1.06,1.06,0,0,1,0,.157,5.856,5.856,0,0,1,0,.767c-.04.457-.208.6-.692.6h-3.007c-.7,0-1.417-.018-2.128-.036s-1.432-.036-2.14-.036c-1.027,0-1.069.48-1.161,1.533-.061.7-.1,1.085.135,1.336a1.034,1.034,0,0,0,.791.234c.708,0,1.427-.018,2.146-.036s1.431-.036,2.135-.036h3.115a.508.508,0,0,1,.363.092.44.44,0,0,1,.057.33l-.007.09c-.07.395-.18.529-.418.551-.476-.037-.959-.037-1.427-.037-.92,0-1.876.187-2,1.57-.024.273-.039.538-.056.82-.018.318-.038.66-.073,1.063l-.269,3.078c-.035.4-.074.736-.112,1.056-.034.292-.067.57-.092.864a1.462,1.462,0,0,0,.3,1.17,1.9,1.9,0,0,0,1.425.437c.473,0,.948-.019,1.424-.037s.939-.036,1.407-.036h.286l-1.044,1.062h-4.3c-.686,0-1.372-.018-2.056-.037s-1.378-.036-2.068-.036c-.882,0-.933.581-1.01,1.462l-.012.138c-.058.647-.092,1.037.137,1.287a.86.86,0,0,0,.651.217c.689,0,1.38-.009,2.07-.019s1.376-.018,2.064-.018h1.581l-11.018,11.214a1.89,1.89,0,0,0,0,2.667,1.883,1.883,0,0,0,2.663,0l8.062-8.208-.356,3.842c-.032.358-.08.708-.129,1.057s-.1.714-.131,1.08a.81.81,0,0,0,.159.636c.246.268.688.283,1.542.283h.562c1.408,0,1.885,0,1.965-.929.042-.2.114-.231.262-.231h9.456c.284,0,.348.072.425.486.14.637.583.637,2.049.637h.208c1.346.007,1.906,0,1.983-.882.032-.365.045-.722.058-1.079s.025-.7.057-1.058l.307-3.524c.076-.362.214-.412.35-.412a.36.36,0,0,1,.21.079l.113.066c3.235,1.894,3.956,2.136,4.223,2.136.869,0,2.351-1.886,2.418-2.656.05-.565-.5-.764-.983-.94l-.1-.036a24.4,24.4,0,0,1-6.772-3.964l-.023-.036a.3.3,0,0,1-.049-.094c0-.04.012-.134.253-.134h2.9c.688,0,1.383.009,2.079.018s1.395.019,2.084.019c.849,0,.9-.557.969-1.4l.024-.268c.053-.592.088-.983-.135-1.226a.82.82,0,0,0-.622-.211c-.69,0-1.391.018-2.092.036s-1.394.037-2.081.037l-11.6,0h-1.069l1.045-1.064h6.867c.534,0,1.017.021,1.443.041.357.016.682.031.978.031,1.441,0,2.244-.251,2.359-1.57.028-.327.047-.646.066-.964s.037-.632.066-.957l.269-3.079c.027-.307.064-.623.1-.939s.074-.636.1-.944a1.474,1.474,0,0,0-.288-1.176,2.049,2.049,0,0,0-1.541-.431c-.485,0-.987,0-1.436.037a.286.286,0,0,1-.219-.085.642.642,0,0,1-.064-.447l.006-.072c.029-.339.115-.459.535-.459h3.3c.7,0,1.407.018,2.111.036s1.413.036,2.121.036c1.029,0,1.07-.473,1.151-1.413l.021-.24C1245.054,1137.839,1245.087,1137.471,1244.868,1137.231Zm-19.215,3.293c.032-.362.178-.5.538-.5h4.854a.5.5,0,0,1,.358.092.506.506,0,0,1,.06.366l-.01.109c-.037.43-.166.465-.476.5h-4.989a.367.367,0,0,1-.274-.078A.746.746,0,0,1,1225.653,1140.525Zm5.951,22.784a.509.509,0,0,1-.538.5h-9.275a.439.439,0,0,1-.327-.118.448.448,0,0,1-.091-.34l.026-.29a.489.489,0,0,1,.538-.5h9.274a.453.453,0,0,1,.335.112.46.46,0,0,1,.083.346Zm.251-4.253a.443.443,0,0,1,.09.341l-.019.217a.517.517,0,0,1-.541.532h-9.275a.414.414,0,0,1-.32-.114.5.5,0,0,1-.095-.38l.019-.218a.508.508,0,0,1,.538-.494h9.275A.439.439,0,0,1,1231.855,1159.055Zm-2.2-3.957a.9.9,0,0,1,.874.346,2.4,2.4,0,0,0,.362.475l.022.038c.048.077.058.1.053.143s-.015.169-.292.169h-7.065l-1.519-.019a.367.367,0,0,1-.127-.024l1.108-1.128Zm5.04-7.239a.578.578,0,0,1-.54.513h-12.644c-.1,0-.415,0-.418-.458l.017-.2a.54.54,0,0,1,.541-.514h12.624a.426.426,0,0,1,.437.459Zm.309-3.532a.532.532,0,0,1-.538.5h-12.644a.457.457,0,0,1-.335-.112.466.466,0,0,1-.083-.346l.008-.09a.54.54,0,0,1,.541-.514h12.624a.429.429,0,0,1,.436.47Z" transform="translate(-5.295 -66.118)" fill="#172e59"/>
    <ellipse id="楕円形_47" data-name="楕円形 47" cx="3.04" cy="3.043" rx="3.04" ry="3.043" transform="translate(1301.832 1028.241)" fill="#172e59"/>
    <g id="グループ_3559" data-name="グループ 3559" transform="translate(1316.098 1008.321)">
      <path id="パス_2919" data-name="パス 2919" d="M1444.718,1041.722c-.947,0-1.91.023-2.842.046s-1.888.046-2.828.046h-14.042c-.619,0-.589-.328-.581-.435a.722.722,0,0,1,.077-.262l.018-.046c.236-.429.441-.8.62-1.132,1.158-2.122,1.224-2.21,1.751-2.365.464-.076.982-.361,1.021-.8.069-.787-1.206-1.256-3.159-1.882l-.349-.116c-.347-.12-.7-.239-1-.327h15.367c.729,0,.964.258.9.988l-.068.784c-.028.317-.08.657-.133,1s-.108.7-.137,1.032a1.038,1.038,0,0,0,.214.828c.363.4,1.1.4,2.212.4h.4c1.11,0,1.767,0,2.182-.38a1.355,1.355,0,0,0,.387-.936c.024-.271.03-.585.036-.911.007-.343.013-.7.041-1.023l.161-1.844c.059-.687.151-1.357.225-1.9.05-.363.091-.665.107-.871.121-1.393-.785-2.1-2.7-2.1-.824,0-1.65.011-2.48.023s-1.685.023-2.542.023h-7.458c-.759,0-.935-.19-.947-.989l.054-.6c.085-.983.175-1.35.543-1.593.077-.053.147-.1.215-.143.285-.189.535-.354.564-.707.062-.714-.836-.795-1.318-.837-.064-.005-.121-.011-.172-.018-.891-.094-3.177-.278-3.962-.278-.338,0-1.131,0-1.205.857a1.577,1.577,0,0,0,0,.25,1.113,1.113,0,0,1,0,.189c0,.193.005.386.009.579a15.233,15.233,0,0,1-.077,2.3c-.065.739-.347.989-1.12.989h-.282c-.851,0-1.69-.012-2.528-.023s.23-.023-.623-.023c-.938-.023-1.511-.046-2.458-.046a1.375,1.375,0,0,0-.99.3c-.384.354-.436.947-.528,2.021l-.034.393c-.1,1.075-.147,1.666.175,2.021a1.184,1.184,0,0,0,.938.3c.947,0,1.523-.023,2.466-.046h3.416a2.191,2.191,0,0,0-.589.9l-.535,1.112c-.708,1.469-1.441,2.988-2.277,4.448a1.518,1.518,0,0,1-1.645.911h-5.341c-.94,0-1.908-.023-2.844-.046s-1.91-.046-2.857-.046a1.372,1.372,0,0,0-.99.3c-.384.355-.435.946-.528,2.021l-.034.392c-.1,1.075-.147,1.667.175,2.022a1.189,1.189,0,0,0,.938.3c.947,0,1.922-.023,2.865-.046s1.911-.047,2.852-.047h3.105c.595.067.576.286.566.391a.387.387,0,0,1-.07.172.833.833,0,0,0-.065.122,74.2,74.2,0,0,1-4.619,6.7,4.64,4.64,0,0,0-.871,1.531c-.119,1.362,2.785,2.33,3.736,2.33a1.766,1.766,0,0,0,1.358-.929l.042-.054a1.33,1.33,0,0,1,1.094-.674,1.628,1.628,0,0,1,.428.035c1.588.482,3.106.99,4.527,1.524.1.026.21.129.2.215-.006.068-.027.148-.188.226a34.748,34.748,0,0,1-12.942,2.653l-.2.008c-.758.035-1.616.073-1.714,1.169a7.182,7.182,0,0,0,.35,2.483,1.429,1.429,0,0,0,1.468,1.23c.4,0,2.188-.143,2.579-.187a40.07,40.07,0,0,0,15.553-5.015,1.884,1.884,0,0,1,1.044-.33,1.669,1.669,0,0,1,.589.11c.063.021.129.042.174.054a69.271,69.271,0,0,1,9.361,4.782l.154.094a2.52,2.52,0,0,0,1.165.491c1.317,0,2.751-2.739,2.845-3.8.053-.621-.322-.839-1-1.235l-.164-.1a68.2,68.2,0,0,0-8-3.875c-.251-.179-.391-.3-.368-.556a.656.656,0,0,1,.259-.44,22.459,22.459,0,0,0,3.964-5.966l.03-.061c.2-.412.284-.583.628-.716.075-.028.164-.054.257-.079.422-.121,1-.287,1.045-.8.054-.615-.845-.948-2.339-1.5h3.181c.94,0,1.9.024,2.819.046s1.888.046,2.835.046c1.36,0,1.429-.789,1.58-2.515S1446.081,1041.722,1444.718,1041.722Zm-13.248,5.639c-.015.054-.027.108-.035.152a19.246,19.246,0,0,1-4.3,6.361,1.589,1.589,0,0,1-1.062.525,1.5,1.5,0,0,1-.525-.107c-.067-.022-.138-.045-.208-.066-2.228-.766-4.436-1.424-6.5-2.029-.418-.143-.536-.28-.511-.586a.894.894,0,0,1,.142-.425c.73-1.1,1.463-2.26,2.3-3.644a1.576,1.576,0,0,1,1.65-.883h8.4c.728.067.7.391.687.529a1.084,1.084,0,0,1-.037.174Z" transform="translate(-1404.073 -1024.392)" fill="#ed3242"/>
      <g id="グループ_3753" data-name="グループ 3753" transform="translate(0 4.283)">
        <g id="グループ_3752" data-name="グループ 3752">
          <g id="グループ_3751" data-name="グループ 3751">
            <path id="パス_3117" data-name="パス 3117" d="M1410.366,1031.724a2.217,2.217,0,0,0-1.579.655l-4.406,4.411a2.238,2.238,0,0,0,0,3.162,2.284,2.284,0,0,0,3.158,0l4.405-4.412a2.245,2.245,0,0,0,0-3.161A2.218,2.218,0,0,0,1410.366,1031.724Z" transform="translate(-1403.727 -1031.724)" fill="#ed3242"/>
          </g>
        </g>
      </g>
    </g>
    <g id="グループ_3757" data-name="グループ 3757" transform="translate(1330.779 1068.853)">
      <g id="グループ_3754" data-name="グループ 3754" transform="translate(0.796 8.983)">
        <path id="パス_3118" data-name="パス 3118" d="M1441.72,1168.021a1.111,1.111,0,0,0-.808-.466c-.736,0-2.917,1.311-2.984,2.076a1.143,1.143,0,0,0,.322.8l.058.078a48.917,48.917,0,0,1,3.4,5.181l.021.041c.182.358.39.763.868.763.774,0,2.991-1.333,3.062-2.149.052-.593-1.61-3.046-1.627-3.071S1442.1,1168.435,1441.72,1168.021Z" transform="translate(-1433.441 -1157.593)" fill="#172e59"/>
        <path id="パス_3119" data-name="パス 3119" d="M1462.377,1156.222a1.038,1.038,0,0,0-.789-.25c-.74,0-1.481.017-2.227.036s-1.508.036-2.272.036h-2.355a.808.808,0,0,1-.6-.166.816.816,0,0,1-.113-.619l.13-1.484c.083-.939.168-1.39.462-1.584l.092-.065c.274-.191.49-.341.516-.633a.55.55,0,0,0-.123-.411,1.4,1.4,0,0,0-.952-.315l-.121-.01c-1.15-.116-2.643-.255-3.224-.255a.771.771,0,0,0-.906.7l-.029.365a13.115,13.115,0,0,1-.064,2.352l-.114,1.3c-.054.615-.279.821-.893.821h-12.752c-.759,0-1.507-.018-2.256-.036s-1.5-.036-2.266-.036c-1.027,0-1.078.576-1.2,1.968l-.013.154c-.076.852-.117,1.32.146,1.608a.991.991,0,0,0,.755.243c.762,0,1.518-.018,2.272-.037s1.5-.036,2.263-.036h12.752a.59.59,0,0,1,.716.784l-.6,6.81c-.2,2.227-.294,2.6-2.641,2.6-.441,0-.9,0-1.308-.034a7.752,7.752,0,0,0-.929-.075c-.576,0-.961.478-1.031,1.28a5.254,5.254,0,0,0,.468,2.594c.38.606,1.5.606,2.164.606,4.7,0,7.2-1.442,7.452-4.286.04-.46.061-.911.081-1.357s.04-.859.078-1.287l.6-6.81c.054-.614.278-.821.892-.821h2.355c.741,0,1.49.018,2.238.036s1.5.037,2.248.037c1.065,0,1.114-.569,1.222-1.815l.026-.3C1462.6,1156.98,1462.642,1156.513,1462.377,1156.222Z" transform="translate(-1430.25 -1150.502)" fill="#172e59"/>
      </g>
      <g id="グループ_3559-2" data-name="グループ 3559" transform="translate(0 0)">
        <path id="パス_2919-2" data-name="パス 2919" d="M1450.81,1143.07h12.144c.576,0,.761.2.712.78l-.054.62c-.021.251-.063.519-.1.788s-.085.554-.109.815a.822.822,0,0,0,.17.655c.287.314.873.312,1.748.312h.319c.877,0,1.4,0,1.724-.3a1.069,1.069,0,0,0,.306-.74c.019-.214.023-.463.028-.72s.011-.551.033-.809l.127-1.457c.047-.542.12-1.073.178-1.5.039-.287.072-.527.085-.688.1-1.1-.621-1.66-2.131-1.66-.652,0-1.3.009-1.961.018s-1.332.019-2.009.019h-5.893c-.6,0-.74-.15-.749-.782l.042-.474c.068-.776.139-1.067.43-1.259.06-.042.116-.08.169-.113.226-.15.424-.279.446-.558.05-.564-.66-.628-1.042-.662-.05,0-.1-.008-.135-.013-.7-.075-2.511-.22-3.131-.22-.267,0-.893,0-.953.678a1.236,1.236,0,0,0,0,.2.887.887,0,0,1,0,.15c0,.153,0,.305.006.457a12.012,12.012,0,0,1-.06,1.818c-.051.585-.274.782-.885.782h-.223c-.673,0-1.335-.009-2-.019s.182-.018-.493-.018c-.742-.018-1.194-.036-1.942-.036a1.087,1.087,0,0,0-.782.235c-.3.28-.344.747-.417,1.6l-.027.31c-.075.849-.117,1.317.138,1.6a.935.935,0,0,0,.741.235c.748,0,1.2-.018,1.949-.036h2.7Z" transform="translate(-1435.308 -1135.125)" fill="#172e59"/>
        <g id="グループ_3756" data-name="グループ 3756" transform="translate(0 3.162)">
          <g id="グループ_3755" data-name="グループ 3755">
            <path id="パス_3120" data-name="パス 3120" d="M1434.357,1140.538a1.98,1.98,0,0,0-1.406.581l-3.483,3.486a1.994,1.994,0,0,0,0,2.815,1.989,1.989,0,0,0,2.813,0l3.481-3.486a1.988,1.988,0,0,0-1.405-3.4Z" transform="translate(-1428.887 -1140.538)" fill="#172e59"/>
          </g>
        </g>
      </g>
    </g>
    <g id="グループ_3768" data-name="グループ 3768" transform="translate(1193.491 985.854)">
      <path id="パス_2917" data-name="パス 2917" d="M1251.37,1041.722c-.947,0-1.91.023-2.842.046s-1.888.046-2.829.046h-14.042c-.619,0-.589-.328-.581-.435a.729.729,0,0,1,.077-.262l.018-.046c.236-.429.441-.8.62-1.132,1.157-2.122,1.224-2.21,1.752-2.365.464-.076.982-.361,1.02-.8.069-.787-1.206-1.256-3.159-1.882l-.348-.116c-.347-.12-.7-.239-1-.327h15.362c.73,0,.964.258.9.988l-.069.784c-.027.317-.08.657-.132,1s-.107.7-.138,1.032a1.041,1.041,0,0,0,.214.828c.363.4,1.105.4,2.212.4h.4c1.11,0,1.767,0,2.182-.38a1.356,1.356,0,0,0,.387-.936c.024-.271.03-.585.036-.911.006-.343.013-.7.042-1.023l.16-1.844c.06-.687.152-1.357.225-1.9.05-.363.091-.665.107-.871.122-1.393-.786-2.1-2.7-2.1-.825,0-1.65.011-2.481.023s-1.685.023-2.542.023h-7.458c-.759,0-.936-.19-.948-.989l.054-.6c.086-.983.176-1.35.543-1.593.077-.053.147-.1.214-.143.286-.189.535-.354.564-.707.063-.714-.836-.795-1.318-.837-.064-.005-.121-.011-.171-.018-.892-.094-3.178-.278-3.962-.278-.338,0-1.13,0-1.205.857a1.494,1.494,0,0,0,0,.25,1.088,1.088,0,0,1,0,.189c0,.193.005.386.009.579a15.265,15.265,0,0,1-.077,2.3c-.065.739-.347.989-1.12.989h-.283c-.851,0-1.178-.012-2.015-.023s-.283-.023-1.135-.023c-.939-.023-4.813-.046-5.76-.046a1.377,1.377,0,0,0-.99.3c-.384.354-.436.947-.528,2.021l-.034.393c-.1,1.075-.147,1.666.175,2.021a1.181,1.181,0,0,0,.937.3c.947,0,4.825-.023,5.768-.046h3.416a2.193,2.193,0,0,0-.586.9l-.535,1.112c-.708,1.469-1.44,2.988-2.277,4.448a1.517,1.517,0,0,1-1.645.911h-5.34c-.941,0-1.909-.023-2.844-.046s-1.91-.046-2.857-.046a1.372,1.372,0,0,0-.989.3c-.384.355-.435.946-.528,2.021l-.034.392c-.1,1.075-.148,1.667.174,2.022a1.191,1.191,0,0,0,.938.3c.948,0,1.922-.023,2.865-.046s1.911-.047,2.851-.047h3.105c.595.067.576.286.567.391a.381.381,0,0,1-.07.172.891.891,0,0,0-.065.122,74.531,74.531,0,0,1-4.619,6.7,4.626,4.626,0,0,0-.871,1.531c-.12,1.362,2.784,2.33,3.735,2.33a1.764,1.764,0,0,0,1.358-.929l.042-.054a1.328,1.328,0,0,1,1.093-.674,1.631,1.631,0,0,1,.429.035c1.588.482,3.1.99,4.526,1.524.1.026.21.129.2.215-.006.068-.027.148-.188.226a34.752,34.752,0,0,1-12.943,2.653l-.2.008c-.758.035-1.616.073-1.713,1.169a7.188,7.188,0,0,0,.35,2.483,1.429,1.429,0,0,0,1.468,1.23c.4,0,2.187-.143,2.578-.187a40.064,40.064,0,0,0,15.553-5.015,1.886,1.886,0,0,1,1.044-.33,1.662,1.662,0,0,1,.587.11c.063.021.129.042.174.054a69.215,69.215,0,0,1,9.361,4.782l.154.094a2.523,2.523,0,0,0,1.165.491c1.317,0,2.751-2.739,2.844-3.8.053-.621-.321-.839-1-1.235l-.161-.1a68.188,68.188,0,0,0-8-3.875c-.251-.179-.391-.3-.369-.556a.657.657,0,0,1,.259-.44,22.455,22.455,0,0,0,3.965-5.966l.03-.061c.2-.412.283-.583.628-.716.075-.028.164-.054.257-.079.421-.121,1-.287,1.045-.8.054-.615-.845-.948-2.338-1.5h3.18c.941,0,1.9.024,2.82.046s1.887.046,2.834.046c1.361,0,1.43-.789,1.581-2.515S1252.732,1041.722,1251.37,1041.722Zm-13.247,5.639c-.015.054-.027.108-.035.152a19.259,19.259,0,0,1-4.3,6.361,1.59,1.59,0,0,1-1.061.525,1.51,1.51,0,0,1-.526-.107c-.067-.022-.138-.045-.208-.066-2.228-.766-4.437-1.424-6.5-2.029-.418-.143-.535-.28-.511-.586a.875.875,0,0,1,.141-.425c.73-1.1,1.462-2.26,2.3-3.644a1.575,1.575,0,0,1,1.65-.883h8.4c.727.067.7.391.688.529a1.011,1.011,0,0,1-.037.174Z" transform="translate(-1200.859 -1001.88)" fill="#ed3242"/>
      <g id="グループ_3760" data-name="グループ 3760" transform="translate(7.098 26.796)">
        <g id="グループ_3759" data-name="グループ 3759">
          <g id="グループ_3758" data-name="グループ 3758">
            <path id="パス_3121" data-name="パス 3121" d="M1212.281,1031.724a2.217,2.217,0,0,0-1.579.655l-4.406,4.411a2.238,2.238,0,0,0,0,3.162,2.284,2.284,0,0,0,3.157,0l4.405-4.412a2.245,2.245,0,0,0,0-3.161A2.218,2.218,0,0,0,1212.281,1031.724Z" transform="translate(-1205.642 -1031.724)" fill="#ed3242"/>
          </g>
        </g>
      </g>
      <g id="グループ_3767" data-name="グループ 3767">
        <g id="グループ_3763" data-name="グループ 3763" transform="translate(0 37.52)">
          <g id="グループ_3762" data-name="グループ 3762">
            <g id="グループ_3761" data-name="グループ 3761">
              <path id="パス_3122" data-name="パス 3122" d="M1196.51,1050.082a2.213,2.213,0,0,0-1.579.655l-.784.79a2.234,2.234,0,0,0,1.576,3.815h.008a2.233,2.233,0,0,0,1.573-.653l.785-.79a2.239,2.239,0,0,0,0-3.162A2.213,2.213,0,0,0,1196.51,1050.082Z" transform="translate(-1193.492 -1050.082)" fill="#ed3242"/>
            </g>
          </g>
        </g>
        <g id="グループ_3766" data-name="グループ 3766" transform="translate(18.005)">
          <g id="グループ_3765" data-name="グループ 3765">
            <g id="グループ_3764" data-name="グループ 3764">
              <path id="パス_3123" data-name="パス 3123" d="M1246.747,985.854a2.217,2.217,0,0,0-1.579.655l-20.2,20.233a2.236,2.236,0,0,0,1.554,3.818h.03a2.231,2.231,0,0,0,1.573-.654l20.2-20.234a2.236,2.236,0,0,0-1.579-3.816Z" transform="translate(-1224.313 -985.854)" fill="#ed3242"/>
            </g>
          </g>
        </g>
      </g>
    </g>
    <g id="グループ_3769" data-name="グループ 3769" transform="translate(1417.509 1068.836)">
      <path id="パス_3124" data-name="パス 3124" d="M1643.644,1147.61a.852.852,0,0,0-.671-.234c-.657,0-1.315.028-1.952.054s-1.286.054-1.933.054h-8.369a.59.59,0,0,1-.715-.784l.707-8.077c.091-1.047.172-1.566.528-1.811l.136-.109c.233-.182.4-.312.427-.616.054-.622-.7-.7-1.069-.731l-.061-.006c-.192-.013-.593-.049-1.049-.089-.863-.077-1.842-.165-2.131-.165-.264,0-.882,0-.944.7a1.688,1.688,0,0,0,0,.212,1.193,1.193,0,0,1,0,.168c-.007.913-.021,1.883-.1,2.809l-.672,7.68c-.054.614-.279.821-.893.821H1616.3c-.625,0-1.263-.027-1.88-.053-.634-.027-1.291-.055-1.951-.055-.957,0-1.011.625-1.119,1.869l-.029.339c-.078.873-.12,1.354.144,1.643a.9.9,0,0,0,.684.23c.659,0,1.31-.018,1.956-.037s1.263-.036,1.89-.036h5.755l-18.946,18.928a1.991,1.991,0,0,0,1.406,3.4h.006a1.99,1.99,0,0,0,1.4-.582l21.763-21.744h.245a.589.589,0,0,1,.715.784l-.811,9.273c-.037.421-.083.831-.127,1.237s-.087.795-.122,1.19a3.2,3.2,0,0,0,.574,2.527c.652.712,1.75.855,3.31.855h5.688c1.819,0,3.2-.148,4.339-2.061a15.727,15.727,0,0,0,1.734-5.087,1.175,1.175,0,0,0-.329-.924,3.864,3.864,0,0,0-2.387-.9c-.949,0-1.147.749-1.279,1.251l-.04.173c-.62,2.718-.808,3.538-2.448,3.538h-3.623c-.631,0-.947-.063-1.09-.22s-.176-.464-.124-1.071l.85-9.724c.121-.645.33-.842.9-.842h5.434c.654,0,1.307.018,1.956.037s1.282.036,1.914.036c.957,0,1.016-.7,1.116-1.846l.027-.32C1643.873,1148.431,1643.919,1147.911,1643.644,1147.61Z" transform="translate(-1587.873 -1135.096)" fill="#172e59"/>
      <path id="パス_3125" data-name="パス 3125" d="M1592.73,1203.466a1.984,1.984,0,0,0-1.406.581l-3.482,3.486a2,2,0,0,0,0,2.815,1.986,1.986,0,0,0,2.812,0l3.482-3.485a1.989,1.989,0,0,0-1.406-3.4Z" transform="translate(-1581.652 -1163.527)" fill="#172e59"/>
      <path id="パス_3126" data-name="パス 3126" d="M1656.821,1146.8a1.974,1.974,0,0,0,1.406-.583l3.482-3.486a1.99,1.99,0,0,0-2.812-2.815l-3.482,3.486a1.99,1.99,0,0,0,1.406,3.4Z" transform="translate(-1609.751 -1136.859)" fill="#172e59"/>
      <path id="パス_3127" data-name="パス 3127" d="M1629.537,1145.769a1.99,1.99,0,0,0,3.665-1.552l-1.639-3.787a1.988,1.988,0,0,0-2.607-1.057,2,2,0,0,0-1.057,2.609Z" transform="translate(-1598.485 -1136.809)" fill="#172e59"/>
      <path id="パス_3128" data-name="パス 3128" d="M1580.267,1217.971a1.976,1.976,0,0,0-1.406.583l-.621.625a1.989,1.989,0,0,0,1.4,3.4h.006a1.99,1.99,0,0,0,1.4-.582l.621-.624a1.991,1.991,0,0,0-1.406-3.4Z" transform="translate(-1577.658 -1169.559)" fill="#172e59"/>
    </g>
    <path id="パス_3129" data-name="パス 3129" d="M1514.512,1152.456a9.729,9.729,0,0,0-4.235-1.055,8.841,8.841,0,0,0-1.516.12,6.326,6.326,0,0,0-1.549.4l6.573-6.561a1.973,1.973,0,0,0,0-2.79,1.946,1.946,0,0,0-.824-.484,2.073,2.073,0,0,0-.783-.111,10.34,10.34,0,0,0-2,.38l-.223.081a32.994,32.994,0,0,1-8.747,1.26h-.826c-1.11,0-1.261.117-1.342,1.043-.009.1-.215,2.546.383,3.2a.537.537,0,0,0,.4.186c.6,0,5.637-1.028,6.367-1.207.065-.011.153-.027.248-.046s.205-.04.306-.057l-12.22,12.2a1.973,1.973,0,0,0,1.394,3.368h0a1.956,1.956,0,0,0,1.394-.578l3.728-3.721a10.718,10.718,0,0,1,7.785-3.074,5.758,5.758,0,0,1,4.316,1.519,3.735,3.735,0,0,1,.888,2.977,6.08,6.08,0,0,1-4.428,5.117c-.067,0-.159,0-.174-.229a3.441,3.441,0,0,0-.452-2.318,5.237,5.237,0,0,0-4.539-2.546,4.984,4.984,0,0,0-4.97,4.347,3.654,3.654,0,0,0,.945,2.9c1.349,1.473,3.862,2,5.763,2a13.639,13.639,0,0,0,7.872-2.381,9.467,9.467,0,0,0,4.082-7.059A6.632,6.632,0,0,0,1514.512,1152.456Zm-9.325,13.053a3,3,0,0,1-2.026-.763,1.066,1.066,0,0,1-.3-.842,1.4,1.4,0,0,1,1.4-1.194,1.776,1.776,0,0,1,1.33.564,1.639,1.639,0,0,1,.426,1.247C1505.986,1164.889,1505.775,1165.509,1505.187,1165.509Z" transform="translate(-125.214 -69.08)" fill="#172e59"/>
    <g id="グループ_3770" data-name="グループ 3770" transform="translate(1411.264 1058.933)">
      <path id="パス_3130" data-name="パス 3130" d="M1569.494,1118.167c.063.021.26.07.26.147,0,.035-.042.056-.064.07-.1.064-.112.091-.161.245-.021.077-.168.589-.168.624a.1.1,0,0,0,.1.105,4.917,4.917,0,0,0,.814-.26.383.383,0,0,1,.147-.035c.14,0,.14.428.14.532,0,.12-.014.217-.133.252a10.485,10.485,0,0,1-1.15.273c-.2.042-.225.078-.288.274a21.758,21.758,0,0,1-1.3,3.089c-.091.169-.147.266-.252.266s-.6-.224-.6-.378a.519.519,0,0,1,.12-.231,13.758,13.758,0,0,0,1.241-2.593,1.017,1.017,0,0,0,.057-.182c0-.07-.057-.105-.127-.105-.1,0-.407.035-.624.035-.14,0-.253.007-.3-.126a3,3,0,0,1-.056-.511c0-.077.021-.126.105-.126.063,0,.358.028.66.028.449,0,.554-.007.617-.113a6.368,6.368,0,0,0,.26-1.275c.007-.105.007-.175.077-.175S1569.4,1118.138,1569.494,1118.167Zm-.1,4.518a1.7,1.7,0,0,0,1.27.407,3.186,3.186,0,0,0,1-.14.251.251,0,0,1,.07-.015c.119,0,.119.161.119.442,0,.14.007.3-.077.35a6.754,6.754,0,0,1-1.094.091,2.982,2.982,0,0,1-1.5-.315c-.113-.078-.344-.253-.344-.4,0-.1.323-.518.435-.518C1569.32,1122.587,1569.368,1122.651,1569.4,1122.685Zm.856-2.263a5.058,5.058,0,0,1,1.41.2.133.133,0,0,1,.1.141,1.757,1.757,0,0,1-.133.49c-.028.063-.056.091-.127.091a.561.561,0,0,1-.147-.035,2.993,2.993,0,0,0-1.115-.175c-.091,0-.175.007-.266.007-.141,0-.176-.035-.176-.154C1569.8,1120.38,1569.923,1120.422,1570.252,1120.422Zm1.438-1.169c0,.105-.26.308-.344.308-.042,0-.07-.042-.1-.077a6.168,6.168,0,0,0-.484-.561c-.021-.021-.063-.062-.063-.1,0-.091.28-.28.344-.28A2.713,2.713,0,0,1,1571.691,1119.252Zm.73-.449c0,.106-.26.316-.344.316-.042,0-.077-.049-.105-.084a6.078,6.078,0,0,0-.484-.56c-.021-.021-.056-.056-.056-.091,0-.084.26-.287.344-.287A2.717,2.717,0,0,1,1572.42,1118.8Z" transform="translate(-1566.843 -1117.998)" fill="#172e59"/>
      <path id="パス_3131" data-name="パス 3131" d="M1581.843,1120.239c.056.014.154.027.154.1,0,.042-.028.056-.07.091-.1.077-.105.217-.126.336a5.228,5.228,0,0,0-.056.743,4,4,0,0,0,.224,1.464c.084.2.316.609.562.609.2,0,.4-.308.484-.462.042-.07.1-.175.19-.175.147,0,.5.287.5.413s-.316.5-.414.609a1.008,1.008,0,0,1-.75.441,1.485,1.485,0,0,1-1.158-.9,5.052,5.052,0,0,1-.407-2.284c0-.112.021-1,.036-1.065a.087.087,0,0,1,.1-.077C1581.2,1120.085,1581.723,1120.218,1581.843,1120.239Zm2.855-.141a2.284,2.284,0,0,1,1.081,1.087,3.823,3.823,0,0,1,.413,1.457c0,.133-.07.168-.189.2a1.512,1.512,0,0,1-.393.062c-.224,0-.217-.1-.231-.266a2.687,2.687,0,0,0-1.038-2,.116.116,0,0,1-.063-.105C1584.277,1120.408,1584.557,1120.1,1584.7,1120.1Z" transform="translate(-1572.722 -1118.866)" fill="#172e59"/>
    </g>
    <g id="グループ_3771" data-name="グループ 3771" transform="translate(1452.251 1059.157)">
      <path id="パス_3132" data-name="パス 3132" d="M1637.769,1122.332c.091,0,.113.062.127.133.147.742.744.848,1.4.848a8.749,8.749,0,0,0,2.09-.245.557.557,0,0,1,.106-.021c.105,0,.154.12.154.574,0,.134-.035.218-.168.259a12.839,12.839,0,0,1-2.1.2,2.252,2.252,0,0,1-1.971-.729,1.624,1.624,0,0,1-.274-.679C1637.131,1122.493,1637.763,1122.332,1637.769,1122.332Zm.119-2.445c.021-.119.035-.245.168-.245a1.008,1.008,0,0,1,.2.042,4.534,4.534,0,0,0,1.193.147,5.973,5.973,0,0,0,1.27-.14.355.355,0,0,1,.091-.014c.175,0,.182.316.182.6,0,.169-.035.182-.2.211a9.692,9.692,0,0,1-1.27.083,6.032,6.032,0,0,1-1.6-.174.147.147,0,0,1-.1-.147A2.425,2.425,0,0,1,1637.889,1119.887Z" transform="translate(-1637.131 -1118.906)" fill="#172e59"/>
      <path id="パス_3133" data-name="パス 3133" d="M1653.99,1121.493a3.112,3.112,0,0,1-1.7,2.508,2.083,2.083,0,0,1-.6.259c-.21,0-.5-.476-.5-.588,0-.07.076-.1.14-.119.842-.266,1.88-1.03,1.88-2a.9.9,0,0,0-.975-.967,2.336,2.336,0,0,0-1.5.659.32.32,0,0,1-.148.071c-.168,0-.393-.505-.393-.666,0-.113.126-.175.21-.217a4.031,4.031,0,0,1,1.873-.568A1.576,1.576,0,0,1,1653.99,1121.493Zm-2.911-2.978c.028-.063.056-.133.141-.133a.249.249,0,0,1,.112.042,7.365,7.365,0,0,0,1.754.35c.1.006.175.006.175.112a3.015,3.015,0,0,1-.07.428c-.035.14-.077.21-.189.21a14.828,14.828,0,0,1-1.613-.315c-.3-.077-.449-.112-.449-.224A1.633,1.633,0,0,1,1651.079,1118.515Z" transform="translate(-1642.561 -1118.382)" fill="#172e59"/>
    </g>
    <path id="パス_3134" data-name="パス 3134" d="M1530.431,1039.665l-.066-.034a38.6,38.6,0,0,1-16.953-15.855l-.007,0a2.548,2.548,0,0,0-.293-.359,2.524,2.524,0,0,0-3.572,0l-26.007,26.052a2.529,2.529,0,0,0,1.786,4.318h.006a2.525,2.525,0,0,0,1.781-.74l11.285-11.305c-.032.238-.055.5-.081.782l-.031.361c-.1,1.078-.148,1.672.188,2.037a1.373,1.373,0,0,0,1.05.322c.831,0,1.652-.022,2.473-.045s1.633-.046,2.459-.046h1.656a.955.955,0,0,1,.718.2,1.045,1.045,0,0,1,.145.793l-.2,2.3c-.068.779-.343,1.043-1.088,1.043h-3.083c-.895,0-1.788-.023-2.681-.047s-1.8-.046-2.7-.046c-1.354,0-1.419.759-1.549,2.271l-.032.367c-.092,1.038-.148,1.665.2,2.041a1.256,1.256,0,0,0,.994.321c.9,0,1.821-.035,2.709-.069s1.8-.069,2.688-.069h3.083a.932.932,0,0,1,.708.212,1.021,1.021,0,0,1,.154.785l-.229,2.623c-.068.78-.342,1.043-1.088,1.043h-9.158c-.938,0-1.892-.035-2.814-.069s-1.885-.069-2.834-.069c-1.307,0-1.381.85-1.514,2.395l-.035.4c-.1,1.126-.155,1.748.191,2.125a1.192,1.192,0,0,0,.948.311c.945,0,1.893-.023,2.84-.046s1.887-.046,2.828-.046h25.77c.941,0,1.88.023,2.819.046s1.888.046,2.833.046c1.307,0,1.375-.8,1.514-2.39l.035-.4c.1-1.088.155-1.744-.2-2.129a1.24,1.24,0,0,0-.94-.314c-.948,0-1.913.035-2.846.069s-1.887.069-2.826.069H1512.4a.749.749,0,0,1-.908-1l.23-2.623c.067-.76.374-1.043,1.134-1.043h2.991c.892,0,1.8.035,2.675.069s1.793.069,2.7.069c1.4,0,1.471-.824,1.6-2.322l.031-.355c.09-1.014.144-1.626-.2-2a1.328,1.328,0,0,0-1.045-.326c-.9,0-1.8.023-2.7.046s-1.794.047-2.689.047h-2.991a.75.75,0,0,1-.909-1l.2-2.3c.068-.779.354-1.043,1.134-1.043h1.7c.832,0,1.661.023,2.486.046s1.629.045,2.431.045c1.4,0,1.47-.825,1.6-2.323l.03-.344a4.1,4.1,0,0,0-.039-1.729c.915.668,5.388,3.89,6.507,3.89,1.35,0,2.937-2.886,3.027-3.926C1531.45,1040.2,1530.886,1039.9,1530.431,1039.665Zm-9.771.58c-.8,0-1.638.035-2.444.069s-1.663.07-2.492.07h-10.906c-.823,0-1.659-.035-2.468-.069s-1.639-.068-2.465-.069l11.067-11.087a50.092,50.092,0,0,0,10.172,11.127A2.335,2.335,0,0,0,1520.661,1040.245Z" transform="translate(-120.593 -15.357)" fill="#ed3242"/>
  </g>
</svg>
