<svg xmlns="http://www.w3.org/2000/svg" width="480" height="240" viewBox="0 0 480 240"><g transform="translate(-1193.491 -985.854)"><path d="M1604.264,1152.571a1.625,1.625,0,0,0-1.29-.423c-1.255,0-2.511.048-3.727.1-1.186.045-2.412.091-3.607.091h-13.954a1.263,1.263,0,0,1-.929-.267,1.279,1.279,0,0,1-.245-.933c.291-2.144.487-4.294.676-6.375.151-1.654.307-3.364.51-5.053a1.739,1.739,0,0,1,.949-1.659,1.342,1.342,0,0,0,.705-.945c.086-.978-1.045-1.142-1.428-1.2-1.1-.123-4.756-.436-5.832-.436-.419,0-1.7,0-1.811,1.323a1.427,1.427,0,0,0,.025.533,48.436,48.436,0,0,1-.282,5.233l-.228,2.6c-.17,1.945-.4,3.9-.691,5.794-.2,1.056-.57,1.378-1.589,1.378h-13.83c-1.2,0-2.424-.047-3.606-.093s-2.417-.093-3.634-.093c-1.823,0-1.914,1.047-2.113,3.343l-.047.543c-.137,1.548-.213,2.4.261,2.918a1.679,1.679,0,0,0,1.33.431c1.212,0,2.427-.031,3.642-.062s2.418-.062,3.625-.062H1570.1a1.076,1.076,0,0,1,.767.235.7.7,0,0,1,.134.55l-.034.389c-3.651,10.481-11.219,18.147-23.145,23.437a3.541,3.541,0,0,1-.451.186c-.68.326-1.609.771-1.692,1.721a9.063,9.063,0,0,0,1.826,4.884,1.715,1.715,0,0,0,1.247.656,6.071,6.071,0,0,0,2.338-.752.846.846,0,0,0,.3-.113l.076-.039c10.7-5.189,19.131-13.183,23.75-22.512.176-.208.3-.333.421-.333.088,0,.167.016.247.209,3.593,8.792,8.007,14.753,14.75,19.926.044.036,4.614,3.614,5.994,3.614,1.729,0,4.314-3.693,4.433-5.043.083-.956-.528-1.334-1.067-1.667l-.17-.106a39.8,39.8,0,0,1-19.014-24.1,1.886,1.886,0,0,0-.011-.229,1.19,1.19,0,0,1-.007-.253c.03-.343.212-.586.967-.663H1595.1c1.207,0,2.41.031,3.614.062s2.419.062,3.631.062c1.833,0,1.913-.959,2.089-3.061l.087-.992C1604.647,1153.923,1604.724,1153.075,1604.264,1152.571Z" fill="#172e59"/><path d="M1293.309,1145.668c.1.056.191.112.291.175a41.909,41.909,0,0,1,6.944,4.978c.1.078.207.181.327.291a2.8,2.8,0,0,0,1.671.964c1.508,0,4.3-3.839,4.4-4.969.081-.921-1.476-2.08-3.839-3.537l-.319-.2-.578-.38c-3.081-2.033-5.28-3.387-6-3.387-1.64,0-3.939,3.714-4.018,4.614C1292.124,1144.977,1292.781,1145.36,1293.309,1145.668Z" fill="#172e59"/><path d="M1315.245,1164.2a12.454,12.454,0,0,0-9.373-3.74c-5.883,0-9.9,2.66-14.164,5.482a1.2,1.2,0,0,1-.6.291c-.086,0-.113-.03-.123-.041a.414.414,0,0,1-.062-.292,6.178,6.178,0,0,1,.2-.9l.071-.27c.548-1.793,1-3.634,1.436-5.413.229-.934.457-1.864.7-2.781l.052-.181c.3-1.039.407-1.427,1.2-1.9a1.2,1.2,0,0,0,.781-.928c.058-.656-.588-.92-1.016-1.1l-.175-.074-.022-.009a39.392,39.392,0,0,0-5.983-1.671c-1.317,0-1.434,1.347-1.571,2.907-.017.192-.047.384-.078.583-.036.227-.072.461-.093.7a97.619,97.619,0,0,1-2.528,12.8c-.479,1.781-1.1,3.714-1.849,5.738-.066.17-.154.364-.246.569a5.579,5.579,0,0,0-.545,1.587,1.483,1.483,0,0,0,.426,1.159c1.026,1.118,3.7,1.512,4.193,1.512a2.818,2.818,0,0,0,2.052-1.26l.081-.092c4.16-4.7,10.743-9.723,16.746-9.723a6.6,6.6,0,0,1,4.965,1.886,5.072,5.072,0,0,1,1.217,3.985c-.423,4.832-4.774,6.548-8.977,7.59a40.746,40.746,0,0,1-7.88,1.168c-.748.058-1.773.137-1.882,1.373a11.91,11.91,0,0,0,.689,3.984c.449,1.163.832,1.869,2.356,1.869,2.118,0,6.945-1.336,7.894-1.6,6.494-1.884,14.05-5.213,14.847-14.321A11.308,11.308,0,0,0,1315.245,1164.2Z" fill="#172e59"/><path d="M1363.476,1166.679c-.952-1.037-2.4-2.155-3.342-2.155-1.086,0-1.386,1.111-1.627,2l-.056.206a20.151,20.151,0,0,1-4.279,8.569c-3.019,3.4-7.462,5.6-11.319,5.6a4.579,4.579,0,0,1-3.587-1.356c-1.979-2.161-1.593-6.546-1.311-9.746l.021-.246c.517-5.915,2.686-22.04,4.522-23.322.068-.052.135-.1.2-.147a1.374,1.374,0,0,0,.716-.978c.063-.714-.694-1.086-1.372-1.191a47.147,47.147,0,0,0-6.61-1.421c-1.2,0-1.289,1.033-1.355,1.787l-.057.647c-.146,1.663-.7,4.965-1.137,7.617-.2,1.205-.384,2.311-.51,3.137-.759,4.642-1.349,9.348-1.755,13.987-.4,4.536-.549,10.2,1.819,13.774,2.013,2.933,5.847,4.684,10.256,4.684,7.447,0,14.8-4.373,19.186-11.412.964-1.538,2.918-5.306,3.07-7.045C1365.045,1168.571,1364.067,1167.325,1363.476,1166.679Z" fill="#172e59"/><path d="M1614.025,1057.077l0,0c-3.51-3.787-8.357-5.707-14.407-5.707a26.335,26.335,0,0,0-25.889,24.063,17.169,17.169,0,0,0,1.078,8.2c1.542,3.488,4.356,5.571,7.527,5.571,2.7,0,5.352-1.46,8.093-4.462,6.241-6.767,9.041-17.334,10.291-25.012l.022-.148c.152-1.073.319-1.777,1.2-1.777a8.829,8.829,0,0,1,2,.49c5.267,1.88,8.2,6.931,7.652,13.182-.63,7.205-5.832,12.46-14.261,14.415l-.142.027c-.614.115-1.54.29-1.608,1.059-.082.94.839,2.882,1.932,4.075a2.6,2.6,0,0,0,1.772,1.037c1.57,0,5.6-1.842,6.515-2.3a23.1,23.1,0,0,0,12.812-18.539A17.871,17.871,0,0,0,1614.025,1057.077Zm-19.932,2.23a59.841,59.841,0,0,1-2.758,10.95c-2.107,5.818-5.746,12-8.34,12a1.76,1.76,0,0,1-1.355-.619c-1.24-1.354-1.454-4.555-1.3-6.376a19.294,19.294,0,0,1,11.419-16.022l.005,0a6.713,6.713,0,0,1,1.836-.59.47.47,0,0,1,.366.128A.7.7,0,0,1,1594.093,1059.307Z" fill="#172e59"/><path d="M1417.046,1158.351c-.615-.67-1.391-.274-2.085.062-.135.065-.261.126-.4.186a60.655,60.655,0,0,1-7.025,3.316c-.218,0-.368-.049-.455-.7-.454-3.824-2.549-5.6-6.594-5.6a17.427,17.427,0,0,0-6.726,1.576,2.105,2.105,0,0,1-.921.309c-.049,0-.088-.032-.095-.021a24.521,24.521,0,0,1,2.215-3.231,1.969,1.969,0,0,1,1.634-.833c3.374-.372,7.079-.971,11.321-1.83l.379-.069c1.359-.243,3.049-.546,3.152-1.712a18.363,18.363,0,0,0-.2-3.254c-.078-.619-.261-2.068-1.659-2.068a4.971,4.971,0,0,0-1.61.37,45.484,45.484,0,0,1-6.872,1.633.319.319,0,0,1-.226-.063.216.216,0,0,1-.029-.153,3.447,3.447,0,0,1,.654-1.2c.89-1.364,1.091-1.556,1.955-1.87.6-.231.951-.586.987-1a.85.85,0,0,0-.283-.636c-1.049-1.145-5.727-3.332-6.343-3.332-.863,0-1.1.863-1.26,1.474a35.73,35.73,0,0,1-3.783,7.486c-.538.643-2.436.643-3.456.643h-1.709c-.96,0-1.857-.038-2.648-.071-.608-.025-1.146-.048-1.584-.048-1.771,0-2.079.645-2.288,3.024-.165,1.884-.164,2.805.277,3.286a1.679,1.679,0,0,0,1.309.387c1.074,0,2.005-.062,2.753-.111.539-.035,1-.066,1.386-.066.635,0,.811.117.857.168.013.015.045.049.036.159-.2,1.089-9.327,12.5-11.072,14.236l-.14.149a2.512,2.512,0,0,0-.829,1.349,1.65,1.65,0,0,0,.57,1.173c1.077,1.174,3.548,2.618,4.482,2.618a1.417,1.417,0,0,0,1.162-.742,43.458,43.458,0,0,1,5.5-6.833c2.45-2.306,8.008-5.09,11.235-5.09a1.881,1.881,0,0,1,2.079,1.726,7.509,7.509,0,0,1,.146,1.552c-.04.459-.307.75-.98,1.072-1.391.636-2.687,1.295-3.849,1.957-4.533,2.561-9,5.51-9.467,10.873-.341,3.906,1.56,7.02,5.356,8.768a21.439,21.439,0,0,0,9.316,1.561c2.39,0,9.081-.223,11.453-.773,1.565-.349,1.691-1.077,1.845-2.839.21-2.406.11-3.542-.358-4.052s-1.368-.318-2.082-.2a44.339,44.339,0,0,1-11.006,1.463c-4.533,0-6.4-.995-7.16-1.829a2.6,2.6,0,0,1-.664-2.1c.295-3.374,6.184-5.848,6.566-5.931.173,0,.226.058.244.077a.786.786,0,0,1,.092.55c-.053.607-.136,1.229-.22,1.858-.087.652-.175,1.312-.233,1.971a1.7,1.7,0,0,0,.353,1.363c.565.617,1.677.661,3.439.661,2.423,0,2.884-.4,3.082-2.67.081-.915.144-1.815.208-2.715s.128-1.793.207-2.7l.067-.766c.086-.978.428-1.257,1.494-1.657,2.335-.981,4.75-2,7.2-2.883.123-.047.245-.084.363-.121a3,3,0,0,0,.465-.166c1.093-.336,2.037-.626,2.122-1.594C1418.779,1162.953,1418.047,1159.445,1417.046,1158.351Z" fill="#172e59"/><path d="M1348.234,1073.787c-1.7,0-2.108,1.551-2.543,3.194l-.087.328c-2.108,8.236-3.117,8.236-7.382,8.236h-11.743c-3.594,0-4.042-.139-3.726-3.744l3.006-34.407c.137-1.573.311-2.918,1.062-3.431l.265-.173a1.677,1.677,0,0,0,.992-1.284c.1-1.137-1.176-1.321-1.626-1.386-1.132-.081-6.619-.4-7.64-.4a1.715,1.715,0,0,0-1.975,1.409c-.007.045-.013.089-.017.134a3.233,3.233,0,0,0,0,.931,47.726,47.726,0,0,1-.293,6.013l-2.73,31.25c-.092,1.024-.2,2.046-.307,3.07s-.219,2.058-.31,3.086c-.589,6.754,4.749,7.62,9.466,7.62h17.89c3.829,0,6.6,0,9.257-4.1,1.4-2.253,4.674-9.615,4.888-12.045C1354.972,1074.722,1348.93,1073.787,1348.234,1073.787Z" fill="#ed3242"/><path d="M1324.31,1031.259l.121.086a91.917,91.917,0,0,1,13.318,11.252c.079.073.172.163.275.265.809.789,1.595,1.5,2.3,1.5,1.989,0,5.612-3.288,5.783-5.252a2.093,2.093,0,0,0-.574-1.585l-.106-.14a74.245,74.245,0,0,0-6.882-6.509c-.077-.066-7.735-6.645-9.7-6.645-1.993,0-5.737,3.815-5.855,5.173C1322.911,1030.287,1323.787,1030.9,1324.31,1031.259Z" fill="#ed3242"/><path d="M1361.668,1059.063a96.956,96.956,0,0,0-4.26-11.008,2.107,2.107,0,0,0-2.059-1.57c-1.214,0-6.336,1.651-6.508,3.674a3.863,3.863,0,0,0,.444,1.778,105.062,105.062,0,0,1,6.618,21.416c.172.815.458,2.18,2.192,2.18,1.516,0,6.409-1.589,6.6-3.831C1364.839,1070.059,1362.861,1063.085,1361.668,1059.063Z" fill="#ed3242"/><path d="M1304.108,1057.037a4.5,4.5,0,0,0-3.208,1.33l-14.573,14.764a4.539,4.539,0,0,0,6.416,6.421l14.573-14.764a4.54,4.54,0,0,0-3.208-7.751Z" fill="#ed3242"/><path d="M1272.375,1138.995a1.814,1.814,0,0,0-1.379-.4c-1.212,0-2.428.031-3.643.062s-2.417.062-3.624.062h-5.238c-.828-.077-1.16-.233-1.248-.607.024-.077.041-.142.057-.2.022-.082.04-.152.054-.195l.109-.161a.747.747,0,0,1,.385-.307.37.37,0,0,0,.091-.051c.1-.074.186-.137.268-.194a1.12,1.12,0,0,0,.618-.8.791.791,0,0,0-.207-.619,2.149,2.149,0,0,0-1.543-.454c-1.186-.127-4.394-.374-5.464-.374-.4,0-1.448,0-1.536,1.011a2.03,2.03,0,0,0,.006.34,1.674,1.674,0,0,1,.006.268l.068,1.315c-.066.754-.387,1.034-1.186,1.034h-7.752c-.871,0-1.115-.288-1.212-.621l.135-.434.1-.135a.915.915,0,0,1,.372-.319c.093-.062.18-.117.26-.166.345-.217.672-.421.709-.846a.791.791,0,0,0-.208-.619,2.26,2.26,0,0,0-1.545-.454c-1.268-.129-4.406-.374-5.523-.374-.343,0-1.387,0-1.475,1.011a2.043,2.043,0,0,0,.007.34,1.816,1.816,0,0,1,.006.27,9.947,9.947,0,0,1,.005,1.313c-.068.783-.356,1.034-1.185,1.034h-5.148c-1.206,0-2.425-.031-3.643-.062s-2.451-.062-3.664-.062c-1.757,0-1.829.822-1.987,2.625-.1,1.2-.163,1.856.232,2.287a1.772,1.772,0,0,0,1.354.4c1.212,0,2.443-.031,3.674-.062s2.449-.062,3.655-.062h5.333a.872.872,0,0,1,.622.158.759.759,0,0,1,.1.565l-.012.153c-.12.676-.308.905-.716.944-.815-.064-1.642-.064-2.442-.064-1.574,0-3.212.32-3.419,2.688-.041.467-.067.92-.095,1.4-.031.545-.065,1.13-.125,1.819l-.461,5.27c-.06.682-.127,1.26-.192,1.808-.058.5-.114.977-.158,1.48a2.5,2.5,0,0,0,.507,2,3.251,3.251,0,0,0,2.439.747c.81,0,1.624-.032,2.438-.063s1.608-.061,2.409-.061h.489l-1.787,1.818h-7.358c-1.175,0-2.348-.031-3.52-.063s-2.358-.062-3.539-.062c-1.51,0-1.6.995-1.729,2.5l-.021.236c-.1,1.107-.158,1.775.234,2.2a1.473,1.473,0,0,0,1.114.372c1.18,0,2.362-.016,3.543-.032s2.356-.031,3.533-.031h2.706l-18.862,19.2a3.235,3.235,0,0,0,0,4.566,3.223,3.223,0,0,0,4.558,0l13.8-14.052-.61,6.577c-.054.613-.137,1.211-.22,1.809s-.17,1.223-.224,1.849a1.384,1.384,0,0,0,.273,1.088c.42.458,1.178.485,2.639.485h.962c2.411-.008,3.226,0,3.363-1.59.072-.338.2-.4.449-.4h16.187c.487,0,.595.123.727.832.24,1.09,1,1.09,3.508,1.09h.355c2.3.012,3.263.005,3.395-1.509.055-.626.077-1.237.1-1.847s.043-1.2.1-1.811l.526-6.033c.131-.62.366-.7.6-.7a.615.615,0,0,1,.36.136l.194.113c5.538,3.241,6.772,3.656,7.229,3.656,1.488,0,4.025-3.228,4.14-4.546.085-.968-.854-1.309-1.682-1.609l-.169-.061a41.77,41.77,0,0,1-11.593-6.786l-.039-.063a.506.506,0,0,1-.083-.161c.006-.069.02-.229.432-.229h4.962c1.177,0,2.367.016,3.558.031s2.388.032,3.568.032c1.453,0,1.535-.953,1.658-2.4l.041-.458c.09-1.013.15-1.682-.232-2.1a1.405,1.405,0,0,0-1.065-.361c-1.182,0-2.381.031-3.581.062s-2.387.063-3.562.063l-19.864.005h-1.83l1.789-1.822h11.755c.914,0,1.741.037,2.471.07.612.028,1.167.054,1.674.054,2.467,0,3.842-.429,4.039-2.687.049-.56.081-1.1.113-1.649s.064-1.082.113-1.638l.461-5.271c.046-.525.109-1.066.172-1.607s.126-1.088.172-1.616a2.522,2.522,0,0,0-.494-2.012,3.508,3.508,0,0,0-2.637-.739c-.83,0-1.689,0-2.458.064-.268-.021-.349-.116-.375-.147a1.1,1.1,0,0,1-.109-.764l.011-.123c.05-.581.2-.786.915-.786h5.644c1.206,0,2.409.031,3.613.062s2.419.062,3.632.062c1.761,0,1.831-.809,1.97-2.419l.036-.411C1272.694,1140.035,1272.75,1139.405,1272.375,1138.995Zm-32.893,5.638c.055-.619.3-.848.922-.848h8.31a.579.579,0,0,1,.714.784l-.016.186c-.064.736-.284.8-.815.849h-8.54a.626.626,0,0,1-.469-.134A1.279,1.279,0,0,1,1239.482,1144.633Zm10.188,39a.871.871,0,0,1-.921.848h-15.877a.752.752,0,0,1-.559-.2.766.766,0,0,1-.156-.583l.044-.5a.837.837,0,0,1,.921-.848H1249a.778.778,0,0,1,.573.192.79.79,0,0,1,.142.593Zm.43-7.281a.76.76,0,0,1,.155.584l-.032.371a.886.886,0,0,1-.926.91H1233.42a.709.709,0,0,1-.547-.2.856.856,0,0,1-.162-.65l.032-.372a.87.87,0,0,1,.921-.847h15.877A.752.752,0,0,1,1250.1,1176.354Zm-3.767-6.774a1.542,1.542,0,0,1,1.5.593,4.079,4.079,0,0,0,.619.813l.039.065c.082.132.1.166.091.245s-.026.289-.5.289h-12.094l-2.6-.032a.643.643,0,0,1-.218-.041l1.9-1.932Zm8.628-12.392a.991.991,0,0,1-.924.879h-21.644c-.176,0-.711,0-.715-.784l.028-.341a.925.925,0,0,1,.926-.88h21.61a.729.729,0,0,1,.748.786Zm.528-6.046a.911.911,0,0,1-.92.848h-21.645a.784.784,0,0,1-.573-.191.8.8,0,0,1-.142-.593l.013-.154a.924.924,0,0,1,.925-.88l21.611,0a.736.736,0,0,1,.746.8Z" fill="#172e59"/><ellipse cx="5.204" cy="5.209" rx="5.204" ry="5.209" transform="translate(1379.224 1058.523)" fill="#172e59"/><path d="M1473.3,1054.058c-1.621,0-3.27.04-4.865.079s-3.232.079-4.842.079h-24.038c-1.059,0-1.008-.561-.995-.745a1.234,1.234,0,0,1,.132-.448l.032-.079c.4-.734.754-1.376,1.061-1.938,1.982-3.633,2.1-3.784,3-4.048.8-.13,1.681-.618,1.747-1.376.118-1.347-2.064-2.15-5.407-3.222l-.6-.2c-.594-.206-1.191-.409-1.706-.56h26.307c1.248,0,1.649.442,1.542,1.692l-.117,1.342c-.047.543-.137,1.124-.227,1.706s-.184,1.2-.235,1.766a1.776,1.776,0,0,0,.367,1.418c.622.682,1.891.678,3.786.677h.689c1.9.008,3.025,0,3.735-.65a2.317,2.317,0,0,0,.663-1.6c.04-.464.051-1,.061-1.559.012-.587.022-1.193.071-1.752l.275-3.157c.1-1.175.259-2.323.385-3.245.085-.622.156-1.139.183-1.491.208-2.385-1.344-3.594-4.616-3.594-1.411,0-2.824.019-4.246.04-1.437.019-2.885.039-4.351.039h-12.767c-1.3,0-1.6-.325-1.622-1.692l.092-1.026c.146-1.682.3-2.311.93-2.727.131-.091.252-.173.367-.245.488-.324.916-.6.965-1.21.107-1.221-1.431-1.36-2.256-1.433-.11-.009-.207-.018-.294-.03-1.526-.162-5.439-.476-6.782-.476-.578,0-1.935,0-2.063,1.468a2.654,2.654,0,0,0,.008.427,1.939,1.939,0,0,1,.006.324c0,.331.009.661.015.991a26.159,26.159,0,0,1-.131,3.939c-.111,1.265-.594,1.693-1.917,1.693h-.483c-1.457,0-2.892-.021-4.327-.04s.394-.039-1.067-.039c-1.606-.039-2.587-.079-4.207-.079a2.352,2.352,0,0,0-1.694.509c-.658.606-.746,1.62-.9,3.459l-.059.672c-.163,1.84-.252,2.853.3,3.46a2.027,2.027,0,0,0,1.605.51c1.621,0,2.608-.04,4.222-.079h5.847a3.764,3.764,0,0,0-1.008,1.538l-.916,1.9c-1.212,2.514-2.466,5.115-3.9,7.614a2.6,2.6,0,0,1-2.816,1.559H1417.1c-1.61,0-3.266-.04-4.868-.079s-3.269-.079-4.89-.079a2.35,2.35,0,0,0-1.694.51c-.657.607-.745,1.62-.9,3.46l-.058.671c-.164,1.841-.252,2.853.3,3.461a2.033,2.033,0,0,0,1.6.509c1.621,0,3.29-.04,4.9-.079s3.272-.079,4.882-.079h5.316c1.018.114.986.489.97.669a.661.661,0,0,1-.12.294,1.436,1.436,0,0,0-.111.209,127.272,127.272,0,0,1-7.908,11.476,7.945,7.945,0,0,0-1.491,2.62c-.2,2.333,4.767,3.989,6.4,3.989a3.025,3.025,0,0,0,2.325-1.59l.071-.092a2.276,2.276,0,0,1,1.872-1.155,2.776,2.776,0,0,1,.733.061c2.718.825,5.316,1.7,7.749,2.608.166.044.36.22.347.367-.01.116-.046.253-.322.387a59.48,59.48,0,0,1-22.155,4.542l-.34.015c-1.3.059-2.767.125-2.933,2a12.309,12.309,0,0,0,.6,4.251,2.446,2.446,0,0,0,2.513,2.106c.677,0,3.745-.244,4.415-.319a68.6,68.6,0,0,0,26.624-8.586,3.225,3.225,0,0,1,1.787-.564,2.844,2.844,0,0,1,1.008.189c.108.035.221.072.3.092a118.611,118.611,0,0,1,16.025,8.186l.264.162a4.323,4.323,0,0,0,1.994.841c2.254,0,4.709-4.689,4.869-6.513.091-1.063-.55-1.437-1.719-2.114l-.28-.163a116.807,116.807,0,0,0-13.689-6.634c-.43-.307-.669-.511-.631-.952a1.127,1.127,0,0,1,.443-.753,38.436,38.436,0,0,0,6.787-10.212l.051-.1c.344-.706.485-1,1.075-1.226.128-.048.281-.092.44-.136.722-.208,1.71-.492,1.788-1.376.092-1.054-1.447-1.624-4-2.56h5.445c1.61,0,3.245.04,4.827.079s3.231.079,4.853.079c2.329,0,2.447-1.35,2.705-4.3S1475.638,1054.058,1473.3,1054.058Zm-22.678,9.654c-.025.092-.046.184-.059.26a32.96,32.96,0,0,1-7.368,10.89,2.724,2.724,0,0,1-1.818.9,2.582,2.582,0,0,1-.9-.183c-.115-.038-.237-.078-.357-.113-3.814-1.312-7.594-2.437-11.123-3.473-.716-.245-.917-.479-.875-1a1.526,1.526,0,0,1,.242-.728c1.25-1.884,2.5-3.869,3.941-6.238a2.7,2.7,0,0,1,2.824-1.511h14.383c1.246.115,1.2.669,1.177.905a1.871,1.871,0,0,1-.064.3Z" fill="#ed3242"/><path d="M1415.091,1031.724a3.8,3.8,0,0,0-2.7,1.121l-7.542,7.551a3.831,3.831,0,0,0,0,5.412,3.911,3.911,0,0,0,5.406,0l7.541-7.552a3.844,3.844,0,0,0,0-5.412A3.794,3.794,0,0,0,1415.091,1031.724Z" fill="#ed3242"/><path d="M1444.421,1168.353a1.9,1.9,0,0,0-1.384-.8c-1.259,0-4.994,2.244-5.108,3.554a1.955,1.955,0,0,0,.551,1.364l.1.133a83.9,83.9,0,0,1,5.816,8.869l.036.07c.312.612.667,1.3,1.486,1.3,1.325,0,5.119-2.281,5.242-3.679.088-1.015-2.757-5.215-2.785-5.257S1445.069,1169.062,1444.421,1168.353Z" fill="#172e59"/><path d="M1485.246,1160.294a1.778,1.778,0,0,0-1.35-.428c-1.266,0-2.535.03-3.812.061s-2.581.062-3.889.062h-4.031a1.381,1.381,0,0,1-1.03-.284,1.4,1.4,0,0,1-.194-1.059l.223-2.541c.141-1.608.287-2.38.79-2.712l.157-.111c.469-.326.839-.583.883-1.084a.94.94,0,0,0-.21-.7,2.4,2.4,0,0,0-1.629-.539l-.207-.018c-1.969-.2-4.525-.436-5.519-.436a1.321,1.321,0,0,0-1.552,1.2l-.049.625a22.379,22.379,0,0,1-.11,4.026l-.2,2.232c-.092,1.052-.478,1.406-1.528,1.406h-21.83c-1.3,0-2.58-.031-3.862-.061s-2.574-.062-3.879-.062c-1.759,0-1.845.986-2.053,3.368l-.023.263c-.129,1.458-.2,2.26.251,2.753a1.7,1.7,0,0,0,1.293.416c1.305,0,2.6-.031,3.89-.062s2.573-.062,3.873-.062h21.829a1.009,1.009,0,0,1,1.225,1.343l-1.02,11.657c-.334,3.812-.5,4.444-4.522,4.444-.755,0-1.536,0-2.238-.058a13.2,13.2,0,0,0-1.591-.128c-.985,0-1.644.819-1.764,2.191a8.991,8.991,0,0,0,.8,4.44c.651,1.038,2.562,1.038,3.7,1.038,8.039,0,12.331-2.468,12.757-7.337.068-.788.1-1.56.139-2.324.035-.739.069-1.47.133-2.2l1.02-11.657c.092-1.051.477-1.406,1.528-1.406h4.031c1.268,0,2.55.031,3.831.062s2.574.062,3.848.062c1.823,0,1.907-.974,2.092-3.107l.045-.517C1485.63,1161.591,1485.7,1160.792,1485.246,1160.294Z" fill="#172e59"/><path d="M1455.424,1148.725h20.789c.986,0,1.3.349,1.219,1.336l-.093,1.061c-.037.429-.108.889-.179,1.348s-.145.948-.186,1.4a1.406,1.406,0,0,0,.29,1.121c.492.538,1.495.535,2.992.535h.545c1.5.006,2.39,0,2.951-.514a1.834,1.834,0,0,0,.524-1.267c.032-.367.04-.792.048-1.232.009-.464.018-.943.056-1.385l.217-2.494c.081-.929.206-1.836.3-2.564.067-.492.123-.9.145-1.178.164-1.885-1.063-2.841-3.648-2.841-1.116,0-2.232.015-3.356.031s-2.28.032-3.438.032h-10.089c-1.027,0-1.266-.257-1.282-1.338l.073-.811c.116-1.328.237-1.826.735-2.154.1-.073.2-.137.289-.194.387-.256.725-.478.763-.956.085-.965-1.13-1.075-1.783-1.133-.086-.007-.163-.014-.231-.023-1.206-.128-4.3-.376-5.36-.376-.457,0-1.529,0-1.631,1.16a2.113,2.113,0,0,0,.007.337,1.561,1.561,0,0,1,.005.256c0,.261.007.522.011.783a20.631,20.631,0,0,1-.1,3.113c-.088,1-.47,1.338-1.515,1.338h-.382c-1.151,0-2.285-.016-3.419-.032s.311-.031-.843-.031c-1.27-.03-2.045-.062-3.325-.062a1.862,1.862,0,0,0-1.339.4c-.52.479-.589,1.28-.714,2.734l-.046.531c-.129,1.454-.2,2.254.236,2.734a1.6,1.6,0,0,0,1.268.4c1.281,0,2.061-.032,3.336-.062h4.621Z" fill="#172e59"/><path d="M1438.25,1140.538a3.39,3.39,0,0,0-2.407.995l-5.961,5.967a3.414,3.414,0,0,0,0,4.819,3.4,3.4,0,0,0,4.815,0l5.959-5.968a3.4,3.4,0,0,0-2.406-5.813Z" fill="#172e59"/><path d="M1279.958,1054.058c-1.621,0-3.27.04-4.865.079s-3.231.079-4.842.079h-24.037c-1.06,0-1.009-.561-.995-.745a1.236,1.236,0,0,1,.132-.448l.031-.079c.405-.734.755-1.376,1.061-1.938,1.982-3.633,2.1-3.784,3-4.048.8-.13,1.681-.618,1.747-1.376.118-1.347-2.064-2.15-5.408-3.222l-.6-.2c-.594-.206-1.192-.409-1.706-.56h26.3c1.249,0,1.65.442,1.544,1.692l-.118,1.342c-.047.543-.137,1.124-.227,1.706s-.184,1.2-.235,1.766a1.78,1.78,0,0,0,.367,1.418c.622.682,1.892.678,3.786.677h.689c1.9.008,3.025,0,3.735-.65a2.323,2.323,0,0,0,.663-1.6c.041-.464.051-1,.061-1.559.011-.587.023-1.193.071-1.752l.275-3.157c.1-1.175.26-2.323.385-3.245.085-.622.155-1.139.183-1.491.209-2.385-1.345-3.594-4.615-3.594-1.412,0-2.824.019-4.247.04s-2.885.039-4.351.039h-12.767c-1.3,0-1.6-.325-1.622-1.692l.092-1.026c.147-1.682.3-2.311.93-2.727.131-.091.252-.173.367-.245.489-.324.916-.6.965-1.21.107-1.221-1.431-1.36-2.256-1.433-.109-.009-.207-.018-.293-.03-1.527-.162-5.44-.476-6.783-.476-.578,0-1.935,0-2.063,1.468a2.654,2.654,0,0,0,.008.427,1.84,1.84,0,0,1,.006.324c0,.331.009.661.015.991a26.288,26.288,0,0,1-.131,3.939c-.111,1.265-.595,1.693-1.917,1.693h-.484c-1.456,0-2.017-.021-3.449-.04s-.484-.039-1.943-.039c-1.608-.039-8.24-.079-9.86-.079a2.353,2.353,0,0,0-1.695.509c-.657.606-.745,1.62-.9,3.459l-.058.672c-.164,1.84-.253,2.853.3,3.46a2.023,2.023,0,0,0,1.6.51c1.621,0,8.26-.04,9.874-.079h5.847a3.75,3.75,0,0,0-1,1.538l-.917,1.9c-1.211,2.514-2.465,5.115-3.9,7.614a2.6,2.6,0,0,1-2.815,1.559h-9.142c-1.61,0-3.267-.04-4.869-.079s-3.269-.079-4.89-.079a2.349,2.349,0,0,0-1.693.51c-.658.607-.746,1.62-.9,3.46l-.059.671c-.163,1.841-.253,2.853.3,3.461a2.037,2.037,0,0,0,1.6.509c1.622,0,3.29-.04,4.9-.079s3.271-.079,4.881-.079h5.316c1.018.114.987.489.97.669a.649.649,0,0,1-.119.294,1.552,1.552,0,0,0-.111.209,127.473,127.473,0,0,1-7.908,11.476,7.926,7.926,0,0,0-1.491,2.62c-.205,2.333,4.766,3.989,6.394,3.989a3.023,3.023,0,0,0,2.325-1.59l.072-.092a2.273,2.273,0,0,1,1.871-1.155,2.78,2.78,0,0,1,.734.061c2.718.825,5.315,1.7,7.748,2.608.167.044.36.22.348.367-.011.116-.046.253-.322.387a59.485,59.485,0,0,1-22.156,4.542l-.339.015c-1.3.059-2.767.125-2.933,2a12.309,12.309,0,0,0,.6,4.251,2.446,2.446,0,0,0,2.513,2.106c.676,0,3.744-.244,4.414-.319a68.591,68.591,0,0,0,26.624-8.586,3.228,3.228,0,0,1,1.788-.564,2.853,2.853,0,0,1,1,.189c.108.035.221.072.3.092a118.6,118.6,0,0,1,16.025,8.186l.263.162a4.322,4.322,0,0,0,1.994.841c2.255,0,4.709-4.689,4.869-6.513.091-1.063-.55-1.437-1.719-2.114l-.275-.163a116.807,116.807,0,0,0-13.689-6.634c-.43-.307-.669-.511-.631-.952a1.123,1.123,0,0,1,.443-.753,38.433,38.433,0,0,0,6.787-10.212l.051-.1c.343-.706.484-1,1.074-1.226.129-.048.282-.092.441-.136.721-.208,1.71-.492,1.788-1.376.092-1.054-1.447-1.624-4-2.56h5.443c1.61,0,3.246.04,4.828.079s3.23.079,4.852.079c2.33,0,2.448-1.35,2.706-4.3S1282.289,1054.058,1279.958,1054.058Zm-22.677,9.654a2.622,2.622,0,0,0-.06.26,32.958,32.958,0,0,1-7.368,10.89,2.724,2.724,0,0,1-1.817.9,2.593,2.593,0,0,1-.9-.183c-.114-.038-.236-.078-.355-.113-3.814-1.312-7.6-2.437-11.124-3.473-.716-.245-.916-.479-.874-1a1.494,1.494,0,0,1,.242-.728c1.249-1.884,2.5-3.869,3.936-6.238a2.7,2.7,0,0,1,2.824-1.511h14.383c1.245.115,1.2.669,1.177.905a1.769,1.769,0,0,1-.064.3Z" fill="#ed3242"/><path d="M1217.006,1031.724a3.8,3.8,0,0,0-2.7,1.121l-7.542,7.551a3.831,3.831,0,0,0,0,5.412,3.91,3.91,0,0,0,5.405,0l7.541-7.552a3.842,3.842,0,0,0,0-5.412A3.794,3.794,0,0,0,1217.006,1031.724Z" fill="#ed3242"/><path d="M1198.658,1050.082a3.789,3.789,0,0,0-2.7,1.121l-1.343,1.352a3.83,3.83,0,0,0,0,5.41,3.792,3.792,0,0,0,2.7,1.122h.013a3.826,3.826,0,0,0,2.693-1.118l1.344-1.353a3.832,3.832,0,0,0,0-5.413A3.791,3.791,0,0,0,1198.658,1050.082Z" fill="#ed3242"/><path d="M1262.716,985.854a3.8,3.8,0,0,0-2.7,1.121l-34.58,34.636a3.828,3.828,0,0,0,2.66,6.535h.052a3.818,3.818,0,0,0,2.692-1.12l34.582-34.638a3.833,3.833,0,0,0,0-5.412A3.8,3.8,0,0,0,1262.716,985.854Z" fill="#ed3242"/><path d="M1673.129,1156.517a1.458,1.458,0,0,0-1.149-.4c-1.124,0-2.251.047-3.341.093s-2.2.092-3.31.092H1651a1.009,1.009,0,0,1-1.225-1.342l1.211-13.827c.156-1.792.294-2.681.9-3.1l.234-.186c.4-.311.685-.535.73-1.055.093-1.064-1.207-1.19-1.831-1.251l-.1-.01c-.328-.022-1.015-.083-1.8-.153-1.478-.132-3.154-.282-3.648-.282-.452,0-1.51,0-1.616,1.2a2.756,2.756,0,0,0,0,.362,2.069,2.069,0,0,1,0,.287c-.012,1.564-.035,3.223-.174,4.808l-1.15,13.146c-.092,1.051-.478,1.405-1.528,1.405h-14.7c-1.07,0-2.161-.046-3.217-.091-1.086-.046-2.209-.094-3.34-.094-1.638,0-1.731,1.069-1.915,3.2l-.05.58c-.133,1.495-.206,2.318.246,2.812a1.543,1.543,0,0,0,1.17.4c1.128,0,2.243-.031,3.349-.063,1.085-.03,2.162-.061,3.236-.061h9.851l-32.432,32.4a3.407,3.407,0,0,0,2.407,5.818h.01a3.4,3.4,0,0,0,2.4-1l37.255-37.222h.42a1.009,1.009,0,0,1,1.224,1.343l-1.389,15.874c-.063.72-.141,1.423-.217,2.118s-.15,1.36-.209,2.036c-.175,2,.146,3.414.982,4.326,1.116,1.219,3,1.463,5.666,1.463h9.737c3.114,0,5.47-.253,7.427-3.528a26.917,26.917,0,0,0,2.968-8.708,2.013,2.013,0,0,0-.564-1.582,6.617,6.617,0,0,0-4.086-1.54c-1.625,0-1.963,1.282-2.189,2.142l-.068.3c-1.062,4.653-1.383,6.057-4.191,6.057h-6.2c-1.08,0-1.621-.109-1.867-.377s-.3-.8-.212-1.833l1.455-16.646c.207-1.1.566-1.441,1.533-1.441h9.3c1.12,0,2.238.031,3.348.063s2.195.061,3.277.061c1.638,0,1.74-1.19,1.911-3.16l.047-.548C1673.522,1157.922,1673.6,1157.033,1673.129,1156.517Z" fill="#172e59"/><path d="M1596.623,1203.466a3.4,3.4,0,0,0-2.407,1l-5.96,5.968a3.414,3.414,0,0,0,0,4.819,3.4,3.4,0,0,0,4.814,0l5.96-5.967a3.405,3.405,0,0,0-2.407-5.815Z" fill="#172e59"/><path d="M1658.236,1152.115a3.381,3.381,0,0,0,2.407-1l5.96-5.968a3.406,3.406,0,0,0-4.814-4.819l-5.96,5.968a3.408,3.408,0,0,0,2.407,5.817Z" fill="#172e59"/><path d="M1630.814,1150.434a3.406,3.406,0,0,0,6.273-2.656l-2.806-6.483a3.4,3.4,0,0,0-4.462-1.809,3.423,3.423,0,0,0-1.81,4.466Z" fill="#172e59"/><path d="M1582.124,1217.971a3.383,3.383,0,0,0-2.407,1l-1.062,1.07a3.406,3.406,0,0,0,2.4,5.815h.01a3.406,3.406,0,0,0,2.4-1l1.063-1.069a3.408,3.408,0,0,0-2.407-5.818Z" fill="#172e59"/><path d="M1529.15,1159.919a16.659,16.659,0,0,0-7.251-1.806,15.146,15.146,0,0,0-2.6.206,10.838,10.838,0,0,0-2.651.679l11.252-11.231a3.379,3.379,0,0,0,0-4.776,3.333,3.333,0,0,0-1.411-.829,3.558,3.558,0,0,0-1.34-.191,17.752,17.752,0,0,0-3.418.651l-.382.139c-3.436,1.317-11.163,2.157-14.974,2.157h-1.414c-1.9,0-2.159.2-2.3,1.785-.015.178-.368,4.359.655,5.475a.917.917,0,0,0,.687.319c1.027,0,9.65-1.759,10.9-2.066.111-.018.261-.047.424-.078s.351-.069.523-.1l-20.919,20.881a3.377,3.377,0,0,0,2.386,5.766h0a3.351,3.351,0,0,0,2.386-.989l6.381-6.37a18.349,18.349,0,0,1,13.326-5.263c3.228,0,5.852.923,7.389,2.6a6.4,6.4,0,0,1,1.52,5.1c-.511,5.839-6.279,8.758-7.58,8.758-.115,0-.273,0-.3-.391a5.89,5.89,0,0,0-.774-3.969,8.964,8.964,0,0,0-7.769-4.358,8.533,8.533,0,0,0-8.508,7.441,6.255,6.255,0,0,0,1.618,4.967c2.31,2.521,6.611,3.419,9.866,3.419a23.346,23.346,0,0,0,13.476-4.077,16.206,16.206,0,0,0,6.988-12.083C1535.805,1166.41,1533.665,1162.343,1529.15,1159.919Zm-15.963,22.346a5.131,5.131,0,0,1-3.468-1.307,1.827,1.827,0,0,1-.512-1.441,2.387,2.387,0,0,1,2.4-2.043,3.04,3.04,0,0,1,2.277.966,2.807,2.807,0,0,1,.729,2.135C1514.555,1181.2,1514.194,1182.265,1513.187,1182.265Z" fill="#172e59"/><path d="M1571.382,1118.286c.108.036.445.12.445.252,0,.06-.073.1-.109.119-.18.109-.192.156-.276.42-.036.132-.288,1.008-.288,1.068a.177.177,0,0,0,.18.18,8.466,8.466,0,0,0,1.393-.444.644.644,0,0,1,.252-.06c.24,0,.24.732.24.911,0,.2-.024.372-.228.432a18.067,18.067,0,0,1-1.969.468c-.348.072-.384.132-.493.468a37.3,37.3,0,0,1-2.233,5.289c-.156.288-.252.456-.432.456s-1.021-.384-1.021-.648a.9.9,0,0,1,.2-.4,23.527,23.527,0,0,0,2.125-4.438,1.745,1.745,0,0,0,.1-.311c0-.12-.1-.18-.217-.18-.168,0-.7.06-1.068.06-.24,0-.433.012-.505-.216a5.141,5.141,0,0,1-.1-.875c0-.132.036-.216.18-.216.108,0,.613.048,1.129.048.769,0,.949-.013,1.057-.193a10.963,10.963,0,0,0,.444-2.182c.012-.18.012-.3.132-.3S1571.226,1118.238,1571.382,1118.286Zm-.168,7.735a2.907,2.907,0,0,0,2.174.7,5.461,5.461,0,0,0,1.705-.239.425.425,0,0,1,.12-.025c.2,0,.2.276.2.756,0,.24.012.516-.132.6a11.583,11.583,0,0,1-1.873.156,5.1,5.1,0,0,1-2.57-.54c-.193-.132-.589-.432-.589-.684,0-.179.553-.887.745-.887C1571.082,1125.854,1571.166,1125.962,1571.214,1126.021Zm1.465-3.874a8.664,8.664,0,0,1,2.414.336.228.228,0,0,1,.168.241,3.009,3.009,0,0,1-.228.839c-.048.108-.1.156-.217.156a.966.966,0,0,1-.252-.06,5.13,5.13,0,0,0-1.909-.3c-.156,0-.3.012-.456.012-.241,0-.3-.059-.3-.264C1571.9,1122.076,1572.115,1122.147,1572.679,1122.147Zm2.462-2c0,.18-.445.528-.589.528-.072,0-.12-.072-.168-.132a10.56,10.56,0,0,0-.828-.96c-.036-.036-.108-.107-.108-.168,0-.156.48-.479.588-.479A4.641,4.641,0,0,1,1575.141,1120.145Zm1.249-.768c0,.181-.445.54-.589.54-.072,0-.132-.084-.18-.144a10.294,10.294,0,0,0-.829-.96c-.036-.036-.1-.095-.1-.156,0-.143.445-.491.589-.491A4.642,4.642,0,0,1,1576.39,1119.377Z" fill="#172e59"/><path d="M1582.457,1120.349c.1.024.264.047.264.168,0,.072-.048.1-.12.156-.168.132-.18.371-.216.575a8.932,8.932,0,0,0-.1,1.272,6.846,6.846,0,0,0,.384,2.506c.144.336.54,1.043.961,1.043.336,0,.684-.527.828-.791.072-.12.168-.3.325-.3.252,0,.864.491.864.707s-.54.851-.709,1.043a1.725,1.725,0,0,1-1.284.755,2.541,2.541,0,0,1-1.982-1.535,8.645,8.645,0,0,1-.7-3.909c0-.192.037-1.715.061-1.823a.149.149,0,0,1,.168-.132C1581.364,1120.085,1582.252,1120.313,1582.457,1120.349Zm4.887-.241a3.9,3.9,0,0,1,1.85,1.86,6.541,6.541,0,0,1,.708,2.495c0,.227-.12.287-.324.348a2.586,2.586,0,0,1-.673.107c-.384,0-.372-.168-.4-.455a4.6,4.6,0,0,0-1.777-3.419.2.2,0,0,1-.108-.18C1586.624,1120.637,1587.1,1120.108,1587.344,1120.108Z" fill="#172e59"/><path d="M1638.224,1124.247c.156,0,.192.107.216.228.252,1.271,1.273,1.451,2.4,1.451a14.957,14.957,0,0,0,3.578-.42.985.985,0,0,1,.181-.036c.18,0,.264.2.264.983,0,.229-.06.372-.288.444a21.98,21.98,0,0,1-3.6.336,3.857,3.857,0,0,1-3.374-1.248,2.784,2.784,0,0,1-.469-1.163C1637.131,1124.522,1638.212,1124.247,1638.224,1124.247Zm.2-4.186c.036-.2.06-.419.288-.419a1.758,1.758,0,0,1,.348.071,7.751,7.751,0,0,0,2.042.252,10.234,10.234,0,0,0,2.174-.24.6.6,0,0,1,.156-.024c.3,0,.312.54.312,1.031,0,.289-.06.312-.336.361a16.576,16.576,0,0,1-2.174.143,10.312,10.312,0,0,1-2.738-.3.25.25,0,0,1-.168-.252A4.159,4.159,0,0,1,1638.428,1120.061Z" fill="#172e59"/><path d="M1656.7,1123.707c0,1.883-1.393,3.37-2.918,4.294a3.566,3.566,0,0,1-1.033.443c-.36,0-.852-.815-.852-1.007,0-.12.131-.168.24-.2,1.441-.456,3.218-1.763,3.218-3.43a1.547,1.547,0,0,0-1.669-1.656,4,4,0,0,0-2.57,1.128.547.547,0,0,1-.252.121c-.289,0-.673-.865-.673-1.14,0-.193.216-.3.36-.372a6.9,6.9,0,0,1,3.207-.972A2.7,2.7,0,0,1,1656.7,1123.707Zm-4.984-5.1c.048-.107.1-.227.241-.227a.425.425,0,0,1,.192.072,12.608,12.608,0,0,0,3,.6c.168.011.3.011.3.191a5.171,5.171,0,0,1-.12.732c-.06.24-.132.36-.324.36a25.4,25.4,0,0,1-2.762-.54c-.5-.132-.769-.192-.769-.384A2.821,2.821,0,0,1,1651.713,1118.609Z" fill="#172e59"/><path d="M1564.342,1051.756l-.113-.058c-11.912-6.091-21.615-14.11-29.021-27.141l-.012.005a4.341,4.341,0,0,0-.5-.615,4.32,4.32,0,0,0-6.115,0l-44.52,44.6a4.329,4.329,0,0,0,3.057,7.391h.01a4.323,4.323,0,0,0,3.048-1.267l19.319-19.353c-.054.407-.1.849-.138,1.338l-.054.619c-.163,1.845-.253,2.862.321,3.487a2.352,2.352,0,0,0,1.8.551c1.422,0,2.828-.038,4.234-.078s2.795-.078,4.209-.078h2.835a1.632,1.632,0,0,1,1.228.348,1.785,1.785,0,0,1,.248,1.358l-.344,3.938c-.117,1.334-.587,1.786-1.862,1.786h-5.278c-1.532,0-3.061-.04-4.589-.079s-3.074-.079-4.614-.079c-2.317,0-2.429,1.3-2.652,3.887l-.055.628c-.157,1.777-.253,2.851.336,3.494a2.151,2.151,0,0,0,1.7.55c1.545,0,3.117-.06,4.637-.118s3.074-.118,4.6-.118h5.278a1.6,1.6,0,0,1,1.212.362,1.754,1.754,0,0,1,.264,1.344l-.393,4.49c-.117,1.335-.586,1.786-1.862,1.786h-15.677c-1.606,0-3.238-.06-4.818-.118s-3.227-.118-4.851-.118c-2.238,0-2.364,1.456-2.592,4.1l-.06.683c-.171,1.928-.265,2.992.327,3.637a2.04,2.04,0,0,0,1.623.533c1.618,0,3.24-.039,4.862-.078s3.23-.079,4.841-.079h44.115c1.611,0,3.219.04,4.826.079s3.231.078,4.85.078c2.237,0,2.355-1.367,2.591-4.091l.059-.68c.165-1.862.265-2.986-.338-3.644a2.125,2.125,0,0,0-1.61-.538c-1.623,0-3.274.06-4.872.118s-3.231.118-4.838.118h-15.519a1.282,1.282,0,0,1-1.555-1.706l.393-4.49c.114-1.3.64-1.786,1.941-1.786h5.121c1.527,0,3.079.06,4.58.118s3.07.118,4.615.118c2.4,0,2.518-1.411,2.74-3.975l.053-.608c.154-1.736.246-2.783-.334-3.417a2.271,2.271,0,0,0-1.789-.559c-1.541,0-3.084.04-4.628.079s-3.071.079-4.6.079h-5.12a1.283,1.283,0,0,1-1.556-1.707l.345-3.938c.116-1.334.606-1.785,1.941-1.785h2.914c1.424,0,2.844.04,4.255.079s2.788.077,4.161.077c2.4,0,2.517-1.412,2.739-3.976l.051-.588a7.024,7.024,0,0,0-.067-2.961c1.567,1.144,9.223,6.659,11.139,6.659,2.311,0,5.028-4.941,5.183-6.721C1566.086,1052.666,1565.119,1052.161,1564.342,1051.756Zm-16.726.993c-1.378,0-2.8.06-4.184.118-1.4.058-2.847.119-4.265.119H1520.5c-1.409,0-2.84-.06-4.225-.118s-2.806-.117-4.22-.118L1531,1033.771a85.745,85.745,0,0,0,17.412,19.048A4,4,0,0,0,1547.616,1052.749Z" fill="#ed3242"/></g></svg>