<svg xmlns="http://www.w3.org/2000/svg" width="485" height="100" viewBox="0 0 485 100">
  <g id="homeText6" transform="translate(-1605.01 -2973.084)">
    <path id="パス_392" data-name="パス 392" d="M1616.066,3067.139a5.47,5.47,0,0,1-1.546,4.043,5.321,5.321,0,0,1-3.923,1.545,5.3,5.3,0,0,1-5.587-5.588v-86.445a6.137,6.137,0,0,1,6.538-6.54h8.679q8.559,0,12.9,3.983t4.339,13.615v19.857a21.376,21.376,0,0,1-1.546,8.977,11.569,11.569,0,0,1-4.874,5.174q.831,4.992,1.546,8.738t1.307,7.73q.594,3.984,1.368,9.036t1.842,12.545a13.306,13.306,0,0,1,.3,2.081q.06,1.013.06,1.606a4.554,4.554,0,0,1-1.783,3.924,6.678,6.678,0,0,1-4.042,1.307,6.42,6.42,0,0,1-3.685-1.129,5.536,5.536,0,0,1-2.14-3.865,5.242,5.242,0,0,0-.119-.951,19.849,19.849,0,0,1-.238-2.022q-.12-1.426-.475-4.043t-.892-6.9q-.534-4.281-1.426-10.583t-2.081-15.22h-4.517Zm10.224-73.127a15.646,15.646,0,0,0-1.07-6.66q-1.071-2.139-4.993-2.139h-4.161v32.817h4.28q5.942,0,5.944-6.3Z" fill="#172e59"/>
    <path id="パス_393" data-name="パス 393" d="M1682.279,3066.544a5.119,5.119,0,0,1-5.468,5.47h-15.692a6.137,6.137,0,0,1-6.538-6.54v-84.78a6.137,6.137,0,0,1,6.538-6.54h15.1a5.288,5.288,0,0,1,5.468,5.469,5.469,5.469,0,0,1-1.545,4.043,5.313,5.313,0,0,1-3.923,1.547h-10.7V3016.6h5.944q5.11,0,5.112,5.469,0,5.591-5.112,5.589h-5.944v33.412h11.294a5.119,5.119,0,0,1,5.468,5.47Z" fill="#172e59"/>
    <path id="パス_394" data-name="パス 394" d="M1717.858,3043a15.934,15.934,0,0,0-.713-5.291,17.952,17.952,0,0,0-2.734-4.578q-1.189-1.542-3.091-3.745t-3.864-4.578q-1.961-2.378-3.8-4.638a43.819,43.819,0,0,1-2.912-3.924,17.447,17.447,0,0,1-2.318-5.35,30.934,30.934,0,0,1-.654-7.015v-14.626q0-16.168,15.811-16.171,8.082,0,11.471,3.983t3.388,12.188v13.436a5.118,5.118,0,1,1-10.223,0v-13.317a6.194,6.194,0,0,0-1.07-3.8,4.169,4.169,0,0,0-3.566-1.427q-4.636,0-4.637,5.113v14.507a15.92,15.92,0,0,0,.357,3.566,8.059,8.059,0,0,0,1.546,3.092,28.225,28.225,0,0,0,2.615,3.33q1.784,2.024,3.8,4.34t3.982,4.756q1.962,2.439,3.388,4.459a22.535,22.535,0,0,1,1.962,3.27,19.3,19.3,0,0,1,1.248,3.388,26.965,26.965,0,0,1,.713,3.924,46.011,46.011,0,0,1,.238,4.994v14.031q0,7.849-3.626,12.01t-11.828,4.162q-8.2,0-11.888-4.162t-3.685-12.01v-16.289a5.025,5.025,0,0,1,1.486-3.8,5.338,5.338,0,0,1,3.863-1.427,4.909,4.909,0,0,1,5.231,5.232v16.289a5.949,5.949,0,0,0,1.129,3.8,4.348,4.348,0,0,0,3.626,1.428q4.753,0,4.755-5.233Z" fill="#172e59"/>
    <path id="パス_395" data-name="パス 395" d="M1773.6,3066.544a5.119,5.119,0,0,1-5.468,5.47h-15.692a6.139,6.139,0,0,1-6.539-6.54v-84.78a6.139,6.139,0,0,1,6.539-6.54h15.1a5.288,5.288,0,0,1,5.468,5.469,5.473,5.473,0,0,1-1.545,4.043,5.313,5.313,0,0,1-3.923,1.547h-10.7V3016.6h5.944q5.11,0,5.112,5.469,0,5.591-5.112,5.589h-5.944v33.412h11.294a5.119,5.119,0,0,1,5.468,5.47Z" fill="#172e59"/>
    <path id="パス_396" data-name="パス 396" d="M1801.07,3067.139a5.473,5.473,0,0,1-1.545,4.043,5.323,5.323,0,0,1-3.923,1.545,5.3,5.3,0,0,1-5.587-5.588v-86.445a6.137,6.137,0,0,1,6.538-6.54h8.678q8.559,0,12.9,3.983t4.339,13.615v19.857a21.393,21.393,0,0,1-1.545,8.977,11.575,11.575,0,0,1-4.874,5.174q.83,4.992,1.545,8.738t1.308,7.73q.594,3.984,1.367,9.036t1.843,12.545a13.423,13.423,0,0,1,.3,2.081q.058,1.013.059,1.606a4.552,4.552,0,0,1-1.783,3.924,6.676,6.676,0,0,1-4.042,1.307,6.422,6.422,0,0,1-3.685-1.129,5.536,5.536,0,0,1-2.139-3.865,5.331,5.331,0,0,0-.119-.951,19.849,19.849,0,0,1-.238-2.022q-.12-1.426-.476-4.043t-.891-6.9q-.535-4.281-1.427-10.583t-2.08-15.22h-4.518Zm10.224-73.127a15.646,15.646,0,0,0-1.07-6.66q-1.07-2.139-4.993-2.139h-4.161v32.817h4.28q5.943,0,5.944-6.3Z" fill="#172e59"/>
    <path id="パス_397" data-name="パス 397" d="M1863.979,3065.592q-.6,4.638-2.317,5.887t-5.41,1.248q-4.635,0-6.241-1.486t-2.08-5.767l-9.511-83.116q-.356-2.97-.356-3.686a4.57,4.57,0,0,1,1.842-3.805,6.542,6.542,0,0,1,4.1-1.427,5.924,5.924,0,0,1,3.447,1.07,4.485,4.485,0,0,1,1.784,3.449q.593,7.134,1.367,14.863t1.486,15.339q.712,7.611,1.426,14.745t1.248,13.2q.536,6.064.952,10.642t.534,6.956q.237-3.684,1.07-11.891t1.962-18.846q1.128-10.641,2.378-22.473t2.317-22.771a4.243,4.243,0,0,1,1.724-3.27,5.7,5.7,0,0,1,3.269-1.011,6.324,6.324,0,0,1,3.8,1.308,4.308,4.308,0,0,1,1.783,3.686q0,.6-.356,3.449Z" fill="#172e59"/>
    <path id="パス_398" data-name="パス 398" d="M1920.089,3063.453c.158,1.03.257,1.8.3,2.318s.06.972.06,1.368a5.066,5.066,0,0,1-1.724,4.221,5.77,5.77,0,0,1-3.626,1.367,5.967,5.967,0,0,1-3.388-1.189,4.745,4.745,0,0,1-1.962-3.686l-1.308-10.94h-12.006l-1.427,11.059a5.155,5.155,0,0,1-1.961,3.567,5.462,5.462,0,0,1-3.27,1.189,5.527,5.527,0,0,1-3.566-1.367,5,5,0,0,1-1.664-4.1q0-.594.059-1.368c.04-.514.138-1.249.3-2.2l10.937-84.542a6.574,6.574,0,0,1,2.081-4.162,7.151,7.151,0,0,1,4.933-1.546,7.388,7.388,0,0,1,4.993,1.546,6.451,6.451,0,0,1,2.14,4.162Zm-12.838-16.648q-1.309-11.175-2.5-22.413t-2.259-22.771q-1.07,11.535-2.318,22.949T1897.5,3046.8Z" fill="#172e59"/>
    <path id="パス_399" data-name="パス 399" d="M1950.414,3071.241a5.473,5.473,0,0,1-9.451-3.983v-82.045h-5.349q-5.591,0-5.588-5.352,0-5.706,5.588-5.707h21.754q5.467,0,5.469,5.707,0,5.35-5.469,5.352H1951.9v82.045A5.385,5.385,0,0,1,1950.414,3071.241Z" fill="#172e59"/>
    <path id="パス_400" data-name="パス 400" d="M1988.323,3071.241a5.473,5.473,0,0,1-9.451-3.983V2978.91a5.473,5.473,0,1,1,10.937,0v88.348A5.389,5.389,0,0,1,1988.323,3071.241Z" fill="#172e59"/>
    <path id="パス_401" data-name="パス 401" d="M2007.355,2989.731q0-16.647,15.574-16.647,15.69,0,15.691,16.647v66.706q0,16.648-15.691,16.647-15.576,0-15.574-16.647Zm20.329,0q0-5.589-4.755-5.589-4.636,0-4.636,5.589v66.706q0,5.707,4.636,5.708,4.752,0,4.755-5.708Z" fill="#172e59"/>
    <path id="パス_402" data-name="パス 402" d="M2088.524,3071.241a5.232,5.232,0,0,1-3.864,1.486h-.119q-5.112,0-6.3-5.113-2.38-10.939-4.28-19.917t-3.506-16.408q-1.605-7.431-2.972-13.734t-2.556-11.891q.235,10.109.238,20.512v41.795a4.667,4.667,0,0,1-1.308,3.449,4.518,4.518,0,0,1-3.329,1.307,4.492,4.492,0,0,1-4.755-4.756v-88.11a6.273,6.273,0,0,1,1.783-4.637,6.584,6.584,0,0,1,4.875-1.784,7.346,7.346,0,0,1,4.933,1.486,6.687,6.687,0,0,1,2.2,3.865q2.139,12.129,3.745,21.225t2.972,16.29q1.365,7.2,2.437,13.139t2.14,11.891q-.241-8.561-.238-16.766v-46.492a4.507,4.507,0,0,1,1.308-3.33,4.659,4.659,0,0,1,3.446-1.308,4.476,4.476,0,0,1,4.637,4.638v89.3A5.228,5.228,0,0,1,2088.524,3071.241Z" fill="#172e59"/>
  </g>
</svg>
