<svg xmlns="http://www.w3.org/2000/svg" width="75" height="25" viewBox="0 0 75 25">
  <g id="homeText3" transform="translate(-697.059 -1532.817)">
    <path id="パス_404" data-name="パス 404" d="M699.793,1556.36a1.368,1.368,0,1,1-2.734,0v-21.64a1.533,1.533,0,0,1,1.634-1.635h2.23a4.319,4.319,0,0,1,3.24,1.056,4.756,4.756,0,0,1,1.011,3.374v4.012a4.653,4.653,0,0,1-1.026,3.36,4.323,4.323,0,0,1-3.2,1.04h-1.16Zm2.676-18.876a1.816,1.816,0,0,0-.357-1.233,1.522,1.522,0,0,0-1.189-.4h-1.13v7.4h1.16q1.515,0,1.516-1.635Z" fill="#868c9e"/>
    <path id="パス_405" data-name="パス 405" d="M712.368,1556.331a1.372,1.372,0,0,1-.387,1.011,1.333,1.333,0,0,1-.981.387,1.326,1.326,0,0,1-1.4-1.4V1534.72a1.535,1.535,0,0,1,1.635-1.635h2.17a4.62,4.62,0,0,1,3.225,1,4.465,4.465,0,0,1,1.085,3.4v4.965a5.353,5.353,0,0,1-.386,2.244,2.894,2.894,0,0,1-1.219,1.293q.207,1.248.387,2.185t.327,1.933q.147,1,.341,2.258t.461,3.137a3.371,3.371,0,0,1,.074.52c.01.168.015.3.015.4a1.135,1.135,0,0,1-.446.981,1.665,1.665,0,0,1-1.01.328,1.6,1.6,0,0,1-.922-.284,1.379,1.379,0,0,1-.535-.966,1.268,1.268,0,0,0-.03-.237,4.807,4.807,0,0,1-.059-.506q-.03-.355-.119-1.01t-.223-1.724q-.134-1.071-.357-2.646t-.52-3.8h-1.129Zm2.556-18.282a3.892,3.892,0,0,0-.268-1.664q-.267-.536-1.248-.535h-1.04v8.2h1.069q1.486,0,1.487-1.575Z" transform="translate(0.073)" fill="#868c9e"/>
    <path id="パス_406" data-name="パス 406" d="M722.239,1536.979q0-4.161,3.894-4.162,3.924,0,3.924,4.162v16.676q0,4.164-3.924,4.162-3.894,0-3.894-4.162Zm5.083,0q0-1.4-1.189-1.4-1.16,0-1.159,1.4v16.676q0,1.426,1.159,1.427,1.188,0,1.189-1.427Z" transform="translate(0.145)" fill="#868c9e"/>
    <path id="パス_407" data-name="パス 407" d="M737.084,1557.356a1.369,1.369,0,0,1-2.363-1v-21.64a1.535,1.535,0,0,1,1.635-1.635h3.924a1.322,1.322,0,0,1,1.367,1.367,1.369,1.369,0,0,1-.386,1.011,1.329,1.329,0,0,1-.981.387h-2.824v7.966h1.486a1.292,1.292,0,0,1,.952.357,1.458,1.458,0,0,1,.356,1.07,1.329,1.329,0,0,1-.356.981,1.287,1.287,0,0,1-.952.357h-1.486v9.779A1.343,1.343,0,0,1,737.084,1557.356Z" transform="translate(0.214)" fill="#868c9e"/>
    <path id="パス_408" data-name="パス 408" d="M748.33,1557.356a1.369,1.369,0,0,1-2.364-1v-22.086a1.369,1.369,0,1,1,2.735,0v22.086A1.346,1.346,0,0,1,748.33,1557.356Z" transform="translate(0.262)" fill="#868c9e"/>
    <path id="パス_409" data-name="パス 409" d="M760.443,1556.183a1.278,1.278,0,0,1-1.367,1.367h-3.924a1.535,1.535,0,0,1-1.635-1.635v-21.641a1.369,1.369,0,1,1,2.735,0v20.541h2.824a1.28,1.28,0,0,1,1.367,1.368Z" transform="translate(0.321)" fill="#868c9e"/>
    <path id="パス_410" data-name="パス 410" d="M771.674,1556.183a1.28,1.28,0,0,1-1.368,1.367h-3.924a1.533,1.533,0,0,1-1.634-1.635v-21.2a1.533,1.533,0,0,1,1.634-1.635h3.776a1.322,1.322,0,0,1,1.367,1.367,1.369,1.369,0,0,1-.386,1.011,1.329,1.329,0,0,1-.981.387h-2.676v7.847h1.487q1.277,0,1.278,1.367,0,1.4-1.278,1.4h-1.487v8.353h2.824a1.281,1.281,0,0,1,1.368,1.368Z" transform="translate(0.385)" fill="#868c9e"/>
  </g>
</svg>
