<svg xmlns="http://www.w3.org/2000/svg" width="229" height="100" viewBox="0 0 229 100">
  <g id="homeText2" transform="translate(-1603.557 -2667.62)">
    <path id="パス_380" data-name="パス 380" d="M1639.106,2757.988q.237,1.548.3,2.32c.039.516.06.971.06,1.367a5.063,5.063,0,0,1-1.724,4.221,5.761,5.761,0,0,1-3.626,1.368,5.974,5.974,0,0,1-3.389-1.19,4.75,4.75,0,0,1-1.962-3.686l-1.307-10.939h-12.009l-1.426,11.058a5.16,5.16,0,0,1-1.962,3.567,5.461,5.461,0,0,1-3.269,1.19,5.523,5.523,0,0,1-3.567-1.368,4.993,4.993,0,0,1-1.665-4.1c0-.4.019-.852.06-1.368s.137-1.248.3-2.2l10.938-84.542a6.57,6.57,0,0,1,2.081-4.163,7.153,7.153,0,0,1,4.934-1.544,7.389,7.389,0,0,1,4.993,1.544,6.449,6.449,0,0,1,2.14,4.163Zm-12.84-16.646q-1.31-11.175-2.5-22.414t-2.259-22.771q-1.07,11.536-2.318,22.949t-2.675,22.236Z" fill="#172e59"/>
    <path id="パス_381" data-name="パス 381" d="M1662.848,2766.55a6.136,6.136,0,0,1-6.539-6.54v-84.78a6.138,6.138,0,0,1,6.539-6.54h9.274q7.964,0,11.354,4.043t3.388,12.961v19.857q0,8.325-5.231,10.345a7.845,7.845,0,0,1,4.518,3.091q1.9,2.5,1.9,7.135v23.9q0,8.684-3.983,12.6t-11.948,3.924Zm13.791-81.213q0-3.09-1.069-4.34a4.313,4.313,0,0,0-3.448-1.248h-4.875v31.985h4.993q4.4,0,4.4-5.113Zm.238,41.736a7.344,7.344,0,0,0-1.011-4.4q-1.011-1.307-3.626-1.309h-4.993v34.245h4.875q4.754,0,4.755-5.707Z" fill="#172e59"/>
    <path id="パス_382" data-name="パス 382" d="M1704.732,2684.268q0-16.647,15.575-16.648,15.695,0,15.694,16.648v66.706q0,16.647-15.694,16.646-15.576,0-15.575-16.646Zm20.331,0q0-5.589-4.756-5.589-4.637,0-4.637,5.589v66.706q0,5.706,4.637,5.707,4.755,0,4.756-5.707Z" fill="#172e59"/>
    <path id="パス_383" data-name="パス 383" d="M1773.368,2673.446a5.474,5.474,0,1,1,10.938,0v77.528q0,16.647-15.575,16.646t-15.575-16.646v-77.528a5.474,5.474,0,1,1,10.939,0v77.528q0,5.706,4.636,5.707t4.637-5.707Z" fill="#172e59"/>
    <path id="パス_384" data-name="パス 384" d="M1820.133,2765.777a5.474,5.474,0,0,1-9.452-3.983v-82.045h-5.35q-5.591,0-5.588-5.351,0-5.707,5.588-5.708h21.757q5.468,0,5.469,5.708,0,5.351-5.469,5.351h-5.469v82.045A5.385,5.385,0,0,1,1820.133,2765.777Z" fill="#172e59"/>
  </g>
</svg>
